<svg width="21" height="21" viewBox="0 0 21 21" fill="none" xmlns="http://www.w3.org/2000/svg">
<path d="M17.75 3C18.1768 3 18.5994 3.08406 18.9937 3.24739C19.388 3.41072 19.7463 3.65011 20.0481 3.9519C20.3499 4.25369 20.5893 4.61197 20.7526 5.00628C20.9159 5.40059 21 5.8232 21 6.25V17.75C21 18.1768 20.9159 18.5994 20.7526 18.9937C20.5893 19.388 20.3499 19.7463 20.0481 20.0481C19.7463 20.3499 19.388 20.5893 18.9937 20.7526C18.5994 20.9159 18.1768 21 17.75 21H6.25C5.8232 21 5.40059 20.9159 5.00628 20.7526C4.61197 20.5893 4.25369 20.3499 3.9519 20.0481C3.65011 19.7463 3.41072 19.388 3.24739 18.9937C3.08406 18.5994 3 18.1768 3 17.75V11.502C3.474 11.7 3.977 11.842 4.5 11.924V17.75C4.5 17.958 4.536 18.158 4.603 18.344L10.426 12.643C10.8252 12.2522 11.3554 12.0239 11.9136 12.0025C12.4718 11.981 13.018 12.168 13.446 12.527L13.574 12.643L19.396 18.345C19.463 18.159 19.5 17.959 19.5 17.75V6.25C19.5 5.78587 19.3156 5.34075 18.9874 5.01256C18.6592 4.68437 18.2141 4.5 17.75 4.5H11.924C11.8444 3.9848 11.7027 3.48113 11.502 3H17.75ZM11.559 13.644L11.475 13.714L5.668 19.401C5.85 19.465 6.046 19.5 6.25 19.5H17.75C17.953 19.5 18.149 19.465 18.33 19.401L12.525 13.715C12.3984 13.5909 12.2318 13.5156 12.055 13.5026C11.8782 13.4896 11.7024 13.5397 11.559 13.644ZM15.252 6.5C15.8493 6.5 16.4221 6.73726 16.8444 7.1596C17.2667 7.58193 17.504 8.15473 17.504 8.752C17.504 9.34927 17.2667 9.92207 16.8444 10.3444C16.4221 10.7667 15.8493 11.004 15.252 11.004C14.6547 11.004 14.0819 10.7667 13.6596 10.3444C13.2373 9.92207 13 9.34927 13 8.752C13 8.15473 13.2373 7.58193 13.6596 7.1596C14.0819 6.73726 14.6547 6.5 15.252 6.5ZM5.5 0C6.22227 -1.07627e-08 6.93747 0.142262 7.60476 0.418663C8.27205 0.695063 8.87837 1.10019 9.38909 1.61091C9.89981 2.12163 10.3049 2.72795 10.5813 3.39524C10.8577 4.06253 11 4.77773 11 5.5C11 6.22227 10.8577 6.93747 10.5813 7.60476C10.3049 8.27205 9.89981 8.87837 9.38909 9.38909C8.87837 9.89981 8.27205 10.3049 7.60476 10.5813C6.93747 10.8577 6.22227 11 5.5 11C4.04131 11 2.64236 10.4205 1.61091 9.38909C0.579463 8.35764 0 6.95869 0 5.5C0 4.04131 0.579463 2.64236 1.61091 1.61091C2.64236 0.579463 4.04131 2.17362e-08 5.5 0ZM15.252 8C15.1532 8 15.0555 8.01945 14.9642 8.05724C14.873 8.09503 14.7901 8.15043 14.7203 8.22026C14.6504 8.29009 14.595 8.37298 14.5572 8.46422C14.5195 8.55546 14.5 8.65325 14.5 8.752C14.5 8.85075 14.5195 8.94854 14.5572 9.03978C14.595 9.13101 14.6504 9.21391 14.7203 9.28374C14.7901 9.35357 14.873 9.40897 14.9642 9.44676C15.0555 9.48455 15.1532 9.504 15.252 9.504C15.4514 9.504 15.6427 9.42477 15.7837 9.28374C15.9248 9.14272 16.004 8.95144 16.004 8.752C16.004 8.55256 15.9248 8.36128 15.7837 8.22026C15.6427 8.07923 15.4514 8 15.252 8ZM5.5 2L5.41 2.007C5.3101 2.02525 5.21812 2.07349 5.14631 2.14531C5.07449 2.21712 5.02625 2.3091 5.008 2.409L5 2.5V5H2.498L2.408 5.008C2.3081 5.02625 2.21612 5.07449 2.14431 5.14631C2.07249 5.21812 2.02425 5.3101 2.006 5.41L1.998 5.5L2.006 5.59C2.02425 5.6899 2.07249 5.78188 2.14431 5.85369C2.21612 5.92551 2.3081 5.97375 2.408 5.992L2.498 6H5V8.503L5.008 8.593C5.02625 8.6929 5.07449 8.78488 5.14631 8.85669C5.21812 8.92851 5.3101 8.97675 5.41 8.995L5.5 9.004L5.59 8.995C5.6899 8.97675 5.78188 8.92851 5.85369 8.85669C5.92551 8.78488 5.97375 8.6929 5.992 8.593L6 8.503V6H8.505L8.595 5.992C8.6949 5.97375 8.78688 5.92551 8.85869 5.85369C8.93051 5.78188 8.97875 5.6899 8.997 5.59L9.005 5.5L8.997 5.41C8.97868 5.30996 8.93029 5.21788 8.85829 5.14605C8.78628 5.07423 8.69409 5.02607 8.594 5.008L8.504 5H6V2.5L5.992 2.41C5.97393 2.30991 5.92577 2.21772 5.85395 2.14571C5.78212 2.07371 5.69004 2.02532 5.59 2.007L5.5 2Z" fill="white"/>
</svg>
