<svg width="24" height="24" viewBox="0 0 24 24" fill="none" xmlns="http://www.w3.org/2000/svg">
<path d="M19.5 4.5H3V6.8775L8.5575 12.4425L9 12.8775V19.5H12V18H13.5V19.5C13.5 19.8978 13.342 20.2794 13.0607 20.5607C12.7794 20.842 12.3978 21 12 21H9C8.60218 21 8.22065 20.842 7.93934 20.5607C7.65804 20.2794 7.5 19.8978 7.5 19.5V13.5L1.9425 7.9425C1.80212 7.80296 1.69075 7.63701 1.61481 7.45423C1.53886 7.27144 1.49984 7.07543 1.5 6.8775V4.5C1.5 4.10218 1.65804 3.72064 1.93934 3.43934C2.22064 3.15804 2.60218 3 3 3H19.5V4.5Z" fill="black" fill-opacity="0.54"/>
<path d="M22.2825 8.46794L20.0325 6.21794C19.9628 6.14765 19.8798 6.09185 19.7884 6.05377C19.697 6.0157 19.599 5.99609 19.5 5.99609C19.401 5.99609 19.303 6.0157 19.2116 6.05377C19.1202 6.09185 19.0372 6.14765 18.9675 6.21794L12 13.1929V16.5004H15.3075L22.2825 9.53294C22.3528 9.46322 22.4086 9.38027 22.4467 9.28888C22.4847 9.19748 22.5043 9.09945 22.5043 9.00044C22.5043 8.90143 22.4847 8.8034 22.4467 8.71201C22.4086 8.62062 22.3528 8.53766 22.2825 8.46794ZM14.6925 15.0004H13.5V13.8079L17.25 10.0579L18.4425 11.2504L14.6925 15.0004ZM19.5 10.1929L18.3075 9.00044L19.5 7.80794L20.6925 9.00044L19.5 10.1929Z" fill="black" fill-opacity="0.54"/>
</svg>
