<svg width="36" height="36" viewBox="0 0 36 36" fill="none" xmlns="http://www.w3.org/2000/svg">
<path d="M29.5 0C31.2239 0 32.8772 0.684819 34.0962 1.90381C35.3152 3.12279 36 4.77609 36 6.5V29.5C36 31.2239 35.3152 32.8772 34.0962 34.0962C32.8772 35.3152 31.2239 36 29.5 36H6.5C4.77609 36 3.12279 35.3152 1.90381 34.0962C0.684819 32.8772 0 31.2239 0 29.5V6.5C0 4.77609 0.684819 3.12279 1.90381 1.90381C3.12279 0.684819 4.77609 0 6.5 0H29.5ZM16 8C14.7702 8.00051 13.557 8.28456 12.4548 8.83007C11.3526 9.37558 10.391 10.1679 9.64467 11.1454C8.89838 12.1229 8.3875 13.2593 8.15173 14.4663C7.91595 15.6733 7.96164 16.9184 8.28522 18.1049C8.60881 19.2914 9.2016 20.3873 10.0175 21.3075C10.8334 22.2277 11.8505 22.9474 12.9898 23.4107C14.129 23.874 15.3597 24.0683 16.5863 23.9787C17.8128 23.8891 19.0022 23.5179 20.062 22.894L24.586 27.414L24.774 27.58C25.176 27.8908 25.6812 28.037 26.187 27.9888C26.6929 27.9406 27.1614 27.7017 27.4975 27.3206C27.8336 26.9394 28.012 26.4447 27.9965 25.9368C27.9809 25.4289 27.7727 24.9459 27.414 24.586L22.894 20.062C23.6102 18.8468 23.9924 17.4639 24.0018 16.0533C24.0112 14.6428 23.6475 13.2549 22.9476 12.0303C22.2476 10.8056 21.2363 9.78783 20.0162 9.08005C18.7961 8.37226 17.4105 7.99965 16 8ZM16 12C17.0609 12 18.0783 12.4214 18.8284 13.1716C19.5786 13.9217 20 14.9391 20 16C20 17.0609 19.5786 18.0783 18.8284 18.8284C18.0783 19.5786 17.0609 20 16 20C14.9391 20 13.9217 19.5786 13.1716 18.8284C12.4214 18.0783 12 17.0609 12 16C12 14.9391 12.4214 13.9217 13.1716 13.1716C13.9217 12.4214 14.9391 12 16 12Z" fill="#F89923"/>
</svg>
