<svg width="40" height="40" viewBox="0 0 40 40" fill="none" xmlns="http://www.w3.org/2000/svg">
<circle cx="20" cy="20" r="20" fill="#1B6AAB"/>
<path d="M20.6654 29H10.6654C10.3117 29 9.9726 28.8595 9.72256 28.6095C9.47251 28.3594 9.33203 28.0203 9.33203 27.6667V14.3333C9.33203 13.9797 9.47251 13.6406 9.72256 13.3905C9.9726 13.1405 10.3117 13 10.6654 13H29.332C29.6857 13 30.0248 13.1405 30.2748 13.3905C30.5249 13.6406 30.6654 13.9797 30.6654 14.3333V21.2467C29.7772 20.1155 28.4853 19.3725 27.0609 19.1736C25.6365 18.9748 24.1905 19.3356 23.0266 20.1804C21.8626 21.0251 21.0712 22.288 20.8187 23.7038C20.5661 25.1196 20.872 26.5782 21.672 27.7733L21.052 28.5333L20.6654 29ZM12.6654 17V18.0667H23.9987V17H12.6654ZM12.6654 20.7333H19.9987V19.6667H12.6654V20.7333ZM12.6654 25.4H19.332V24.3333H12.6654V25.4Z" fill="white"/>
<path d="M30.5519 24.7262C30.5537 24.0233 30.381 23.3309 30.0492 22.7112C29.7174 22.0914 29.237 21.5638 28.6511 21.1755C28.0651 20.7872 27.3919 20.5504 26.6919 20.4864C25.9919 20.4224 25.287 20.5332 24.6403 20.8087C23.9936 21.0843 23.4255 21.5161 22.9869 22.0654C22.5482 22.6147 22.2528 23.2643 22.1271 23.9559C22.0013 24.6475 22.0493 25.3595 22.2665 26.028C22.4838 26.6965 22.8636 27.3006 23.3719 27.7862L22.0786 29.3662L22.6786 31.7729L25.1186 28.7995C25.8909 29.0279 26.7129 29.0279 27.4852 28.7995L29.9252 31.7729L30.5252 29.3662L29.2319 27.7862C29.6478 27.3922 29.9793 26.9178 30.2062 26.3918C30.4331 25.8657 30.5508 25.2991 30.5519 24.7262ZM23.3919 24.7262C23.384 24.1484 23.5481 23.5812 23.8633 23.0969C24.1786 22.6125 24.6308 22.2329 25.1624 22.0063C25.694 21.7796 26.281 21.7162 26.8487 21.824C27.4164 21.9319 27.9393 22.2062 28.3507 22.612C28.7622 23.0178 29.0436 23.5368 29.1593 24.103C29.275 24.6692 29.2197 25.257 29.0004 25.7916C28.7812 26.3263 28.4078 26.7837 27.9279 27.1056C27.448 27.4275 26.8831 27.5995 26.3052 27.5995C25.5396 27.6013 24.8042 27.3002 24.2597 26.7619C23.7152 26.2236 23.4056 25.4918 23.3986 24.7262H23.3919Z" fill="white"/>
</svg>
