<svg width="16" height="16" viewBox="0 0 16 16" fill="none" xmlns="http://www.w3.org/2000/svg">
<path d="M14.223 2.66699H1.77854C1.54279 2.66699 1.3167 2.76064 1.15 2.92734C0.983299 3.09404 0.889648 3.32013 0.889648 3.55588V12.4448C0.889648 12.6805 0.983299 12.9066 1.15 13.0733C1.3167 13.24 1.54279 13.3337 1.77854 13.3337H8.4452L8.69854 13.0225L9.11187 12.5159L9.07187 12.4448H1.77854V3.55588H14.223V7.36032C14.5606 7.5789 14.8608 7.85054 15.1119 8.16477V3.55588C15.1119 3.32013 15.0182 3.09404 14.8515 2.92734C14.6848 2.76064 14.4587 2.66699 14.223 2.66699Z" fill="black" fill-opacity="0.54"/>
<path d="M3.11035 5.33301H10.6659V6.04412H3.11035V5.33301Z" fill="black" fill-opacity="0.54"/>
<path d="M3.11035 7.11133H7.99924V7.82244H3.11035V7.11133Z" fill="black" fill-opacity="0.54"/>
<path d="M3.11035 10.2227H7.5548V10.9338H3.11035V10.2227Z" fill="black" fill-opacity="0.54"/>
<path d="M12.2046 7.65829C11.6358 7.65378 11.079 7.82094 10.6067 8.13793C10.1345 8.45492 9.76887 8.90699 9.55764 9.43507C9.34641 9.96315 9.2994 10.5427 9.42274 11.0979C9.54609 11.6531 9.83406 12.1582 10.249 12.5472L9.3868 13.6005L9.7868 15.205L11.4135 13.2227C11.9284 13.375 12.4763 13.375 12.9912 13.2227L14.6179 15.205L15.0179 13.6005L14.1557 12.5472C14.5707 12.1582 14.8586 11.6531 14.982 11.0979C15.1053 10.5427 15.0583 9.96315 14.8471 9.43507C14.6358 8.90699 14.2702 8.45492 13.798 8.13793C13.3258 7.82094 12.7689 7.65378 12.2001 7.65829H12.2046ZM12.2046 12.405C11.8269 12.3997 11.4592 12.2829 11.1477 12.0692C10.8362 11.8556 10.5949 11.5546 10.454 11.2042C10.3131 10.8537 10.2789 10.4694 10.3558 10.0996C10.4327 9.72981 10.6172 9.39099 10.8861 9.12576C11.1551 8.86052 11.4964 8.68071 11.8672 8.60894C12.2381 8.53716 12.6219 8.57662 12.9703 8.72235C13.3188 8.86809 13.6164 9.11359 13.8257 9.428C14.0351 9.74241 14.1468 10.1117 14.1468 10.4894C14.1421 11.0006 13.9351 11.4892 13.5711 11.8481C13.2072 12.2071 12.7158 12.4073 12.2046 12.405Z" fill="black" fill-opacity="0.54"/>
</svg>
