<svg width="16" height="16" viewBox="0 0 16 16" fill="none" xmlns="http://www.w3.org/2000/svg">
<path d="M14.3352 2.66602H12.8907V3.5549H14.2241V13.3327H1.77963V3.5549H3.11296V2.66602H1.66852C1.56462 2.66775 1.46209 2.68994 1.36677 2.73131C1.27145 2.77268 1.18522 2.83242 1.11299 2.90712C1.04076 2.98183 0.98396 3.07002 0.945826 3.16668C0.907692 3.26334 0.888973 3.36657 0.890739 3.47046V13.4171C0.888973 13.521 0.907692 13.6242 0.945826 13.7209C0.98396 13.8176 1.04076 13.9058 1.11299 13.9805C1.18522 14.0552 1.27145 14.1149 1.36677 14.1563C1.46209 14.1976 1.56462 14.2198 1.66852 14.2216H14.3352C14.4391 14.2198 14.5416 14.1976 14.6369 14.1563C14.7322 14.1149 14.8185 14.0552 14.8907 13.9805C14.9629 13.9058 15.0197 13.8176 15.0579 13.7209C15.096 13.6242 15.1147 13.521 15.113 13.4171V3.47046C15.1147 3.36657 15.096 3.26334 15.0579 3.16668C15.0197 3.07002 14.9629 2.98183 14.8907 2.90712C14.8185 2.83242 14.7322 2.77268 14.6369 2.73131C14.5416 2.68994 14.4391 2.66775 14.3352 2.66602Z" fill="#1B6AAB"/>
<path d="M3.55469 6.22266H4.44358V7.11155H3.55469V6.22266Z" fill="#1B6AAB"/>
<path d="M6.22266 6.22266H7.11155V7.11155H6.22266V6.22266Z" fill="#1B6AAB"/>
<path d="M8.89062 6.22266H9.77951V7.11155H8.89062V6.22266Z" fill="#1B6AAB"/>
<path d="M11.5547 6.22266H12.4436V7.11155H11.5547V6.22266Z" fill="#1B6AAB"/>
<path d="M3.55469 8.44531H4.44358V9.3342H3.55469V8.44531Z" fill="#1B6AAB"/>
<path d="M6.22266 8.44531H7.11155V9.3342H6.22266V8.44531Z" fill="#1B6AAB"/>
<path d="M8.89062 8.44531H9.77951V9.3342H8.89062V8.44531Z" fill="#1B6AAB"/>
<path d="M11.5547 8.44531H12.4436V9.3342H11.5547V8.44531Z" fill="#1B6AAB"/>
<path d="M3.55469 10.666H4.44358V11.5549H3.55469V10.666Z" fill="#1B6AAB"/>
<path d="M6.22266 10.666H7.11155V11.5549H6.22266V10.666Z" fill="#1B6AAB"/>
<path d="M8.89062 10.666H9.77951V11.5549H8.89062V10.666Z" fill="#1B6AAB"/>
<path d="M11.5547 10.666H12.4436V11.5549H11.5547V10.666Z" fill="#1B6AAB"/>
<path d="M4.44444 4.44423C4.56232 4.44423 4.67536 4.3974 4.75871 4.31405C4.84206 4.2307 4.88889 4.11766 4.88889 3.99978V1.33312C4.88889 1.21524 4.84206 1.1022 4.75871 1.01885C4.67536 0.935497 4.56232 0.888672 4.44444 0.888672C4.32657 0.888672 4.21352 0.935497 4.13017 1.01885C4.04683 1.1022 4 1.21524 4 1.33312V3.99978C4 4.11766 4.04683 4.2307 4.13017 4.31405C4.21352 4.3974 4.32657 4.44423 4.44444 4.44423Z" fill="#1B6AAB"/>
<path d="M11.5538 4.44423C11.6717 4.44423 11.7847 4.3974 11.8681 4.31405C11.9514 4.2307 11.9983 4.11766 11.9983 3.99978V1.33312C11.9983 1.21524 11.9514 1.1022 11.8681 1.01885C11.7847 0.935497 11.6717 0.888672 11.5538 0.888672C11.4359 0.888672 11.3229 0.935497 11.2395 1.01885C11.1562 1.1022 11.1094 1.21524 11.1094 1.33312V3.99978C11.1094 4.11766 11.1562 4.2307 11.2395 4.31405C11.3229 4.3974 11.4359 4.44423 11.5538 4.44423Z" fill="#1B6AAB"/>
<path d="M5.77734 2.66602H10.2218V3.5549H5.77734V2.66602Z" fill="#1B6AAB"/>
</svg>
