<svg width="14" height="36" viewBox="0 0 14 36" fill="none" xmlns="http://www.w3.org/2000/svg">
<path d="M7.00286 35.9995C7.74199 35.9995 8.47286 35.7576 9.04471 35.2647C10.4753 34.0322 10.4187 31.8871 9.8609 30.0214C9.50066 28.8156 8.50527 28.1797 7.26677 28.1413C6.31908 28.1118 5.36956 28.1127 4.42157 28.1382C2.80846 28.1821 1.58463 29.4702 1.5195 31.1624C1.50757 31.4695 1.50971 31.7769 1.50971 32.0842C1.50971 34.0715 1.89043 34.9436 3.26686 35.6578C3.71241 35.889 4.20598 35.9995 4.70291 35.9995H7.00286Z" fill="#F89923"/>
<path d="M13.1708 9.68907C13.558 8.37056 13.9479 7.03485 13.9956 5.66106C14.043 4.28728 13.7112 2.8484 12.8069 1.81637C11.3012 0.098062 8.72477 -0.0514762 6.44622 0.011164C4.52118 0.0642853 2.38147 0.277385 1.10199 1.72272C-0.366481 3.38145 -0.0710735 5.90886 0.31271 8.09482C1.18731 13.0753 2.06191 18.0558 2.93681 23.0367C3.11265 24.0386 3.34414 25.136 4.1481 25.7554C5.09976 26.4883 7.34009 26.3483 8.26117 25.549C9.29631 24.6506 9.52475 22.1075 9.90486 20.8139C10.9932 17.1055 12.0819 13.3971 13.1708 9.68907Z" fill="#F89923"/>
</svg>
