<svg width="18" height="19" viewBox="0 0 18 19" fill="none" xmlns="http://www.w3.org/2000/svg">
<path d="M10.25 5.75064C10.0511 5.75064 9.86032 5.82986 9.71967 5.97088C9.57902 6.1119 9.5 6.30316 9.5 6.50259C9.5 6.70202 9.57902 6.89328 9.71967 7.0343C9.86032 7.17532 10.0511 7.25454 10.25 7.25454H13.75C13.9489 7.25454 14.1397 7.17532 14.2803 7.0343C14.421 6.89328 14.5 6.70202 14.5 6.50259C14.5 6.30316 14.421 6.1119 14.2803 5.97088C14.1397 5.82986 13.9489 5.75064 13.75 5.75064H10.25ZM9.5 12.0169C9.5 11.8175 9.57902 11.6262 9.71967 11.4852C9.86032 11.3442 10.0511 11.265 10.25 11.265H13.75C13.9489 11.265 14.1397 11.3442 14.2803 11.4852C14.421 11.6262 14.5 11.8175 14.5 12.0169C14.5 12.2163 14.421 12.4076 14.2803 12.5486C14.1397 12.6896 13.9489 12.7689 13.75 12.7689H10.25C10.0511 12.7689 9.86032 12.6896 9.71967 12.5486C9.57902 12.4076 9.5 12.2163 9.5 12.0169ZM7.78 4.96861C7.92045 5.1096 7.99934 5.30072 7.99934 5.49999C7.99934 5.69926 7.92045 5.89038 7.78 6.03137L5.78 8.03657C5.63937 8.17739 5.44875 8.25648 5.25 8.25648C5.05125 8.25648 4.86063 8.17739 4.72 8.03657L3.72 7.03397C3.58752 6.89143 3.5154 6.70289 3.51883 6.50808C3.52225 6.31328 3.60097 6.12741 3.73838 5.98964C3.87579 5.85187 4.06118 5.77295 4.25548 5.76951C4.44978 5.76608 4.63783 5.83839 4.78 5.97121L5.25 6.44243L6.72 4.96861C6.86063 4.82779 7.05125 4.7487 7.25 4.7487C7.44875 4.7487 7.63937 4.82779 7.78 4.96861ZM7.78 11.5457C7.85369 11.4768 7.91279 11.3938 7.95378 11.3016C7.99477 11.2093 8.01682 11.1098 8.01859 11.0088C8.02037 10.9078 8.00184 10.8076 7.96412 10.7139C7.9264 10.6203 7.87026 10.5352 7.79904 10.4638C7.72782 10.3924 7.64299 10.3361 7.5496 10.2983C7.45621 10.2605 7.35618 10.2419 7.25548 10.2437C7.15478 10.2455 7.05546 10.2676 6.96346 10.3087C6.87146 10.3498 6.78866 10.409 6.72 10.4829L5.25 11.9567L4.78 11.4855C4.63783 11.3527 4.44978 11.2804 4.25548 11.2838C4.06118 11.2873 3.87579 11.3662 3.73838 11.504C3.60097 11.6417 3.52225 11.8276 3.51883 12.0224C3.5154 12.2172 3.58752 12.4057 3.72 12.5483L4.72 13.5509C4.86063 13.6917 5.05125 13.7708 5.25 13.7708C5.44875 13.7708 5.63937 13.6917 5.78 13.5509L7.78 11.5457ZM2.25 0.236328C1.65326 0.236328 1.08097 0.473998 0.65901 0.897053C0.237053 1.32011 0 1.89389 0 2.49218V16.0273C0 16.6256 0.237053 17.1994 0.65901 17.6224C1.08097 18.0455 1.65326 18.2832 2.25 18.2832H15.75C16.3467 18.2832 16.919 18.0455 17.341 17.6224C17.7629 17.1994 18 16.6256 18 16.0273V2.49218C18 1.89389 17.7629 1.32011 17.341 0.897053C16.919 0.473998 16.3467 0.236328 15.75 0.236328H2.25ZM1.5 2.49218C1.5 2.29275 1.57902 2.10149 1.71967 1.96047C1.86032 1.81945 2.05109 1.74023 2.25 1.74023H15.75C15.9489 1.74023 16.1397 1.81945 16.2803 1.96047C16.421 2.10149 16.5 2.29275 16.5 2.49218V16.0273C16.5 16.2267 16.421 16.418 16.2803 16.559C16.1397 16.7 15.9489 16.7793 15.75 16.7793H2.25C2.05109 16.7793 1.86032 16.7 1.71967 16.559C1.57902 16.418 1.5 16.2267 1.5 16.0273V2.49218Z" fill="black" fill-opacity="0.7"/>
</svg>
