<svg width="14" height="14" viewBox="0 0 14 14" fill="none" xmlns="http://www.w3.org/2000/svg">
<path fill-rule="evenodd" clip-rule="evenodd" d="M7.00016 9.12877L10.9457 13.1684C11.3415 13.5768 11.599 13.581 12.0021 13.1684L12.7937 12.3577C13.1815 11.9608 13.2078 11.7002 12.7937 11.2762L8.61655 7L12.7941 2.72381C13.1853 2.32191 13.1929 2.05067 12.7941 1.64191L12.0024 0.831623C11.5918 0.411052 11.3381 0.430481 10.9461 0.831623L7.00016 4.87124L3.05464 0.832004C2.66264 0.430861 2.40893 0.411433 1.99826 0.832004L1.20664 1.64229C0.807401 2.05105 0.814639 2.32229 1.20664 2.7242L5.38378 7L1.20664 11.2762C0.792544 11.7002 0.814639 11.9608 1.20664 12.3577L1.99788 13.1684C2.3975 13.581 2.65502 13.5768 3.05426 13.1684L7.00016 9.12877Z" fill="black"/>
</svg>
