<svg width="15" height="8" viewBox="0 0 15 8" fill="none" xmlns="http://www.w3.org/2000/svg">
<path d="M14.0013 1.17032C14.0018 1.31972 13.9688 1.46733 13.9048 1.60231C13.8407 1.73729 13.7473 1.85621 13.6313 1.95032L7.63125 6.78032C7.45232 6.92741 7.22788 7.00781 6.99625 7.00781C6.76463 7.00781 6.54018 6.92741 6.36125 6.78032L0.361252 1.78032C0.157036 1.61059 0.0286112 1.36667 0.0042315 1.10225C-0.0201482 0.837822 0.0615137 0.574541 0.231252 0.370325C0.400991 0.166108 0.644902 0.037684 0.909329 0.0133042C1.17375 -0.0110755 1.43704 0.0705857 1.64125 0.240324L7.00125 4.71032L12.3613 0.390325C12.508 0.268042 12.6868 0.190365 12.8763 0.166485C13.0659 0.142606 13.2583 0.173522 13.4308 0.255579C13.6034 0.337635 13.7488 0.467394 13.8499 0.629505C13.9509 0.791615 14.0035 0.979291 14.0013 1.17032Z" fill="black" fill-opacity="0.54"/>
</svg>
