<svg width="50" height="50" viewBox="0 0 50 50" fill="none" xmlns="http://www.w3.org/2000/svg">
<path d="M39.0612 8.33301C39.9504 8.33301 40.8308 8.50814 41.6523 8.84841C42.4738 9.18867 43.2202 9.68741 43.8489 10.3161C44.4776 10.9449 44.9764 11.6913 45.3166 12.5128C45.6569 13.3342 45.832 14.2147 45.832 15.1038V39.0622C45.832 39.9513 45.6569 40.8318 45.3166 41.6533C44.9764 42.4747 44.4776 43.2211 43.8489 43.8499C43.2202 44.4786 42.4738 44.9773 41.6523 45.3176C40.8308 45.6579 39.9504 45.833 39.0612 45.833H15.1029C14.2137 45.833 13.3333 45.6579 12.5118 45.3176C11.6903 44.9773 10.9439 44.4786 10.3152 43.8499C9.68643 43.2211 9.1877 42.4747 8.84743 41.6533C8.50716 40.8318 8.33203 39.9513 8.33203 39.0622V26.0455C9.31953 26.458 10.3674 26.7538 11.457 26.9247V39.0622C11.457 39.4955 11.532 39.9122 11.6716 40.2997L23.8029 28.4226C24.6345 27.6085 25.7392 27.1328 26.9021 27.0882C28.065 27.0435 29.2029 27.433 30.0945 28.1809L30.3612 28.4226L42.4904 40.3018C42.63 39.9143 42.707 39.4976 42.707 39.0622V15.1038C42.707 14.1369 42.3229 13.2096 41.6392 12.5258C40.9555 11.8421 40.0281 11.458 39.0612 11.458H26.9237C26.7579 10.3847 26.4627 9.33537 26.0445 8.33301H39.0612ZM26.1633 30.508L25.9883 30.6538L13.8904 42.5018C14.2695 42.6351 14.6779 42.708 15.1029 42.708H39.0612C39.4841 42.708 39.8925 42.6351 40.2695 42.5018L28.1758 30.6559C27.912 30.3973 27.565 30.2406 27.1966 30.2135C26.8282 30.1864 26.4621 30.2908 26.1633 30.508ZM33.857 15.6247C35.1013 15.6247 36.2947 16.119 37.1745 16.9988C38.0544 17.8787 38.5487 19.072 38.5487 20.3163C38.5487 21.5606 38.0544 22.754 37.1745 23.6339C36.2947 24.5137 35.1013 25.008 33.857 25.008C32.6127 25.008 31.4194 24.5137 30.5395 23.6339C29.6597 22.754 29.1654 21.5606 29.1654 20.3163C29.1654 19.072 29.6597 17.8787 30.5395 16.9988C31.4194 16.119 32.6127 15.6247 33.857 15.6247ZM13.5404 2.08301C15.0451 2.08301 16.5351 2.37939 17.9253 2.95522C19.3155 3.53106 20.5786 4.37507 21.6426 5.43908C22.7066 6.50308 23.5507 7.76624 24.1265 9.15643C24.7023 10.5466 24.9987 12.0366 24.9987 13.5413C24.9987 15.0461 24.7023 16.5361 24.1265 17.9263C23.5507 19.3164 22.7066 20.5796 21.6426 21.6436C20.5786 22.7076 19.3155 23.5516 17.9253 24.1275C16.5351 24.7033 15.0451 24.9997 13.5404 24.9997C10.5014 24.9997 7.58695 23.7925 5.4381 21.6436C3.28925 19.4948 2.08203 16.5803 2.08203 13.5413C2.08203 10.5024 3.28925 7.58793 5.4381 5.43908C7.58695 3.29022 10.5014 2.08301 13.5404 2.08301ZM33.857 18.7497C33.6513 18.7497 33.4476 18.7902 33.2575 18.8689C33.0674 18.9477 32.8947 19.0631 32.7492 19.2085C32.6038 19.354 32.4884 19.5267 32.4096 19.7168C32.3309 19.9069 32.2904 20.1106 32.2904 20.3163C32.2904 20.5221 32.3309 20.7258 32.4096 20.9159C32.4884 21.106 32.6038 21.2787 32.7492 21.4241C32.8947 21.5696 33.0674 21.685 33.2575 21.7638C33.4476 21.8425 33.6513 21.883 33.857 21.883C34.2725 21.883 34.671 21.7179 34.9648 21.4241C35.2586 21.1303 35.4237 20.7318 35.4237 20.3163C35.4237 19.9008 35.2586 19.5023 34.9648 19.2085C34.671 18.9147 34.2725 18.7497 33.857 18.7497ZM13.5404 6.24967L13.3529 6.26426C13.1447 6.30228 12.9531 6.40279 12.8035 6.55239C12.6539 6.702 12.5534 6.89362 12.5154 7.10176L12.4987 7.29134V12.4997H7.2862L7.0987 12.5163C6.89056 12.5544 6.69894 12.6549 6.54934 12.8045C6.39973 12.9541 6.29922 13.1457 6.2612 13.3538L6.24453 13.5413L6.2612 13.7288C6.29922 13.937 6.39973 14.1286 6.54934 14.2782C6.69894 14.4278 6.89056 14.5283 7.0987 14.5663L7.2862 14.583H12.4987V19.7976L12.5154 19.9851C12.5534 20.1932 12.6539 20.3848 12.8035 20.5345C12.9531 20.6841 13.1447 20.7846 13.3529 20.8226L13.5404 20.8413L13.7279 20.8226C13.936 20.7846 14.1276 20.6841 14.2772 20.5345C14.4268 20.3848 14.5273 20.1932 14.5654 19.9851L14.582 19.7976V14.583H19.8008L19.9883 14.5663C20.1964 14.5283 20.388 14.4278 20.5376 14.2782C20.6873 14.1286 20.7878 13.937 20.8258 13.7288L20.8424 13.5413L20.8258 13.3538C20.7876 13.1454 20.6868 12.9536 20.5368 12.804C20.3868 12.6543 20.1947 12.554 19.9862 12.5163L19.7987 12.4997H14.582V7.29134L14.5654 7.10384C14.5277 6.89533 14.4274 6.70325 14.2778 6.55324C14.1281 6.40323 13.9363 6.30242 13.7279 6.26426L13.5404 6.24967Z" fill="#1B6AAB"/>
</svg>
