<svg width="16" height="16" viewBox="0 0 16 16" fill="none" xmlns="http://www.w3.org/2000/svg">
<g clip-path="url(#clip0)">
<path d="M6 8C6.79565 8 7.55871 7.68393 8.12132 7.12132C8.68393 6.55871 9 5.79565 9 5C9 4.20435 8.68393 3.44129 8.12132 2.87868C7.55871 2.31607 6.79565 2 6 2C5.20435 2 4.44129 2.31607 3.87868 2.87868C3.31607 3.44129 3 4.20435 3 5C3 5.79565 3.31607 6.55871 3.87868 7.12132C4.44129 7.68393 5.20435 8 6 8ZM8 5C8 5.53043 7.78929 6.03914 7.41421 6.41421C7.03914 6.78929 6.53043 7 6 7C5.46957 7 4.96086 6.78929 4.58579 6.41421C4.21071 6.03914 4 5.53043 4 5C4 4.46957 4.21071 3.96086 4.58579 3.58579C4.96086 3.21071 5.46957 3 6 3C6.53043 3 7.03914 3.21071 7.41421 3.58579C7.78929 3.96086 8 4.46957 8 5ZM12 13C12 14 11 14 11 14H1C1 14 0 14 0 13C0 12 1 9 6 9C11 9 12 12 12 13ZM11 12.996C10.999 12.75 10.846 12.01 10.168 11.332C9.516 10.68 8.289 10 6 10C3.71 10 2.484 10.68 1.832 11.332C1.154 12.01 1.002 12.75 1 12.996H11Z" fill="black" fill-opacity="0.54"/>
<path fill-rule="evenodd" clip-rule="evenodd" d="M15.8537 5.14592C15.9002 5.19236 15.9372 5.24754 15.9624 5.30828C15.9876 5.36903 16.0005 5.43415 16.0005 5.49992C16.0005 5.56568 15.9876 5.63081 15.9624 5.69155C15.9372 5.7523 15.9002 5.80747 15.8537 5.85392L12.8537 8.85392C12.8072 8.90048 12.752 8.93742 12.6913 8.96263C12.6305 8.98784 12.5654 9.00081 12.4997 9.00081C12.4339 9.00081 12.3688 8.98784 12.308 8.96263C12.2473 8.93742 12.1921 8.90048 12.1457 8.85392L10.6457 7.35392C10.5518 7.26003 10.499 7.13269 10.499 6.99992C10.499 6.86714 10.5518 6.7398 10.6457 6.64592C10.7395 6.55203 10.8669 6.49929 10.9997 6.49929C11.1324 6.49929 11.2598 6.55203 11.3537 6.64592L12.4997 7.79292L15.1457 5.14592C15.1921 5.09935 15.2473 5.06241 15.308 5.0372C15.3688 5.012 15.4339 4.99902 15.4997 4.99902C15.5654 4.99902 15.6305 5.012 15.6913 5.0372C15.752 5.06241 15.8072 5.09935 15.8537 5.14592Z" fill="black" fill-opacity="0.54"/>
</g>
<defs>
<clipPath id="clip0">
<rect width="16" height="16" fill="white"/>
</clipPath>
</defs>
</svg>
