<svg width="24" height="25" viewBox="0 0 24 25" fill="none" xmlns="http://www.w3.org/2000/svg">
<path d="M10.185 7.78295C10.0729 7.7029 9.9409 7.65534 9.80358 7.64548C9.66627 7.63562 9.52889 7.66384 9.40651 7.72705C9.28413 7.79026 9.18147 7.88603 9.10976 8.00385C9.03806 8.12168 9.00008 8.25702 9 8.39504V15.9146C9.00008 16.0526 9.03806 16.1879 9.10976 16.3057C9.18147 16.4236 9.28413 16.5193 9.40651 16.5825C9.52889 16.6458 9.66627 16.674 9.80358 16.6641C9.9409 16.6543 10.0729 16.6067 10.185 16.5266L15.435 12.7669C15.5322 12.6973 15.6115 12.6055 15.6661 12.499C15.7208 12.3926 15.7494 12.2745 15.7494 12.1548C15.7494 12.035 15.7208 11.917 15.6661 11.8106C15.6115 11.7041 15.5322 11.6123 15.435 11.5427L10.185 7.78295Z" fill="black" fill-opacity="0.7"/>
<path d="M0 6.13964C0 5.34192 0.316071 4.57687 0.87868 4.0128C1.44129 3.44873 2.20435 3.13184 3 3.13184H21C21.7956 3.13184 22.5587 3.44873 23.1213 4.0128C23.6839 4.57687 24 5.34192 24 6.13964V18.1709C24 18.9686 23.6839 19.7336 23.1213 20.2977C22.5587 20.8618 21.7956 21.1787 21 21.1787H3C2.20435 21.1787 1.44129 20.8618 0.87868 20.2977C0.316071 19.7336 0 18.9686 0 18.1709V6.13964ZM22.5 6.13964C22.5 5.74078 22.342 5.35826 22.0607 5.07622C21.7794 4.79419 21.3978 4.63574 21 4.63574H3C2.60218 4.63574 2.22064 4.79419 1.93934 5.07622C1.65804 5.35826 1.5 5.74078 1.5 6.13964V18.1709C1.5 18.5697 1.65804 18.9522 1.93934 19.2343C2.22064 19.5163 2.60218 19.6748 3 19.6748H21C21.3978 19.6748 21.7794 19.5163 22.0607 19.2343C22.342 18.9522 22.5 18.5697 22.5 18.1709V6.13964Z" fill="black" fill-opacity="0.7"/>
</svg>
