<svg width="16" height="20" viewBox="0 0 16 20" fill="none" xmlns="http://www.w3.org/2000/svg">
<path d="M3.19922 4.00078C3.19922 3.68252 3.32565 3.3773 3.55069 3.15225C3.77573 2.92721 4.08096 2.80078 4.39922 2.80078H11.5992C11.9175 2.80078 12.2227 2.92721 12.4477 3.15225C12.6728 3.3773 12.7992 3.68252 12.7992 4.00078V5.20078C12.7992 5.51904 12.6728 5.82427 12.4477 6.04931C12.2227 6.27435 11.9175 6.40078 11.5992 6.40078H4.39922C4.08096 6.40078 3.77573 6.27435 3.55069 6.04931C3.32565 5.82427 3.19922 5.51904 3.19922 5.20078V4.00078ZM4.39922 4.00078V5.20078H11.5992V4.00078H4.39922Z" fill="#1B6AAB"/>
<path d="M0.800781 2.80039V17.2004C0.800781 17.8369 1.05364 18.4474 1.50372 18.8974C1.95381 19.3475 2.56426 19.6004 3.20078 19.6004H14.6008C14.7599 19.6004 14.9125 19.5372 15.025 19.4247C15.1376 19.3121 15.2008 19.1595 15.2008 19.0004C15.2008 18.8413 15.1376 18.6886 15.025 18.5761C14.9125 18.4636 14.7599 18.4004 14.6008 18.4004H3.20078C2.88252 18.4004 2.5773 18.274 2.35225 18.0489C2.12721 17.8239 2.00078 17.5187 2.00078 17.2004H14.0008C14.319 17.2004 14.6243 17.074 14.8493 16.8489C15.0744 16.6239 15.2008 16.3186 15.2008 16.0004V2.80039C15.2008 2.16387 14.9479 1.55342 14.4978 1.10333C14.0478 0.653247 13.4373 0.400391 12.8008 0.400391H3.20078C2.56426 0.400391 1.95381 0.653247 1.50372 1.10333C1.05364 1.55342 0.800781 2.16387 0.800781 2.80039ZM12.8008 1.60039C13.119 1.60039 13.4243 1.72682 13.6493 1.95186C13.8744 2.17691 14.0008 2.48213 14.0008 2.80039V16.0004H2.00078V2.80039C2.00078 2.48213 2.12721 2.17691 2.35225 1.95186C2.5773 1.72682 2.88252 1.60039 3.20078 1.60039H12.8008Z" fill="#1B6AAB"/>
</svg>
