<svg width="24" height="24" viewBox="0 0 24 24" fill="none" xmlns="http://www.w3.org/2000/svg">
<path d="M21.4989 4H19.3322V5.33333H21.3322V20H2.66554V5.33333H4.66554V4H2.49887C2.34303 4.0026 2.18923 4.03588 2.04625 4.09794C1.90327 4.15999 1.77392 4.24961 1.66558 4.36166C1.55724 4.47371 1.47203 4.60601 1.41483 4.751C1.35763 4.89599 1.32955 5.05083 1.3322 5.20667V20.1267C1.32955 20.2825 1.35763 20.4373 1.41483 20.5823C1.47203 20.7273 1.55724 20.8596 1.66558 20.9717C1.77392 21.0837 1.90327 21.1733 2.04625 21.2354C2.18923 21.2974 2.34303 21.3307 2.49887 21.3333H21.4989C21.6547 21.3307 21.8085 21.2974 21.9515 21.2354C22.0945 21.1733 22.2238 21.0837 22.3322 20.9717C22.4405 20.8596 22.5257 20.7273 22.5829 20.5823C22.6401 20.4373 22.6682 20.2825 22.6655 20.1267V5.20667C22.6682 5.05083 22.6401 4.89599 22.5829 4.751C22.5257 4.60601 22.4405 4.47371 22.3322 4.36166C22.2238 4.24961 22.0945 4.15999 21.9515 4.09794C21.8085 4.03588 21.6547 4.0026 21.4989 4Z" fill="#1B6AAB"/>
<path d="M5.33203 9.33301H6.66536V10.6663H5.33203V9.33301Z" fill="#1B6AAB"/>
<path d="M9.33203 9.33301H10.6654V10.6663H9.33203V9.33301Z" fill="#1B6AAB"/>
<path d="M13.332 9.33301H14.6654V10.6663H13.332V9.33301Z" fill="#1B6AAB"/>
<path d="M17.332 9.33301H18.6654V10.6663H17.332V9.33301Z" fill="#1B6AAB"/>
<path d="M5.33203 12.667H6.66536V14.0003H5.33203V12.667Z" fill="#1B6AAB"/>
<path d="M9.33203 12.667H10.6654V14.0003H9.33203V12.667Z" fill="#1B6AAB"/>
<path d="M13.332 12.667H14.6654V14.0003H13.332V12.667Z" fill="#1B6AAB"/>
<path d="M17.332 12.667H18.6654V14.0003H17.332V12.667Z" fill="#1B6AAB"/>
<path d="M5.33203 16H6.66536V17.3333H5.33203V16Z" fill="#1B6AAB"/>
<path d="M9.33203 16H10.6654V17.3333H9.33203V16Z" fill="#1B6AAB"/>
<path d="M13.332 16H14.6654V17.3333H13.332V16Z" fill="#1B6AAB"/>
<path d="M17.332 16H18.6654V17.3333H17.332V16Z" fill="#1B6AAB"/>
<path d="M6.66667 6.66634C6.84348 6.66634 7.01305 6.5961 7.13807 6.47108C7.2631 6.34605 7.33333 6.17649 7.33333 5.99967V1.99967C7.33333 1.82286 7.2631 1.65329 7.13807 1.52827C7.01305 1.40325 6.84348 1.33301 6.66667 1.33301C6.48986 1.33301 6.32029 1.40325 6.19526 1.52827C6.07024 1.65329 6 1.82286 6 1.99967V5.99967C6 6.17649 6.07024 6.34605 6.19526 6.47108C6.32029 6.5961 6.48986 6.66634 6.66667 6.66634Z" fill="#1B6AAB"/>
<path d="M17.3346 6.66634C17.5114 6.66634 17.681 6.5961 17.806 6.47108C17.9311 6.34605 18.0013 6.17649 18.0013 5.99967V1.99967C18.0013 1.82286 17.9311 1.65329 17.806 1.52827C17.681 1.40325 17.5114 1.33301 17.3346 1.33301C17.1578 1.33301 16.9883 1.40325 16.8632 1.52827C16.7382 1.65329 16.668 1.82286 16.668 1.99967V5.99967C16.668 6.17649 16.7382 6.34605 16.8632 6.47108C16.9883 6.5961 17.1578 6.66634 17.3346 6.66634Z" fill="#1B6AAB"/>
<path d="M8.66797 4H15.3346V5.33333H8.66797V4Z" fill="#1B6AAB"/>
</svg>
