<svg width="24" height="25" viewBox="0 0 24 25" fill="none" xmlns="http://www.w3.org/2000/svg">
<g clip-path="url(#clip0)">
<path d="M21.75 21.4912H2.25001C1.0093 21.4912 0 20.4793 0 19.2354V15.4756C0 15.0599 0.335439 14.7236 0.750005 14.7236C1.99072 14.7236 3.00002 13.7117 3.00002 12.4678C3.00002 11.2238 1.99072 10.2119 0.750005 10.2119C0.335439 10.2119 0 9.87563 0 9.45999V5.7002C0 4.45626 1.0093 3.44434 2.25001 3.44434H21.75C22.9908 3.44434 24 4.45626 24 5.7002V9.45999C24 9.87563 23.6646 10.2119 23.25 10.2119C22.0093 10.2119 21 11.2239 21 12.4678C21 13.7118 22.0093 14.7237 23.25 14.7237C23.6646 14.7237 24 15.06 24 15.4756V19.2354C24 20.4793 22.9908 21.4912 21.75 21.4912ZM1.50001 16.1519V19.2354C1.50001 19.6503 1.83621 19.9873 2.25001 19.9873H21.75C22.1638 19.9873 22.5 19.6503 22.5 19.2354V16.1519C20.7906 15.8024 19.5 14.2838 19.5 12.4678C19.5 10.6517 20.7905 9.13319 22.5 8.78362V5.7002C22.5 5.28532 22.1638 4.94825 21.75 4.94825H2.25001C1.83621 4.94825 1.50001 5.28532 1.50001 5.7002V8.78367C3.20947 9.13319 4.50003 10.6518 4.50003 12.4678C4.50003 14.2838 3.20947 15.8024 1.50001 16.1519Z" fill="black" fill-opacity="0.7"/>
<path d="M9.04883 18.209L13.5472 6.182L14.9517 6.71006L10.4533 18.737L9.04883 18.209Z" fill="black" fill-opacity="0.7"/>
<path d="M8.45119 12.7217C7.21047 12.7217 6.20117 11.7098 6.20117 10.4658C6.20117 9.22188 7.21047 8.20996 8.45119 8.20996C9.6919 8.20996 10.7012 9.22188 10.7012 10.4658C10.7012 11.7098 9.6919 12.7217 8.45119 12.7217ZM8.45119 9.71387C8.03738 9.71387 7.70118 10.0509 7.70118 10.4658C7.70118 10.8807 8.03738 11.2178 8.45119 11.2178C8.86499 11.2178 9.20119 10.8807 9.20119 10.4658C9.20119 10.0509 8.86499 9.71387 8.45119 9.71387Z" fill="black" fill-opacity="0.7"/>
<path d="M16.2031 17.3848C14.9624 17.3848 13.9531 16.3729 13.9531 15.1289C13.9531 13.885 14.9624 12.873 16.2031 12.873C17.4439 12.873 18.4532 13.885 18.4532 15.1289C18.4532 16.3729 17.4439 17.3848 16.2031 17.3848ZM16.2031 14.377C15.7893 14.377 15.4531 14.714 15.4531 15.1289C15.4531 15.5438 15.7893 15.8809 16.2031 15.8809C16.617 15.8809 16.9531 15.5438 16.9531 15.1289C16.9531 14.714 16.617 14.377 16.2031 14.377Z" fill="black" fill-opacity="0.7"/>
</g>
<defs>
<clipPath id="clip0">
<rect width="24" height="24.0624" fill="white" transform="translate(0 0.436523)"/>
</clipPath>
</defs>
</svg>
