<svg width="20" height="20" viewBox="0 0 20 20" fill="none" xmlns="http://www.w3.org/2000/svg">
<path d="M9.99442 7.80488C11.1849 7.80488 12.1373 8.78049 12.1373 10C12.1373 11.2195 11.1849 12.1951 9.99442 12.1951C8.80394 12.1951 7.85156 11.2195 7.85156 10C7.85156 8.78049 8.80394 7.80488 9.99442 7.80488ZM7.85156 2.19512C7.85156 3.41463 8.80394 4.39024 9.99442 4.39024C11.1849 4.39024 12.1373 3.41463 12.1373 2.19512C12.1373 0.97561 11.1849 0 9.99442 0C8.80394 0 7.85156 0.97561 7.85156 2.19512ZM7.85156 17.8049C7.85156 19.0244 8.80394 20 9.99442 20C11.1849 20 12.1373 19.0244 12.1373 17.8049C12.1373 16.5854 11.1849 15.6098 9.99442 15.6098C8.80394 15.6098 7.85156 16.5854 7.85156 17.8049Z" fill="#1B6AAB"/>
</svg>
