<svg width="20" height="18" viewBox="0 0 20 18" fill="none" xmlns="http://www.w3.org/2000/svg">
<path d="M12.9715 6.61594C13.2656 6.61601 13.5494 6.72409 13.7691 6.91964C13.9888 7.1152 14.129 7.38462 14.1631 7.67674L14.1715 7.81594V13.0575C14.1793 14.1518 13.7578 15.2055 12.9975 15.9924C12.2372 16.7794 11.1987 17.2369 10.1048 17.2668C9.01095 17.2966 7.949 16.8964 7.1469 16.1521C6.34481 15.4077 5.86651 14.3786 5.81468 13.2855L5.80868 13.0575V7.81594C5.80875 7.52183 5.91683 7.238 6.11238 7.01833C6.30794 6.79866 6.57736 6.65845 6.86947 6.62434L7.00868 6.61594H12.9715ZM4.93147 6.61594C4.75687 6.91722 4.65037 7.25309 4.61947 7.59994L4.60868 7.81594V13.0575L4.61468 13.3095C4.65067 14.0811 4.84867 14.8095 5.17627 15.4635C4.67098 15.6758 4.12215 15.7637 3.57584 15.72C3.02954 15.6763 2.50168 15.5022 2.03655 15.2123C1.57143 14.9224 1.1826 14.5253 0.902693 14.0541C0.622785 13.5829 0.459959 13.0514 0.427875 12.5043L0.421875 12.3027V7.81594C0.421914 7.52202 0.529822 7.23833 0.725133 7.01869C0.920444 6.79905 1.18957 6.65872 1.48148 6.62434L1.62187 6.61594H4.93027H4.93147ZM15.0499 6.61594H18.3907C18.6848 6.61601 18.9686 6.72409 19.1883 6.91964C19.408 7.1152 19.5482 7.38462 19.5823 7.67674L19.5907 7.81594V12.3039C19.5907 12.8714 19.4498 13.43 19.1807 13.9296C18.9115 14.4292 18.5225 14.8542 18.0486 15.1663C17.5747 15.4785 17.0306 15.6681 16.4654 15.718C15.9001 15.768 15.3312 15.6769 14.8099 15.4527C15.1323 14.8052 15.3201 14.0989 15.3619 13.3767L15.3715 13.0575V7.81594L15.3643 7.63714C15.3381 7.27733 15.2306 6.92817 15.0499 6.61594ZM9.98827 0.585938C10.6972 0.585938 11.3771 0.867556 11.8784 1.36884C12.3797 1.87013 12.6613 2.55001 12.6613 3.25894C12.6613 3.96786 12.3797 4.64775 11.8784 5.14903C11.3771 5.65032 10.6972 5.93194 9.98827 5.93194C9.27935 5.93194 8.59946 5.65032 8.09818 5.14903C7.59689 4.64775 7.31527 3.96786 7.31527 3.25894C7.31527 2.55001 7.59689 1.87013 8.09818 1.36884C8.59946 0.867556 9.27935 0.585938 9.98827 0.585938ZM15.9727 1.33954C16.5817 1.33954 17.1657 1.58146 17.5963 2.01208C18.027 2.4427 18.2689 3.02675 18.2689 3.63574C18.2689 4.24473 18.027 4.82877 17.5963 5.2594C17.1657 5.69002 16.5817 5.93194 15.9727 5.93194C15.3637 5.93194 14.7796 5.69002 14.349 5.2594C13.9184 4.82877 13.6765 4.24473 13.6765 3.63574C13.6765 3.02675 13.9184 2.4427 14.349 2.01208C14.7796 1.58146 15.3637 1.33954 15.9727 1.33954ZM4.02188 1.33954C4.63087 1.33954 5.21491 1.58146 5.64553 2.01208C6.07615 2.4427 6.31807 3.02675 6.31807 3.63574C6.31807 4.24473 6.07615 4.82877 5.64553 5.2594C5.21491 5.69002 4.63087 5.93194 4.02188 5.93194C3.41288 5.93194 2.82884 5.69002 2.39822 5.2594C1.9676 4.82877 1.72567 4.24473 1.72567 3.63574C1.72567 3.02675 1.9676 2.4427 2.39822 2.01208C2.82884 1.58146 3.41288 1.33954 4.02188 1.33954Z" fill="#F7F7F7"/>
</svg>
