<svg width="67" height="75" viewBox="0 0 67 75" fill="none" xmlns="http://www.w3.org/2000/svg">
<path d="M52.0217 35.6724C54.8099 35.434 57.2574 34.2611 59.3078 32.1723C66.355 24.9934 66.1409 8.99397 66.1285 8.3165C66.1054 7.05834 65.0791 6.05057 63.8205 6.04964L52.2093 6.04202V1.15491C52.2093 0.516937 51.6921 0 51.0544 0H15.9451C15.3074 0 14.7902 0.516937 14.7902 1.15491V6.04156L3.17924 6.04941C1.92085 6.05034 0.8946 7.05811 0.871271 8.31627C0.858567 8.99397 0.644678 24.9931 7.69193 32.1721C9.74235 34.2608 12.1901 35.4338 14.978 35.6721C16.0445 43.1381 21.6375 49.1603 28.8803 50.8666V65.4029H23.0289C22.6512 65.4029 22.2976 65.5875 22.0816 65.8972L17 73.1845C16.7538 73.5374 16.7245 73.998 16.9236 74.3796C17.1225 74.7609 17.5172 75 17.9475 75C17.9475 75 49.0557 74.9998 49.0575 75C49.6953 75 50.2124 74.4831 50.2124 73.8451C50.2124 73.5656 50.0953 73.3381 49.948 73.1096L44.9186 65.897C44.7026 65.5873 44.349 65.4027 43.9713 65.4027H38.1198V50.8668C45.3623 49.1603 50.9553 43.1384 52.0217 35.6724ZM61.4733 10.6674C61.2504 15.7797 60.0428 24.8292 56.0112 28.936C54.8974 30.0704 53.6444 30.749 52.2095 30.9941V10.6612L61.4733 10.6674ZM5.52855 10.6674L14.7902 10.6614V30.9941C13.3565 30.749 12.1048 30.0722 10.992 28.9397C6.96826 24.8451 5.75561 15.7851 5.52855 10.6674ZM23.9295 19.2766L30.5425 18.3157L33.5 12.3233L36.4575 18.3157L43.0705 19.2766L38.2852 23.941L39.415 30.5275L33.5002 27.4178L27.5855 30.5275L28.7152 23.941L23.9295 19.2766Z" fill="#1B6AAB"/>
</svg>
