<svg width="40" height="40" viewBox="0 0 40 40" fill="none" xmlns="http://www.w3.org/2000/svg">
<path d="M20 39.5C30.7691 39.5 39.5 30.7691 39.5 20C39.5 9.23094 30.7691 0.5 20 0.5C9.23094 0.5 0.5 9.23094 0.5 20C0.5 30.7691 9.23094 39.5 20 39.5ZM16.6897 12.0603C16.5445 11.9224 16.4285 11.7568 16.3483 11.5734C16.2681 11.3899 16.2255 11.1922 16.223 10.9921C16.2204 10.7919 16.2579 10.5932 16.3334 10.4077C16.4088 10.2222 16.5206 10.0538 16.6622 9.91219C16.8038 9.77061 16.9722 9.65881 17.1577 9.58338C17.3432 9.50795 17.5419 9.47041 17.7421 9.47297C17.9422 9.47553 18.1399 9.51815 18.3234 9.5983C18.5068 9.67846 18.6724 9.79454 18.8103 9.93969L27.8103 18.9397C28.0914 19.221 28.2493 19.6023 28.2493 20C28.2493 20.3977 28.0914 20.779 27.8103 21.0603L18.8103 30.0603C18.5267 30.3297 18.1491 30.4777 17.7579 30.4727C17.3668 30.4677 16.9931 30.3101 16.7165 30.0335C16.4399 29.7569 16.2823 29.3832 16.2773 28.992C16.2723 28.6009 16.4203 28.2233 16.6897 27.9397L24.6284 20L16.6897 12.0603Z" fill="white"/>
</svg>
