<svg width="10" height="14" viewBox="0 0 10 14" fill="none" xmlns="http://www.w3.org/2000/svg">
<path d="M1.7998 2.99922C1.7998 2.78705 1.88409 2.58356 2.03412 2.43353C2.18415 2.2835 2.38763 2.19922 2.5998 2.19922H7.3998C7.61198 2.19922 7.81546 2.2835 7.96549 2.43353C8.11552 2.58356 8.1998 2.78705 8.1998 2.99922V3.79922C8.1998 4.01139 8.11552 4.21487 7.96549 4.3649C7.81546 4.51493 7.61198 4.59922 7.3998 4.59922H2.5998C2.38763 4.59922 2.18415 4.51493 2.03412 4.3649C1.88409 4.21487 1.7998 4.01139 1.7998 3.79922V2.99922ZM2.5998 2.99922V3.79922H7.3998V2.99922H2.5998Z" fill="black" fill-opacity="0.54"/>
<path d="M0.200195 2.19961V11.7996C0.200195 12.224 0.368766 12.6309 0.668824 12.931C0.968883 13.231 1.37585 13.3996 1.8002 13.3996H9.4002C9.50628 13.3996 9.60802 13.3575 9.68304 13.2825C9.75805 13.2074 9.8002 13.1057 9.8002 12.9996C9.8002 12.8935 9.75805 12.7918 9.68304 12.7168C9.60802 12.6418 9.50628 12.5996 9.4002 12.5996H1.8002C1.58802 12.5996 1.38454 12.5153 1.23451 12.3653C1.08448 12.2153 1.0002 12.0118 1.0002 11.7996H9.0002C9.21237 11.7996 9.41585 11.7153 9.56588 11.5653C9.71591 11.4153 9.8002 11.2118 9.8002 10.9996V2.19961C9.8002 1.77526 9.63162 1.3683 9.33157 1.06824C9.03151 0.76818 8.62454 0.599609 8.2002 0.599609H1.8002C1.37585 0.599609 0.968883 0.76818 0.668824 1.06824C0.368766 1.3683 0.200195 1.77526 0.200195 2.19961ZM8.2002 1.39961C8.41237 1.39961 8.61585 1.48389 8.76588 1.63392C8.91591 1.78395 9.0002 1.98744 9.0002 2.19961V10.9996H1.0002V2.19961C1.0002 1.98744 1.08448 1.78395 1.23451 1.63392C1.38454 1.48389 1.58802 1.39961 1.8002 1.39961H8.2002Z" fill="black" fill-opacity="0.54"/>
</svg>
