<svg width="16" height="16" viewBox="0 0 16 16" fill="none" xmlns="http://www.w3.org/2000/svg">
<path d="M3 8H6V9H3V8Z" fill="black" fill-opacity="0.38"/>
<path d="M3 6H8V7H3V6Z" fill="black" fill-opacity="0.38"/>
<path d="M3 4H8V5H3V4Z" fill="black" fill-opacity="0.38"/>
<path d="M7 13H2V3H14V8H15V3C15 2.73478 14.8946 2.48043 14.7071 2.29289C14.5196 2.10536 14.2652 2 14 2H2C1.73478 2 1.48043 2.10536 1.29289 2.29289C1.10536 2.48043 1 2.73478 1 3V13C1 13.2652 1.10536 13.5196 1.29289 13.7071C1.48043 13.8946 1.73478 14 2 14H7V13Z" fill="black" fill-opacity="0.38"/>
<path d="M11 12.795L9.705 11.5L9 12.205L11 14.205L15 10.205L14.295 9.5L11 12.795Z" fill="black" fill-opacity="0.38"/>
</svg>
