<svg width="24" height="24" viewBox="0 0 24 24" fill="none" xmlns="http://www.w3.org/2000/svg">
<path d="M10.1481 13.7608C11.5398 15.1726 13.2237 16.2625 15.0815 16.9541L17.5948 14.9541C17.6693 14.9028 17.7577 14.8753 17.8481 14.8753C17.9386 14.8753 18.0269 14.9028 18.1015 14.9541L22.7681 17.9608C22.9453 18.0673 23.0953 18.2136 23.2062 18.388C23.3171 18.5624 23.386 18.7603 23.4073 18.9659C23.4287 19.1715 23.4019 19.3793 23.3291 19.5728C23.2564 19.7663 23.1396 19.9402 22.9881 20.0808L20.8015 22.2408C20.4883 22.5502 20.1034 22.7773 19.6812 22.9018C19.2589 23.0262 18.8124 23.0442 18.3815 22.9541C14.0829 22.0663 10.1209 19.9871 6.94813 16.9541C3.84578 13.891 1.69898 9.99337 0.768128 5.73414C0.676172 5.3099 0.695365 4.86909 0.823845 4.45445C0.952326 4.03981 1.18574 3.66539 1.50146 3.36747L3.76813 1.1808C3.90839 1.03666 4.07945 0.926119 4.26849 0.857455C4.45753 0.78879 4.65966 0.763781 4.85973 0.784302C5.05981 0.804823 5.25265 0.87034 5.42382 0.975949C5.59498 1.08156 5.74004 1.22452 5.84813 1.39414L8.95479 6.0008C9.00838 6.07314 9.0373 6.16078 9.0373 6.2508C9.0373 6.34083 9.00838 6.42847 8.95479 6.5008L6.90813 8.9608C7.61851 10.7814 8.72528 12.4211 10.1481 13.7608Z" fill="black" fill-opacity="0.54"/>
</svg>
