<svg width="24" height="24" viewBox="0 0 24 24" fill="none" xmlns="http://www.w3.org/2000/svg">
<path d="M10.1481 13.7598C11.5398 15.1716 13.2237 16.2616 15.0815 16.9532L17.5948 14.9532C17.6693 14.9018 17.7577 14.8744 17.8481 14.8744C17.9386 14.8744 18.0269 14.9018 18.1015 14.9532L22.7681 17.9598C22.9453 18.0663 23.0953 18.2126 23.2062 18.387C23.3171 18.5615 23.386 18.7593 23.4073 18.9649C23.4287 19.1705 23.4019 19.3783 23.3291 19.5718C23.2564 19.7653 23.1396 19.9392 22.9881 20.0798L20.8015 22.2398C20.4883 22.5492 20.1034 22.7763 19.6812 22.9008C19.2589 23.0253 18.8124 23.0433 18.3815 22.9532C14.0829 22.0654 10.1209 19.9862 6.94813 16.9532C3.84578 13.89 1.69898 9.99239 0.768128 5.73316C0.676172 5.30892 0.695365 4.86812 0.823845 4.45348C0.952326 4.03883 1.18574 3.66441 1.50146 3.36649L3.76813 1.17983C3.90839 1.03568 4.07945 0.925143 4.26849 0.856478C4.45753 0.787813 4.65966 0.762805 4.85974 0.783325C5.05981 0.803846 5.25265 0.869364 5.42382 0.974973C5.59499 1.08058 5.74004 1.22355 5.84813 1.39316L8.95479 5.99983C9.00838 6.07216 9.0373 6.1598 9.0373 6.24983C9.0373 6.33985 9.00838 6.42749 8.95479 6.49983L6.90813 8.95983C7.61852 10.7805 8.72528 12.4201 10.1481 13.7598Z" fill="#1B6AAB"/>
</svg>
