<svg width="20" height="18" viewBox="0 0 20 18" fill="none" xmlns="http://www.w3.org/2000/svg">
<path d="M2 14.0696V13.4179C2 13.0771 2.16 12.7562 2.41 12.6058C4.1 11.5932 6.03 11.0618 8 11.0618C8.03 11.0618 8.05 11.0618 8.08 11.0719C8.18 10.37 8.38 9.69829 8.67 9.0867C8.45 9.06665 8.23 9.05662 8 9.05662C5.58 9.05662 3.32 9.72836 1.39 10.8814C0.51 11.4027 0 12.3853 0 13.4179V16.0748H9.26C8.84 15.4733 8.51 14.7915 8.29 14.0696H2ZM8 8.05402C10.21 8.05402 12 6.25936 12 4.04361C12 1.82786 10.21 0.0332031 8 0.0332031C5.79 0.0332031 4 1.82786 4 4.04361C4 6.25936 5.79 8.05402 8 8.05402ZM8 2.03841C9.1 2.03841 10 2.94075 10 4.04361C10 5.14647 9.1 6.04881 8 6.04881C6.9 6.04881 6 5.14647 6 4.04361C6 2.94075 6.9 2.03841 8 2.03841ZM18.75 12.0644C18.75 11.8439 18.72 11.6433 18.69 11.4328L19.83 10.4202L18.83 8.68566L17.38 9.17693C17.06 8.90623 16.7 8.69568 16.3 8.54529L16 7.05142H14L13.7 8.54529C13.3 8.69568 12.94 8.90623 12.62 9.17693L11.17 8.68566L10.17 10.4202L11.31 11.4328C11.28 11.6433 11.25 11.8439 11.25 12.0644C11.25 12.285 11.28 12.4855 11.31 12.6961L10.17 13.7087L11.17 15.4432L12.62 14.9519C12.94 15.2226 13.3 15.4332 13.7 15.5836L14 17.0774H16L16.3 15.5836C16.7 15.4332 17.06 15.2226 17.38 14.9519L18.83 15.4432L19.83 13.7087L18.69 12.6961C18.72 12.4855 18.75 12.285 18.75 12.0644ZM15 14.0696C13.9 14.0696 13 13.1673 13 12.0644C13 10.9616 13.9 10.0592 15 10.0592C16.1 10.0592 17 10.9616 17 12.0644C17 13.1673 16.1 14.0696 15 14.0696Z" fill="black" fill-opacity="0.7"/>
</svg>
