<svg width="24" height="24" viewBox="0 0 24 24" fill="none" xmlns="http://www.w3.org/2000/svg">
<path d="M16.5712 0.466746C24.1228 2.09635 25.1817 6.97063 22.9966 10.6269C21.4878 13.1517 18.6144 14.6463 14.9151 15.4317C14.4685 15.5265 14.184 15.6245 14.1617 15.9794C14.1079 16.8387 13.0816 17.3873 11.8601 17.6114C10.4192 17.8754 9.04136 17.8515 7.98097 17.038C7.50208 16.6706 7.04823 16.1972 6.90851 15.7257C6.57356 14.5953 6.83217 13.4377 6.6146 12.2906C6.54217 11.9084 6.7015 11.7222 7.34456 11.6707C9.15633 11.5255 10.9023 11.2039 12.4033 10.4332C13.3493 9.94726 14.0919 9.34843 14.4565 8.55702C15.0944 7.17277 14.0841 6.08105 11.9959 5.88509C10.1018 5.70725 8.34972 6.01055 6.68581 6.62352C5.64594 7.00648 4.5762 7.24784 3.37368 7.03555C1.39623 6.68665 -0.398041 4.67548 0.0772335 3.31831C0.288165 2.71609 0.789693 2.26622 1.54078 1.92987C3.90991 0.86902 6.49057 0.225183 9.30088 0.048342C12.1211 -0.129096 15.4318 0.221001 16.5712 0.466746Z" fill="#F89923"/>
<path d="M9.36274 23.9998C8.63338 23.9998 7.91217 23.8429 7.34787 23.5233C5.93623 22.7239 5.99206 21.3326 6.54247 20.1226C6.89795 19.3406 7.88018 18.9281 9.10232 18.903C10.0375 18.8839 10.9745 18.8845 11.9099 18.901C13.5017 18.9295 14.7094 19.765 14.7736 20.8625C14.7854 21.0616 14.7833 21.261 14.7833 21.4603C14.7833 22.7492 14.4076 23.3148 13.0494 23.778C12.6097 23.9279 12.1227 23.9996 11.6323 23.9996H9.36274V23.9998Z" fill="#F89923"/>
</svg>
