<svg width="24" height="24" viewBox="0 0 24 24" fill="none" xmlns="http://www.w3.org/2000/svg">
<g clip-path="url(#clip0)">
<path d="M13.991 8.99414H9.98934C8.61076 8.99414 7.48828 10.1166 7.48828 11.4952V12.4956C7.48828 13.8742 8.61076 14.9967 9.98934 14.9967H13.991C15.3696 14.9967 16.4921 13.8742 16.4921 12.4956V11.4952C16.4921 10.1166 15.3696 8.99414 13.991 8.99414Z" fill="black" fill-opacity="0.54"/>
<path d="M16.3143 5.09294L12.3826 0.177826C12.1925 -0.0592753 11.7913 -0.0592753 11.6013 0.177826L7.59958 5.17998C7.47953 5.33005 7.45651 5.53615 7.53956 5.70919C7.62261 5.88228 7.79767 5.9923 7.98975 5.9923H15.9932C16.0002 5.9923 16.0062 5.9923 16.0132 5.9923C16.2893 5.9923 16.5134 5.76819 16.5134 5.49207C16.5133 5.32901 16.4353 5.18397 16.3143 5.09294Z" fill="black" fill-opacity="0.54"/>
<path d="M16.4434 18.2812C16.3594 18.1091 16.1843 17.998 15.9922 17.998H7.98878C7.7967 17.998 7.62164 18.1081 7.53761 18.2812C7.45455 18.4542 7.47758 18.6603 7.59763 18.8104L11.5993 23.8125C11.6944 23.9316 11.8384 24.0006 11.9905 24.0006C12.1426 24.0006 12.2856 23.9316 12.3816 23.8125L16.3833 18.8104C16.5034 18.6603 16.5265 18.4542 16.4434 18.2812Z" fill="black" fill-opacity="0.54"/>
</g>
<defs>
<clipPath id="clip0">
<rect width="24" height="24" fill="white"/>
</clipPath>
</defs>
</svg>
