<svg width="75" height="75" viewBox="0 0 75 75" fill="none" xmlns="http://www.w3.org/2000/svg">
<path d="M64.1732 40.0371H58.373C58.9643 41.6558 59.2873 43.4026 59.2873 45.2233V67.1447C59.2873 67.9038 59.1551 68.6324 58.9147 69.31H68.5038C72.0858 69.31 74.9998 66.3959 74.9998 62.814V50.8636C74.9999 44.894 70.1431 40.0371 64.1732 40.0371Z" fill="#1B6AAB"/>
<path d="M15.7127 45.2242C15.7127 43.4034 16.0357 41.6567 16.6269 40.0381H10.8267C4.85685 40.0381 0 44.8949 0 50.8648V62.8151C0 66.397 2.91402 69.3111 6.49601 69.3111H16.0852C15.8448 68.6332 15.7127 67.9047 15.7127 67.1457V45.2242Z" fill="#1B6AAB"/>
<path d="M44.1307 34.3975H30.8706C24.9008 34.3975 20.0439 39.2543 20.0439 45.2241V67.1456C20.0439 68.3413 21.0134 69.3109 22.2093 69.3109H52.792C53.9879 69.3109 54.9574 68.3415 54.9574 67.1456V45.2241C54.9574 39.2543 50.1005 34.3975 44.1307 34.3975Z" fill="#1B6AAB"/>
<path d="M37.5009 5.68945C30.3214 5.68945 24.4805 11.5304 24.4805 18.71C24.4805 23.5799 27.1683 27.8331 31.1378 30.0661C33.0205 31.1252 35.1911 31.7305 37.5009 31.7305C39.8107 31.7305 41.9813 31.1252 43.864 30.0661C47.8336 27.8331 50.5213 23.5798 50.5213 18.71C50.5213 11.5305 44.6804 5.68945 37.5009 5.68945Z" fill="#1B6AAB"/>
<path d="M14.636 17.8252C9.26661 17.8252 4.89844 22.1934 4.89844 27.5628C4.89844 32.9322 9.26661 37.3003 14.636 37.3003C15.998 37.3003 17.295 37.0182 18.4732 36.5111C20.5102 35.6341 22.1898 34.0816 23.2291 32.137C23.9586 30.7722 24.3736 29.2153 24.3736 27.5628C24.3736 22.1935 20.0054 17.8252 14.636 17.8252Z" fill="#1B6AAB"/>
<path d="M60.3635 17.8252C54.9942 17.8252 50.626 22.1934 50.626 27.5628C50.626 29.2154 51.041 30.7724 51.7705 32.137C52.8098 34.0818 54.4894 35.6342 56.5264 36.5111C57.7046 37.0182 59.0015 37.3003 60.3635 37.3003C65.7329 37.3003 70.1011 32.9322 70.1011 27.5628C70.1011 22.1934 65.7329 17.8252 60.3635 17.8252Z" fill="#1B6AAB"/>
</svg>
