<svg width="48" height="48" viewBox="0 0 48 48" fill="none" xmlns="http://www.w3.org/2000/svg">
<path d="M36.1518 3.10742L44.4978 11.8074V44.8914H13.3203V44.9994H44.6043V11.9169L36.1518 3.10742Z" fill="#909090"/>
<path d="M36.0454 3H13.2109V44.892H44.4949V11.8095L36.0439 3" fill="#F4F4F4"/>
<path d="M12.9834 5.25H3.39844V15.4905H33.5484V5.25H12.9834Z" fill="#7A7B7C"/>
<path d="M33.7093 15.3164H3.59375V5.06836H33.7093V15.3164Z" fill="#DD2025"/>
<path d="M13.5777 6.80078H11.6172V14.0008H13.1592V11.5723L13.4997 11.5918C13.8305 11.5861 14.1583 11.5268 14.4702 11.4163C14.7436 11.3222 14.9952 11.1737 15.2097 10.9798C15.4279 10.795 15.6 10.5618 15.7122 10.2988C15.8626 9.86153 15.9164 9.39683 15.8697 8.93678C15.8603 8.60814 15.8027 8.28267 15.6987 7.97078C15.604 7.74564 15.4635 7.54268 15.2861 7.37482C15.1086 7.20696 14.8982 7.07787 14.6682 6.99578C14.4693 6.92378 14.2638 6.87153 14.0547 6.83978C13.8963 6.81535 13.7364 6.80231 13.5762 6.80078H13.5777ZM13.2927 10.2418H13.1592V8.02178H13.4487C13.5765 8.01257 13.7047 8.03218 13.8238 8.07917C13.943 8.12617 14.0501 8.19934 14.1372 8.29328C14.3177 8.5348 14.4141 8.82879 14.4117 9.13028C14.4117 9.49928 14.4117 9.83378 14.0787 10.0693C13.8388 10.2012 13.5657 10.2606 13.2927 10.2403" fill="#464648"/>
<path d="M18.7976 6.78056C18.6311 6.78056 18.4691 6.79256 18.3551 6.79706L17.9981 6.80606H16.8281V14.0061H18.2051C18.7314 14.0205 19.2553 13.9313 19.7471 13.7436C20.143 13.5865 20.4935 13.3334 20.7671 13.0071C21.0332 12.6777 21.2241 12.2943 21.3266 11.8836C21.4445 11.4184 21.5019 10.9399 21.4976 10.4601C21.5267 9.89329 21.4829 9.32514 21.3671 8.76956C21.2573 8.3606 21.0516 7.98369 20.7671 7.67006C20.5439 7.4168 20.2707 7.21251 19.9646 7.07006C19.7018 6.94843 19.4253 6.85879 19.1411 6.80306C19.0281 6.78439 18.9137 6.77585 18.7991 6.77756L18.7976 6.78056ZM18.5261 12.6831H18.3761V8.08706H18.3956C18.7049 8.05148 19.0177 8.10727 19.2956 8.24756C19.4991 8.41005 19.6649 8.61476 19.7816 8.84756C19.9076 9.09256 19.9802 9.36146 19.9946 9.63656C20.0081 9.96656 19.9946 10.2366 19.9946 10.4601C20.0007 10.7175 19.9842 10.975 19.9451 11.2296C19.8989 11.4909 19.8134 11.7438 19.6916 11.9796C19.5538 12.1988 19.3675 12.3835 19.1471 12.5196C18.9621 12.6393 18.7429 12.6951 18.5231 12.6786" fill="#464648"/>
<path d="M26.145 6.80664H22.5V14.0066H24.042V11.1506H25.992V9.81264H24.042V8.14464H26.142V6.80664" fill="#464648"/>
<path d="M32.673 30.3823C32.673 30.3823 37.455 29.5153 37.455 31.1488C37.455 32.7823 34.4925 32.1178 32.673 30.3823ZM29.1375 30.5068C28.3777 30.6746 27.6373 30.9204 26.928 31.2403L27.528 29.8903C28.128 28.5403 28.7505 26.6998 28.7505 26.6998C29.4665 27.9048 30.2995 29.0362 31.2375 30.0778C30.5301 30.1832 29.8291 30.3275 29.1375 30.5098V30.5068ZM27.2445 20.7568C27.2445 19.3333 27.705 18.9448 28.0635 18.9448C28.422 18.9448 28.8255 19.1173 28.839 20.3533C28.7222 21.5961 28.462 22.8213 28.0635 24.0043C27.5177 23.011 27.2352 21.8946 27.243 20.7613L27.2445 20.7568ZM20.271 36.5308C18.804 35.6533 23.3475 32.9518 24.171 32.8648C24.1665 32.8663 21.807 37.4488 20.271 36.5308ZM38.8515 31.3423C38.8365 31.1923 38.7015 29.5318 35.7465 29.6023C34.5148 29.5824 33.2837 29.6692 32.067 29.8618C30.8884 28.6744 29.8734 27.3351 29.049 25.8793C29.5684 24.3784 29.8827 22.8143 29.9835 21.2293C29.94 19.4293 29.5095 18.3973 28.1295 18.4123C26.7495 18.4273 26.5485 19.6348 26.73 21.4318C26.9078 22.6393 27.2431 23.8184 27.7275 24.9388C27.7275 24.9388 27.09 26.9233 26.247 28.8973C25.404 30.8713 24.828 31.9063 24.828 31.9063C23.3621 32.3835 21.9821 33.0925 20.7405 34.0063C19.5045 35.1568 19.002 36.0403 19.653 36.9238C20.214 37.6858 22.1775 37.8583 23.9325 35.5588C24.865 34.3711 25.7169 33.1223 26.4825 31.8208C26.4825 31.8208 29.1585 31.0873 29.991 30.8863C30.8235 30.6853 31.83 30.5263 31.83 30.5263C31.83 30.5263 34.2735 32.9848 36.63 32.8978C38.9865 32.8108 38.8725 31.4893 38.8575 31.3453" fill="#DD2025"/>
<path d="M35.9297 3.11523V11.9247H44.3792L35.9297 3.11523Z" fill="#909090"/>
<path d="M36.0469 3V11.8095H44.4964L36.0469 3Z" fill="#F4F4F4"/>
<path d="M13.4644 6.68555H11.5039V13.8855H13.0519V11.4585L13.3939 11.478C13.7248 11.4724 14.0525 11.4131 14.3644 11.3025C14.6378 11.2085 14.8894 11.06 15.1039 10.866C15.3205 10.6808 15.491 10.4476 15.6019 10.185C15.7523 9.74779 15.8061 9.2831 15.7594 8.82305C15.75 8.49441 15.6924 8.16893 15.5884 7.85705C15.4937 7.63191 15.3532 7.42895 15.1758 7.26109C14.9984 7.09323 14.7879 6.96414 14.5579 6.88205C14.3581 6.80934 14.1516 6.75659 13.9414 6.72455C13.783 6.70011 13.6231 6.68708 13.4629 6.68555H13.4644ZM13.1794 10.1265H13.0459V7.90655H13.3369C13.4647 7.89733 13.5929 7.91695 13.7121 7.96394C13.8312 8.01093 13.9383 8.08411 14.0254 8.17805C14.2059 8.41957 14.3023 8.71355 14.2999 9.01505C14.2999 9.38405 14.2999 9.71855 13.9669 9.95405C13.727 10.086 13.4539 10.1454 13.1809 10.125" fill="white"/>
<path d="M18.6838 6.66532C18.5173 6.66532 18.3553 6.67732 18.2413 6.68182L17.8887 6.69082H16.7188V13.8908H18.0958C18.622 13.9052 19.1459 13.8161 19.6377 13.6283C20.0336 13.4713 20.3842 13.2182 20.6578 12.8918C20.9238 12.5625 21.1147 12.1791 21.2173 11.7683C21.3351 11.3031 21.3926 10.8247 21.3882 10.3448C21.4173 9.77806 21.3735 9.20991 21.2577 8.65432C21.1479 8.24537 20.9422 7.86846 20.6578 7.55482C20.4345 7.30157 20.1613 7.09728 19.8553 6.95482C19.5924 6.8332 19.3159 6.74356 19.0317 6.68782C18.9187 6.66915 18.8043 6.66062 18.6898 6.66232L18.6838 6.66532ZM18.4167 12.5678H18.2668V7.97182H18.2862C18.5955 7.93624 18.9084 7.99204 19.1863 8.13232C19.3897 8.29481 19.5556 8.49952 19.6722 8.73232C19.7982 8.97732 19.8708 9.24623 19.8852 9.52132C19.8987 9.85132 19.8852 10.1213 19.8852 10.3448C19.8914 10.6023 19.8748 10.8598 19.8357 11.1143C19.7895 11.3757 19.7041 11.6285 19.5823 11.8643C19.4444 12.0836 19.2581 12.2683 19.0378 12.4043C18.8527 12.524 18.6335 12.5799 18.4138 12.5633" fill="white"/>
<path d="M26.0278 6.69141H22.3828V13.8914H23.9248V11.0354H25.8748V9.69741H23.9248V8.02941H26.0248V6.69141" fill="white"/>
</svg>
