<svg width="64" height="73" viewBox="0 0 64 73" fill="none" xmlns="http://www.w3.org/2000/svg">
<path d="M53.1999 34.0595C53.1999 22.4844 43.7797 13.1016 32.1586 13.1016C20.5375 13.1016 11.078 22.5586 11.1173 34.1325C11.1375 39.8798 13.4809 45.0817 17.2596 48.856C20.2015 51.7937 22.3546 55.423 23.4412 59.4282L25.1381 65.6785H38.9303L40.5369 59.7596C41.6479 55.6676 43.8733 51.9748 46.9077 49.0022C50.7928 45.2014 53.1999 39.9105 53.1999 34.0595Z" fill="#F4D242"/>
<path d="M35.3465 72.9994H28.6216C26.7163 72.9994 25.0864 71.5984 24.9779 69.8203L24.4102 62.9568L39.6409 62.8594L38.9913 69.8203C38.8818 71.5973 37.2518 72.9994 35.3465 72.9994Z" fill="#59595B"/>
<path d="M38.2709 65.852C34.0169 66.0331 29.747 65.816 25.493 66.0034C25.1156 66.0204 25.1432 66.5689 25.5143 66.5817C29.7715 66.7225 34.0403 66.4599 38.2986 66.5944C38.7759 66.6092 38.7547 65.8308 38.2709 65.852Z" fill="#808183"/>
<path d="M38.2709 67.6918C34.0169 67.8729 29.747 67.6558 25.493 67.8432C25.1156 67.8602 25.1432 68.4087 25.5143 68.4214C29.7715 68.5623 34.0403 68.2996 38.2986 68.4341C38.7759 68.449 38.7547 67.6717 38.2709 67.6918Z" fill="#808183"/>
<path d="M33.8739 2.44527C33.8739 3.79551 33.1531 8.65109 32.2631 8.65109C31.3743 8.65109 30.6523 3.79551 30.6523 2.44527C30.6523 1.09502 31.3743 0 32.2631 0C33.1531 0 33.8739 1.09502 33.8739 2.44527Z" fill="#F4D242"/>
<path d="M53.9371 9.90224C52.909 10.7823 49.681 14.491 50.2605 15.1634C50.8399 15.8348 55.0067 13.2159 56.0359 12.3359C57.0641 11.4558 57.4277 10.1977 56.8482 9.52523C56.2698 8.85276 54.9663 9.02114 53.9371 9.90224Z" fill="#F4D242"/>
<path d="M61.7606 31.5697C60.4156 31.7402 55.4886 31.6396 55.3769 30.7606C55.2653 29.8816 60.0094 28.5579 61.3544 28.3874C62.6994 28.2169 63.8806 28.7919 63.9933 29.6709C64.106 30.5488 63.1055 31.3992 61.7606 31.5697Z" fill="#F4D242"/>
<path d="M12.4313 8.29033C13.4987 9.12272 16.8926 12.6821 16.3439 13.3789C15.7953 14.0768 11.5137 11.6485 10.4462 10.815C9.37873 9.98264 8.95769 8.74147 9.50632 8.04464C10.0539 7.34781 11.3638 7.45689 12.4313 8.29033Z" fill="#F4D242"/>
<path d="M2.24129 28.099C3.58628 28.2695 8.51328 28.1689 8.62492 27.2899C8.73656 26.4109 3.99243 25.0872 2.64745 24.9167C1.30246 24.7462 0.121215 25.3212 0.00851267 26.2002C-0.103126 27.0792 0.896309 27.9296 2.24129 28.099Z" fill="#F4D242"/>
<path d="M41.2396 44.7291C40.5634 44.2366 40.0382 43.5917 39.6554 42.8663C40.4188 41.928 40.7548 40.6656 40.8941 39.4933C40.9791 38.7764 41.0036 38.0573 41.0153 37.3361C41.027 36.6403 40.9345 36.0504 40.3433 35.6173C39.8159 35.2318 39.1121 35.5792 38.7081 35.9541C38.2413 36.3862 38.0148 37.0936 37.8351 37.6834C37.4715 38.8738 37.4779 40.1488 37.7065 41.3625C37.7862 41.7861 37.9053 42.2012 38.0584 42.6036C37.7596 42.8366 37.4215 43.0209 37.0473 43.1395C35.8979 43.5059 35.025 42.8461 34.4934 41.8697C34.4062 41.7098 34.3233 41.5393 34.2446 41.3625C34.335 41.121 34.4211 40.8796 34.5019 40.6413C34.8932 39.4817 35.109 38.267 35.2068 37.0491C35.2876 36.0399 35.3163 34.8336 34.3414 34.2364C34.0277 34.0436 33.6758 34.1898 33.4791 34.4619C32.0544 36.4306 32.1341 39.0411 32.9081 41.2735C32.6593 41.8666 32.367 42.4427 32.0416 42.9986C31.6844 43.6118 31.0028 44.5565 30.1756 44.4368C29.4059 44.3256 28.7902 43.3619 28.4075 42.7667C28.1268 42.3304 27.9067 41.8644 27.7334 41.3794C27.8312 41.1231 27.9227 40.8637 28.0056 40.601C28.3341 39.5696 28.5181 38.4957 28.6042 37.4187C28.6754 36.5196 28.7052 35.2572 27.7175 34.8262C27.4304 34.7013 27.0062 34.714 26.8541 35.0518C25.9876 36.9728 25.8217 39.0803 26.3682 41.1157C26.3863 41.1846 26.4086 41.2534 26.4288 41.3222C25.8302 42.8398 24.9201 44.2451 23.8143 45.4407C23.3178 45.9777 24.1035 46.7687 24.6203 46.2435C25.6059 45.2416 26.4256 44.1032 27.0657 42.8673C27.256 43.2232 27.4697 43.5652 27.7047 43.8893C28.349 44.7788 29.1571 45.6112 30.317 45.6737C31.4005 45.732 32.2808 44.8244 32.8677 44.0365C33.1495 43.6584 33.3962 43.2454 33.6152 42.8165C34.1457 43.6584 34.9113 44.3266 35.9532 44.4717C36.9123 44.6052 37.8415 44.3086 38.6272 43.7844C39.0876 44.5649 39.683 45.2681 40.3763 45.8463C41.1673 46.504 42.0721 45.3359 41.2396 44.7291ZM33.9916 35.988C34.0362 36.4899 33.9193 37.1095 33.8916 37.4145C33.8406 37.9704 33.7428 38.5211 33.6141 39.0655C33.4823 37.9948 33.5705 36.8977 33.9916 35.988ZM38.9079 39.1459C38.9473 38.6249 39.0855 38.1113 39.2599 37.6199C39.3385 37.3975 39.4396 37.1878 39.5661 36.9887C39.5756 36.9728 39.6203 36.9167 39.665 36.8669C39.6713 36.9008 39.6852 36.9496 39.6894 37.0184C39.7564 38.2903 39.6511 39.6617 39.2535 40.8743C39.2046 41.0246 39.145 41.1708 39.0781 41.3116C38.9111 40.601 38.8527 39.8629 38.9079 39.1459Z" fill="white"/>
<path d="M42.4355 41.6458C40.1984 48.4468 37.8434 55.2149 35.3129 61.9142C35.0099 62.7159 36.2507 63.2073 36.5516 62.4067C39.0725 55.6978 41.4148 48.9276 43.5147 42.0757C43.7316 41.3673 42.6705 40.9331 42.4355 41.6458Z" fill="white"/>
<path d="M22.0872 41.2158C23.8724 48.1492 25.5406 55.1154 27.0238 62.1186C27.2014 62.9574 28.5123 62.7075 28.3337 61.8698C26.8377 54.8623 25.1568 47.9003 23.2281 40.9987C23.0303 40.2871 21.9001 40.4893 22.0872 41.2158Z" fill="white"/>
</svg>
