<svg width="24" height="25" viewBox="0 0 24 25" fill="none" xmlns="http://www.w3.org/2000/svg">
<path d="M12 2.54492C9.243 2.54492 7 4.79376 7 7.55793C7 10.3221 9.243 12.5709 12 12.5709C14.757 12.5709 17 10.3221 17 7.55793C17 4.79376 14.757 2.54492 12 2.54492ZM12 10.5657C10.346 10.5657 9 9.21624 9 7.55793C9 5.89963 10.346 4.55013 12 4.55013C13.654 4.55013 15 5.89963 15 7.55793C15 9.21624 13.654 10.5657 12 10.5657ZM21 21.5944V20.5918C21 16.7227 17.859 13.5735 14 13.5735H10C6.14 13.5735 3 16.7227 3 20.5918V21.5944H5V20.5918C5 17.8276 7.243 15.5787 10 15.5787H14C16.757 15.5787 19 17.8276 19 20.5918V21.5944H21Z" fill="black" fill-opacity="0.7"/>
</svg>
