<svg width="40" height="40" viewBox="0 0 40 40" fill="none" xmlns="http://www.w3.org/2000/svg">
<circle cx="20" cy="20" r="20" fill="#1B6AAB"/>
<path d="M30.2 18.6219C30.3922 18.1203 30.5 17.5719 30.5 17C30.5 14.5156 28.4844 12.5 26 12.5C25.0766 12.5 24.2141 12.7812 23.5016 13.2594C22.2031 11.0094 19.7797 9.5 17 9.5C12.8562 9.5 9.5 12.8562 9.5 17C9.5 17.1266 9.50469 17.2531 9.50937 17.3797C6.88437 18.3031 5 20.8062 5 23.75C5 27.4766 8.02344 30.5 11.75 30.5H29C32.3141 30.5 35 27.8141 35 24.5C35 21.5984 32.9375 19.175 30.2 18.6219ZM23.4406 21.5H20.375V26.75C20.375 27.1625 20.0375 27.5 19.625 27.5H17.375C16.9625 27.5 16.625 27.1625 16.625 26.75V21.5H13.5594C12.8891 21.5 12.5563 20.6938 13.0297 20.2203L17.9703 15.2797C18.2609 14.9891 18.7391 14.9891 19.0297 15.2797L23.9703 20.2203C24.4438 20.6938 24.1062 21.5 23.4406 21.5Z" fill="white"/>
</svg>
