<svg width="18" height="18" viewBox="0 0 18 18" fill="none" xmlns="http://www.w3.org/2000/svg">
<path d="M8.25 7.5V10.5H5.25V7.5H8.25Z" fill="black" fill-opacity="0.7"/>
<path d="M8.25 15V12H5.25V15H8.25Z" fill="black" fill-opacity="0.7"/>
<path d="M12.75 7.5V10.5H9.75V7.5H12.75Z" fill="black" fill-opacity="0.7"/>
<path d="M12.75 15V12H9.75V15H12.75Z" fill="black" fill-opacity="0.7"/>
<path d="M4.5 4.5V2.25C4.5 1.65326 4.73705 1.08097 5.15901 0.65901C5.58097 0.237053 6.15326 0 6.75 0H11.25C11.8467 0 12.419 0.237053 12.841 0.65901C13.2629 1.08097 13.5 1.65326 13.5 2.25V4.5H17.25C17.4489 4.5 17.6397 4.57902 17.7803 4.71967C17.921 4.86032 18 5.05109 18 5.25V15C18 15.7956 17.6839 16.5587 17.1213 17.1213C16.5587 17.6839 15.7956 18 15 18H3C2.20435 18 1.44129 17.6839 0.87868 17.1213C0.31607 16.5587 0 15.7956 0 15V5.25C0 5.05109 0.0790178 4.86032 0.21967 4.71967C0.360322 4.57902 0.551088 4.5 0.75 4.5H4.5ZM6 2.25V4.5H12V2.25C12 2.05109 11.921 1.86032 11.7803 1.71967C11.6397 1.57902 11.4489 1.5 11.25 1.5H6.75C6.55109 1.5 6.36032 1.57902 6.21967 1.71967C6.07902 1.86032 6 2.05109 6 2.25ZM1.5 15C1.5 15.3978 1.65804 15.7794 1.93934 16.0607C2.22064 16.342 2.60218 16.5 3 16.5H15C15.3978 16.5 15.7794 16.342 16.0607 16.0607C16.342 15.7794 16.5 15.3978 16.5 15V6H1.5V15Z" fill="black" fill-opacity="0.7"/>
</svg>
