<svg width="24" height="18" viewBox="0 0 24 18" fill="none" xmlns="http://www.w3.org/2000/svg">
<path d="M10.185 4.63904C10.0729 4.55919 9.9409 4.51175 9.80358 4.50192C9.66627 4.49208 9.52889 4.52023 9.40651 4.58328C9.28413 4.64633 9.18147 4.74185 9.10976 4.85936C9.03806 4.97688 9.00008 5.11187 9 5.24954V12.7495C9.00008 12.8872 9.03806 13.0222 9.10976 13.1397C9.18147 13.2572 9.28413 13.3527 9.40651 13.4158C9.52889 13.4788 9.66627 13.507 9.80358 13.4972C9.9409 13.4873 10.0729 13.4399 10.185 13.36L15.435 9.61004C15.5322 9.54066 15.6115 9.44906 15.6661 9.34288C15.7208 9.23669 15.7494 9.11898 15.7494 8.99954C15.7494 8.8801 15.7208 8.76239 15.6661 8.6562C15.6115 8.55001 15.5322 8.45842 15.435 8.38904L10.185 4.63904Z" fill="black" fill-opacity="0.7"/>
<path d="M0 3C0 2.20435 0.316071 1.44129 0.87868 0.87868C1.44129 0.31607 2.20435 0 3 0H21C21.7956 0 22.5587 0.31607 23.1213 0.87868C23.6839 1.44129 24 2.20435 24 3V15C24 15.7956 23.6839 16.5587 23.1213 17.1213C22.5587 17.6839 21.7956 18 21 18H3C2.20435 18 1.44129 17.6839 0.87868 17.1213C0.316071 16.5587 0 15.7956 0 15V3ZM22.5 3C22.5 2.60218 22.342 2.22064 22.0607 1.93934C21.7794 1.65804 21.3978 1.5 21 1.5H3C2.60218 1.5 2.22064 1.65804 1.93934 1.93934C1.65804 2.22064 1.5 2.60218 1.5 3V15C1.5 15.3978 1.65804 15.7794 1.93934 16.0607C2.22064 16.342 2.60218 16.5 3 16.5H21C21.3978 16.5 21.7794 16.342 22.0607 16.0607C22.342 15.7794 22.5 15.3978 22.5 15V3Z" fill="black" fill-opacity="0.7"/>
</svg>
