<svg width="20" height="20" viewBox="0 0 20 20" fill="none" xmlns="http://www.w3.org/2000/svg">
<path d="M12.4736 8.01328C12.7187 8.01334 12.9552 8.10341 13.1383 8.26637C13.3214 8.42933 13.4382 8.65385 13.4666 8.89728L13.4736 9.01328V13.3813C13.4802 14.2931 13.1289 15.1712 12.4953 15.827C11.8617 16.4828 10.9963 16.8641 10.0847 16.889C9.17319 16.9138 8.28823 16.5803 7.61981 15.96C6.9514 15.3398 6.55282 14.4821 6.50963 13.5713L6.50463 13.3813V9.01328C6.50469 8.76819 6.59475 8.53166 6.75771 8.34861C6.92068 8.16555 7.14519 8.04871 7.38863 8.02028L7.50463 8.01328H12.4736ZM12.4736 9.01328H7.50463V13.3813C7.50318 14.0269 7.75317 14.6478 8.20163 15.1122C8.6501 15.5767 9.26179 15.8483 9.90708 15.8695C10.5524 15.8907 11.1806 15.6598 11.6585 15.2258C12.1365 14.7917 12.4267 14.1886 12.4676 13.5443L12.4736 13.3813V9.01328ZM5.77363 8.01328C5.62812 8.26435 5.53937 8.54424 5.51362 8.83328L5.50463 9.01328H3.01463V12.7533C3.01452 13.0633 3.09208 13.3685 3.24024 13.6408C3.3884 13.9132 3.60242 14.1441 3.86277 14.3124C4.12312 14.4808 4.4215 14.5813 4.73066 14.6046C5.03982 14.628 5.34992 14.5736 5.63262 14.4463C5.71262 14.7753 5.82863 15.0903 5.97763 15.3863C5.55654 15.5631 5.09919 15.6364 4.64393 15.6C4.18868 15.5636 3.74879 15.4185 3.36119 15.1769C2.97359 14.9354 2.64956 14.6044 2.41631 14.2117C2.18305 13.8191 2.04736 13.3762 2.02063 12.9203L2.01562 12.7523V9.01328C2.01566 8.76835 2.10558 8.53194 2.26834 8.34891C2.4311 8.16587 2.65537 8.04894 2.89863 8.02028L3.01562 8.01328H5.77263H5.77363ZM14.2056 8.01328H16.9896C17.2347 8.01334 17.4712 8.10341 17.6543 8.26637C17.8374 8.42933 17.9542 8.65385 17.9826 8.89728L17.9896 9.01328V12.7533C17.9897 13.2262 17.8723 13.6917 17.648 14.108C17.4237 14.5244 17.0995 14.8785 16.7046 15.1386C16.3096 15.3987 15.8563 15.5567 15.3852 15.5984C14.9141 15.64 14.4401 15.5641 14.0056 15.3773C14.1536 15.0793 14.2696 14.7643 14.3486 14.4343C14.6203 14.561 14.9186 14.6201 15.218 14.6064C15.5174 14.5927 15.8091 14.5068 16.0681 14.3558C16.327 14.2049 16.5456 13.9934 16.705 13.7396C16.8645 13.4858 16.9601 13.1971 16.9836 12.8983L16.9896 12.7533V9.01328H14.4736L14.4676 8.86428C14.4458 8.56445 14.3562 8.27348 14.2056 8.01328ZM9.98763 2.98828C10.5784 2.98828 11.145 3.22296 11.5627 3.6407C11.9804 4.05844 12.2151 4.62501 12.2151 5.21578C12.2151 5.80655 11.9804 6.37312 11.5627 6.79086C11.145 7.2086 10.5784 7.44328 9.98763 7.44328C9.39686 7.44328 8.83028 7.2086 8.41254 6.79086C7.99481 6.37312 7.76013 5.80655 7.76013 5.21578C7.76013 4.62501 7.99481 4.05844 8.41254 3.6407C8.83028 3.22296 9.39686 2.98828 9.98763 2.98828ZM14.9746 3.61628C15.4821 3.61628 15.9688 3.81788 16.3277 4.17673C16.6865 4.53558 16.8881 5.02229 16.8881 5.52978C16.8881 6.03727 16.6865 6.52398 16.3277 6.88283C15.9688 7.24168 15.4821 7.44328 14.9746 7.44328C14.4671 7.44328 13.9804 7.24168 13.6216 6.88283C13.2627 6.52398 13.0611 6.03727 13.0611 5.52978C13.0611 5.02229 13.2627 4.53558 13.6216 4.17673C13.9804 3.81788 14.4671 3.61628 14.9746 3.61628ZM5.01563 3.61628C5.52312 3.61628 6.00982 3.81788 6.36867 4.17673C6.72753 4.53558 6.92912 5.02229 6.92912 5.52978C6.92912 6.03727 6.72753 6.52398 6.36867 6.88283C6.00982 7.24168 5.52312 7.44328 5.01563 7.44328C4.50813 7.44328 4.02143 7.24168 3.66258 6.88283C3.30373 6.52398 3.10212 6.03727 3.10212 5.52978C3.10212 5.02229 3.30373 4.53558 3.66258 4.17673C4.02143 3.81788 4.50813 3.61628 5.01563 3.61628ZM9.98763 3.98828C9.66207 3.98828 9.34985 4.11761 9.11965 4.34781C8.88945 4.57801 8.76013 4.89023 8.76013 5.21578C8.76013 5.54133 8.88945 5.85355 9.11965 6.08375C9.34985 6.31396 9.66207 6.44328 9.98763 6.44328C10.3132 6.44328 10.6254 6.31396 10.8556 6.08375C11.0858 5.85355 11.2151 5.54133 11.2151 5.21578C11.2151 4.89023 11.0858 4.57801 10.8556 4.34781C10.6254 4.11761 10.3132 3.98828 9.98763 3.98828ZM14.9746 4.61628C14.7323 4.61628 14.5 4.71252 14.3287 4.88384C14.1574 5.05515 14.0611 5.28751 14.0611 5.52978C14.0611 5.77206 14.1574 6.00441 14.3287 6.17572C14.5 6.34704 14.7323 6.44328 14.9746 6.44328C15.2169 6.44328 15.4493 6.34704 15.6206 6.17572C15.7919 6.00441 15.8881 5.77206 15.8881 5.52978C15.8881 5.28751 15.7919 5.05515 15.6206 4.88384C15.4493 4.71252 15.2169 4.61628 14.9746 4.61628ZM5.01563 4.61628C4.77335 4.61628 4.541 4.71252 4.36968 4.88384C4.19837 5.05515 4.10212 5.28751 4.10212 5.52978C4.10212 5.77206 4.19837 6.00441 4.36968 6.17572C4.541 6.34704 4.77335 6.44328 5.01563 6.44328C5.2579 6.44328 5.49025 6.34704 5.66157 6.17572C5.83288 6.00441 5.92913 5.77206 5.92913 5.52978C5.92913 5.28751 5.83288 5.05515 5.66157 4.88384C5.49025 4.71252 5.2579 4.61628 5.01563 4.61628Z" fill="black" fill-opacity="0.38"/>
</svg>
