<svg width="16" height="16" viewBox="0 0 16 16" fill="none" xmlns="http://www.w3.org/2000/svg">
<path d="M7.125 5.184C7.01095 5.11815 6.88157 5.0835 6.74988 5.08352C6.61819 5.08354 6.48882 5.11824 6.37479 5.18412C6.26076 5.25 6.16609 5.34475 6.1003 5.45883C6.03451 5.57291 5.99992 5.70231 6 5.834V10.167C5.99992 10.2987 6.03451 10.4281 6.1003 10.5422C6.16609 10.6562 6.26076 10.751 6.37479 10.8169C6.48882 10.8828 6.61819 10.9175 6.74988 10.9175C6.88157 10.9175 7.01095 10.8828 7.125 10.817L11.25 8.433C11.326 8.38911 11.3891 8.326 11.433 8.24999C11.4769 8.17398 11.5 8.08776 11.5 8C11.5 7.91224 11.4769 7.82602 11.433 7.75001C11.3891 7.674 11.326 7.61089 11.25 7.567L7.125 5.184ZM0 8C0 5.87827 0.842855 3.84344 2.34315 2.34315C3.84344 0.842855 5.87827 0 8 0C10.1217 0 12.1566 0.842855 13.6569 2.34315C15.1571 3.84344 16 5.87827 16 8C16 10.1217 15.1571 12.1566 13.6569 13.6569C12.1566 15.1571 10.1217 16 8 16C5.87827 16 3.84344 15.1571 2.34315 13.6569C0.842855 12.1566 0 10.1217 0 8ZM8 1C7.08075 1 6.1705 1.18106 5.32122 1.53284C4.47194 1.88463 3.70026 2.40024 3.05025 3.05025C2.40024 3.70026 1.88463 4.47194 1.53284 5.32122C1.18106 6.1705 1 7.08075 1 8C1 8.91925 1.18106 9.8295 1.53284 10.6788C1.88463 11.5281 2.40024 12.2997 3.05025 12.9497C3.70026 13.5998 4.47194 14.1154 5.32122 14.4672C6.1705 14.8189 7.08075 15 8 15C9.85652 15 11.637 14.2625 12.9497 12.9497C14.2625 11.637 15 9.85652 15 8C15 6.14348 14.2625 4.36301 12.9497 3.05025C11.637 1.7375 9.85652 1 8 1Z" fill="black" fill-opacity="0.38"/>
</svg>
