<svg width="24" height="25" viewBox="0 0 24 25" fill="none" xmlns="http://www.w3.org/2000/svg">
<path d="M20 2.33691H10C9.20435 2.33691 8.44129 2.65381 7.87868 3.21788C7.31607 3.78195 7 4.547 7 5.34472V12.3629C7 13.1607 7.31607 13.9257 7.87868 14.4898C8.44129 15.0538 9.20435 15.3707 10 15.3707H20C20.7956 15.3707 21.5587 15.0538 22.1213 14.4898C22.6839 13.9257 23 13.1607 23 12.3629V5.34472C23 4.547 22.6839 3.78195 22.1213 3.21788C21.5587 2.65381 20.7956 2.33691 20 2.33691ZM21 12.3629C21 12.6288 20.8946 12.8839 20.7071 13.0719C20.5196 13.2599 20.2652 13.3655 20 13.3655H10C9.73478 13.3655 9.48043 13.2599 9.29289 13.0719C9.10536 12.8839 9 12.6288 9 12.3629V5.34472C9 5.07881 9.10536 4.8238 9.29289 4.63577C9.48043 4.44775 9.73478 4.34212 10 4.34212H20C20.2652 4.34212 20.5196 4.44775 20.7071 4.63577C20.8946 4.8238 21 5.07881 21 5.34472V12.3629ZM17.5 8.35253C17.1298 8.35378 16.7733 8.49317 16.5 8.74354C16.285 8.54758 16.0178 8.41846 15.7309 8.37188C15.4441 8.32529 15.1499 8.36324 14.8842 8.48112C14.6185 8.59899 14.3926 8.79171 14.234 9.03587C14.0755 9.28002 13.9911 9.56509 13.9911 9.85643C13.9911 10.1478 14.0755 10.4328 14.234 10.677C14.3926 10.9211 14.6185 11.1139 14.8842 11.2317C15.1499 11.3496 15.4441 11.3876 15.7309 11.341C16.0178 11.2944 16.285 11.1653 16.5 10.9693C16.6806 11.1339 16.8985 11.2518 17.1348 11.3128C17.3711 11.3738 17.6187 11.3761 17.8561 11.3195C18.0935 11.2628 18.3135 11.149 18.4971 10.9878C18.6807 10.8266 18.8223 10.6229 18.9096 10.3945C18.9969 10.166 19.0273 9.91963 18.9981 9.67672C18.969 9.43381 18.8812 9.2017 18.7423 9.00053C18.6034 8.79935 18.4177 8.63518 18.2012 8.52226C17.9847 8.40934 17.744 8.35108 17.5 8.35253ZM16 17.3759C15.7348 17.3759 15.4804 17.4816 15.2929 17.6696C15.1054 17.8576 15 18.1126 15 18.3785V19.3811C15 19.6471 14.8946 19.9021 14.7071 20.0901C14.5196 20.2781 14.2652 20.3837 14 20.3837H4C3.73478 20.3837 3.48043 20.2781 3.29289 20.0901C3.10536 19.9021 3 19.6471 3 19.3811V15.3707H4C4.26522 15.3707 4.51957 15.2651 4.70711 15.0771C4.89464 14.8891 5 14.634 5 14.3681C5 14.1022 4.89464 13.8472 4.70711 13.6592C4.51957 13.4712 4.26522 13.3655 4 13.3655H3V12.3629C3 12.097 3.10536 11.842 3.29289 11.654C3.48043 11.466 3.73478 11.3603 4 11.3603C4.26522 11.3603 4.51957 11.2547 4.70711 11.0667C4.89464 10.8787 5 10.6236 5 10.3577C5 10.0918 4.89464 9.83681 4.70711 9.64878C4.51957 9.46076 4.26522 9.35513 4 9.35513C3.20435 9.35513 2.44129 9.67202 1.87868 10.2361C1.31607 10.8002 1 11.5652 1 12.3629V19.3811C1 20.1789 1.31607 20.9439 1.87868 21.508C2.44129 22.0721 3.20435 22.389 4 22.389H14C14.7956 22.389 15.5587 22.0721 16.1213 21.508C16.6839 20.9439 17 20.1789 17 19.3811V18.3785C17 18.1126 16.8946 17.8576 16.7071 17.6696C16.5196 17.4816 16.2652 17.3759 16 17.3759ZM6 18.3785H7C7.26522 18.3785 7.51957 18.2729 7.70711 18.0849C7.89464 17.8969 8 17.6419 8 17.3759C8 17.11 7.89464 16.855 7.70711 16.667C7.51957 16.479 7.26522 16.3733 7 16.3733H6C5.73478 16.3733 5.48043 16.479 5.29289 16.667C5.10536 16.855 5 17.11 5 17.3759C5 17.6419 5.10536 17.8969 5.29289 18.0849C5.48043 18.2729 5.73478 18.3785 6 18.3785Z" fill="black" fill-opacity="0.7"/>
</svg>
