<svg width="16" height="11" viewBox="0 0 16 11" fill="none" xmlns="http://www.w3.org/2000/svg">
<path d="M15.3854 3.11502C15.4356 3.06611 15.4747 3.0069 15.4998 2.94146C15.525 2.87602 15.5356 2.80591 15.5311 2.73595C15.5265 2.666 15.5068 2.59786 15.4734 2.53624C15.44 2.47462 15.3936 2.42098 15.3374 2.37902C13.2055 0.828902 10.6363 -0.0041333 8.00042 1.70085e-05C5.36447 -0.00434057 2.79527 0.828715 0.663418 2.37902C0.607262 2.42098 0.560872 2.47462 0.527443 2.53624C0.494014 2.59786 0.47434 2.666 0.469778 2.73595C0.465216 2.80591 0.475873 2.87602 0.501016 2.94146C0.526158 3.0069 0.565189 3.06611 0.615418 3.11502C0.702813 3.2011 0.817921 3.25337 0.940248 3.26252C1.06258 3.27168 1.18418 3.23713 1.28342 3.16502C3.23856 1.754 5.58929 0.996324 8.00042 1.00002C10.5074 1.00002 12.8274 1.80202 14.7174 3.16402C14.9214 3.31202 15.2064 3.29402 15.3854 3.11502Z" fill="black" fill-opacity="0.38"/>
<path d="M13.2276 5.27101C13.4436 5.05501 13.4216 4.69301 13.1646 4.52601C11.6269 3.52726 9.83211 2.99707 7.99858 3.00001C6.09358 3.00001 4.31858 3.56001 2.83258 4.52601C2.77313 4.56613 2.72343 4.61906 2.68713 4.68092C2.65083 4.74277 2.62884 4.81197 2.6228 4.88344C2.61676 4.9549 2.62681 5.02681 2.65221 5.09388C2.67761 5.16095 2.71771 5.22148 2.76958 5.27101C2.85478 5.35417 2.96572 5.4059 3.0842 5.41771C3.20267 5.42952 3.32164 5.40071 3.42158 5.33601C4.7876 4.46107 6.37638 3.99732 7.99858 4.00001C9.62078 3.99732 11.2096 4.46107 12.5756 5.33601C12.7806 5.46801 13.0556 5.44401 13.2276 5.27101ZM11.0446 7.45401C11.2706 7.22801 11.2296 6.84901 10.9446 6.70401C10.0321 6.23962 9.02244 5.99835 7.99858 6.00001C6.93858 6.00001 5.93658 6.25401 5.05258 6.70401C4.76758 6.84901 4.72658 7.22801 4.95258 7.45401L4.96758 7.46901C5.12758 7.62901 5.37558 7.65901 5.57858 7.55901C6.33181 7.18985 7.15975 6.9986 7.99858 7.00001C8.86658 7.00001 9.68858 7.20101 10.4186 7.56001C10.6216 7.66001 10.8686 7.63001 11.0296 7.46901L11.0446 7.45401ZM9.05858 9.44001C9.25458 9.24401 9.25658 8.92001 9.01858 8.78001C8.71007 8.59637 8.35761 8.49962 7.99858 8.50001C7.63955 8.49962 7.2871 8.59637 6.97858 8.78001C6.74058 8.92001 6.74258 9.24401 6.93858 9.44001L7.64458 10.146C7.69103 10.1926 7.7462 10.2295 7.80695 10.2547C7.86769 10.2799 7.93281 10.2929 7.99858 10.2929C8.06435 10.2929 8.12947 10.2799 8.19021 10.2547C8.25096 10.2295 8.30614 10.1926 8.35258 10.146L9.05958 9.43901L9.05858 9.44001Z" fill="black" fill-opacity="0.38"/>
</svg>
