<svg width="26" height="26" viewBox="0 0 26 26" fill="none" xmlns="http://www.w3.org/2000/svg">
<path d="M17.869 3.88867C15.773 3.88867 13.982 5.38267 12.998 6.41267C12.014 5.38267 10.227 3.88867 8.132 3.88867C4.521 3.88867 2 6.40567 2 10.0087C2 13.9787 5.131 16.5447 8.16 19.0267C9.59 20.1997 11.07 21.4117 12.205 22.7557C12.396 22.9807 12.676 23.1107 12.97 23.1107H13.028C13.323 23.1107 13.602 22.9797 13.792 22.7557C14.929 21.4117 16.408 20.1987 17.839 19.0267C20.867 16.5457 24 13.9797 24 10.0087C24 6.40567 21.479 3.88867 17.869 3.88867V3.88867Z" stroke="#F89923" stroke-width="2"/>
</svg>
