<svg width="16" height="22" viewBox="0 0 16 22" fill="none" xmlns="http://www.w3.org/2000/svg">
<path d="M3.5 0.5C2.70435 0.5 1.94129 0.816071 1.37868 1.37868C0.81607 1.94129 0.5 2.70435 0.5 3.5V18.5C0.5 19.2956 0.81607 20.0587 1.37868 20.6213C1.94129 21.1839 2.70435 21.5 3.5 21.5H12.5C13.2956 21.5 14.0587 21.1839 14.6213 20.6213C15.1839 20.0587 15.5 19.2956 15.5 18.5V7.121C15.4995 6.52446 15.2621 5.95255 14.84 5.531L10.4705 1.1585C10.2615 0.9496 10.0133 0.783925 9.74025 0.670938C9.46718 0.557952 9.17453 0.499866 8.879 0.5H3.5ZM2 3.5C2 3.10218 2.15804 2.72064 2.43934 2.43934C2.72064 2.15804 3.10218 2 3.5 2H8V5.75C8 6.34674 8.23705 6.91903 8.65901 7.34099C9.08097 7.76295 9.65326 8 10.25 8H14V18.5C14 18.8978 13.842 19.2794 13.5607 19.5607C13.2794 19.842 12.8978 20 12.5 20H3.5C3.10218 20 2.72064 19.842 2.43934 19.5607C2.15804 19.2794 2 18.8978 2 18.5V3.5ZM13.6895 6.5H10.25C10.0511 6.5 9.86032 6.42098 9.71967 6.28033C9.57902 6.13968 9.5 5.94891 9.5 5.75V2.3105L13.6895 6.5Z" fill="black" fill-opacity="0.38"/>
</svg>
