<svg width="61" height="75" viewBox="0 0 61 75" fill="none" xmlns="http://www.w3.org/2000/svg">
<path d="M58.7432 0H2.25879C1.04531 0 0.0615234 0.983789 0.0615234 2.19727V72.8027C0.0615234 73.5642 0.455859 74.2714 1.10361 74.6719C1.75151 75.0724 2.5604 75.1085 3.24155 74.768L30.501 61.1383L57.7605 74.768C58.0707 74.9231 58.4073 75 58.7432 75C59.1448 75 59.5456 74.8898 59.8985 74.6719C60.5462 74.2715 60.9406 73.5642 60.9406 72.8027V2.19727C60.9404 0.983789 59.9565 0 58.7432 0ZM46.1559 28.1518L39.9229 34.2275L41.3739 42.6872C41.41 42.8451 41.429 43.0093 41.429 43.1782C41.429 44.3902 40.4476 45.3731 39.2358 45.3754C39.2333 45.3754 39.231 45.3754 39.2285 45.3754C38.8787 45.3754 38.5279 45.2921 38.2063 45.123L30.501 41.073L22.7959 45.123C22.4745 45.2919 22.1234 45.3754 21.7737 45.3754C21.3182 45.3754 20.8648 45.2339 20.4819 44.9558C19.8054 44.464 19.4665 43.631 19.608 42.8067L21.0798 34.2277L14.846 28.152C14.2471 27.5682 14.0314 26.6949 14.29 25.8995C14.5485 25.1039 15.2361 24.5241 16.0638 24.404L24.6784 23.1521L28.5303 15.3461C28.9005 14.5961 29.6643 14.1212 30.5007 14.1212C31.3371 14.1212 32.101 14.596 32.471 15.346L36.3237 23.1521L44.9379 24.404C45.7655 24.5241 46.4533 25.1039 46.7117 25.8993C46.9704 26.6947 46.7547 27.5679 46.1559 28.1518Z" fill="#1B6AAB"/>
</svg>
