<svg width="44" height="34" viewBox="0 0 44 34" fill="none" xmlns="http://www.w3.org/2000/svg">
<g clip-path="url(#clip0)">
<path d="M43.0238 5.30306C42.7714 4.27806 42.2792 3.34361 41.5962 2.59274C40.9131 1.84188 40.063 1.3008 39.1305 1.0234C35.7167 0 21.9773 0 21.9773 0C21.9773 0 8.23721 0.0309777 4.8234 1.05438C3.89091 1.3318 3.0408 1.8729 2.35773 2.6238C1.67466 3.3747 1.18247 4.30919 0.930165 5.33422C-0.102431 12.0016 -0.502993 22.1612 0.958519 28.5619C1.21085 29.5869 1.70305 30.5213 2.38612 31.2722C3.06918 32.0231 3.91928 32.5641 4.85176 32.8415C8.26556 33.8649 22.0053 33.8649 22.0053 33.8649C22.0053 33.8649 35.7449 33.8649 39.1585 32.8415C40.091 32.5642 40.9412 32.0231 41.6243 31.2722C42.3074 30.5214 42.7996 29.5869 43.0519 28.5619C44.1411 21.885 44.4767 11.7319 43.0238 5.30325V5.30306Z" fill="#FF0000"/>
<path d="M17.6035 24.1892L29.0016 16.9325L17.6037 9.67578L17.6035 24.1892Z" fill="white"/>
</g>
<defs>
<clipPath id="clip0">
<rect width="44" height="34" fill="white"/>
</clipPath>
</defs>
</svg>
