<svg width="20" height="24" viewBox="0 0 20 24" fill="none" xmlns="http://www.w3.org/2000/svg">
<path d="M7.19665 11.1626C7.87714 11.1626 8.43049 10.6103 8.43049 9.92809C8.43049 9.24652 7.87714 8.69336 7.19665 8.69336C6.5142 8.69336 5.96094 9.24652 5.96094 9.92809C5.96094 10.6087 6.5142 11.1626 7.19665 11.1626ZM7.44963 9.44756C7.79923 9.44756 8.08138 9.73138 8.08138 10.0803C8.08138 10.4308 7.79923 10.7147 7.44963 10.7147C7.10007 10.7147 6.81679 10.4308 6.81679 10.0803C6.81689 9.73133 7.10017 9.44756 7.44963 9.44756Z" fill="#1B6AAB"/>
<path d="M12.7954 11.1626C13.4777 11.1626 14.0302 10.6087 14.0302 9.92809C14.0302 9.24652 13.4777 8.69336 12.7954 8.69336C12.1139 8.69336 11.5625 9.24652 11.5625 9.92809C11.5625 10.6087 12.1133 11.1626 12.7954 11.1626ZM12.5431 9.44756C12.8929 9.44756 13.1759 9.73138 13.1759 10.0803C13.1752 10.4308 12.8929 10.7147 12.5431 10.7147C12.1935 10.7147 11.9103 10.4308 11.9103 10.0803C11.9104 9.73133 12.1936 9.44756 12.5431 9.44756Z" fill="#1B6AAB"/>
<path d="M2.62374 12.2597C2.65823 12.3204 2.69391 12.3895 2.72998 12.4496H2.73003C2.76358 12.5227 2.80054 12.5982 2.83119 12.6475C3.50685 13.7099 4.42429 14.6692 5.47365 15.3986C6.88217 16.3777 8.44167 16.8952 9.98358 16.8952C11.5257 16.8952 13.0854 16.3776 14.4941 15.3982C15.3828 14.7803 16.1766 13.9971 16.8094 13.1263C16.8095 13.1264 16.8097 13.1266 16.8098 13.1267C16.8125 13.1229 16.8164 13.1172 16.8202 13.1116C16.9445 12.9399 17.0623 12.7646 17.1735 12.5866C17.2219 12.5125 17.2586 12.4541 17.268 12.4333C17.268 12.4333 17.2682 12.4329 17.2683 12.4328C17.3026 12.3753 17.337 12.3177 17.3699 12.2597C18.06 12.2217 19.0134 11.9139 19.346 10.5809C19.4252 10.2706 19.4707 9.90439 19.4707 9.47195C19.4707 9.36892 19.4655 9.26687 19.4564 9.16591C19.3967 8.09226 19.0351 7.30258 18.4094 6.86349C18.4002 6.79515 18.3899 6.72715 18.3789 6.65935C18.1049 4.96671 17.2574 3.4516 16.028 2.29542C14.52 0.877289 12.438 0 10.1398 0C7.84155 0 5.7594 0.877289 4.25134 2.29537C3.02223 3.45155 2.1747 4.96671 1.90063 6.65935C1.21364 7.14135 0.527344 8.24905 0.527344 9.48836C0.527393 11.7579 1.77469 12.213 2.62374 12.2597ZM3.28999 11.0724C3.34015 10.9933 3.38317 10.907 3.42056 10.815C3.50793 10.609 3.57051 10.3757 3.60175 10.1249C3.77628 9.08746 3.70261 8.17869 4.52521 7.67894C5.22255 7.24907 6.14517 5.92486 6.88587 4.90004C7.09228 4.61444 7.52343 4.65756 7.82707 4.88545C8.86297 5.66311 10.147 6.23642 11.3608 6.65935C13.4854 7.3995 15.4055 7.66598 15.4682 7.67889C15.5586 7.69757 15.6384 7.72359 15.7092 7.75542C16.2755 8.10044 16.2406 9.18439 16.3962 10.1084C16.4273 10.3591 16.4899 10.5925 16.5773 10.7985C16.6147 10.8904 16.6578 10.9768 16.7079 11.0558C16.7181 11.0728 16.7283 11.0897 16.739 11.1061C16.7312 11.1051 16.7266 11.1045 16.7266 11.1045L16.5573 11.4331C16.5059 11.5327 16.4522 11.6343 16.3962 11.7366C16.261 11.9719 16.1087 12.2077 15.9399 12.4408C14.6709 14.1941 12.491 15.7909 9.98343 15.7909C7.95405 15.7909 6.13926 14.7449 4.84825 13.4167C5.73289 13.6115 6.64526 13.6903 7.35511 13.7224C7.41025 13.7936 7.53363 13.8902 7.78824 13.8902C7.99884 13.8902 8.76245 13.9323 9.02021 13.9469C9.04854 13.95 9.07717 13.9518 9.10634 13.9518C9.54173 13.9518 9.89474 13.5989 9.89474 13.1634C9.89474 12.728 9.54173 12.375 9.10634 12.375C8.97615 12.375 8.85366 12.4071 8.7454 12.4631L8.74496 12.4613L8.71722 12.4783C8.69888 12.4887 8.6808 12.4995 8.66341 12.5113L7.84333 13.0139C7.62228 12.9905 7.45519 13.0706 7.35846 13.1929C6.45348 13.1734 5.2628 13.0625 4.25942 12.7474C4.18166 12.6495 4.10706 12.5508 4.03497 12.4516C3.79944 12.1252 3.60909 11.7771 3.44027 11.4495L3.27097 11.1208C3.27097 11.1208 3.26643 11.1215 3.2587 11.1225C3.26954 11.1062 3.27979 11.0893 3.28999 11.0724Z" fill="#1B6AAB"/>
<path d="M6.25484 17.2465L6.2544 17.2461C6.2544 17.2461 6.25178 17.2461 6.24804 17.2461C6.24779 17.2461 6.2475 17.2461 6.24725 17.2461C6.24681 17.2461 6.24641 17.2461 6.24602 17.2461C6.15402 17.2471 5.2823 17.2565 5.05125 17.2565C3.33442 17.2565 1.03516 18.8199 1.03516 20.8128C1.03516 22.8053 1.03516 24.0009 1.03516 24.0009H8.16833C7.47626 22.3219 6.85959 18.1905 6.79435 17.7449C6.76883 17.4678 6.53768 17.2504 6.25484 17.2465Z" fill="#1B6AAB"/>
<path d="M10.0218 19.0332C10.0214 19.0332 10.0209 19.0333 10.0205 19.0333C10.02 19.0333 10.0195 19.0332 10.0191 19.0332C9.67203 19.0332 9.39062 19.3147 9.39062 19.6617C9.39062 20.0088 9.67203 20.2902 10.0191 20.2902C10.0196 20.2902 10.02 20.2902 10.0205 20.2902C10.0209 20.2902 10.0214 20.2902 10.0218 20.2902C10.3688 20.2902 10.6502 20.0088 10.6502 19.6617C10.6502 19.3147 10.3688 19.0332 10.0218 19.0332Z" fill="#1B6AAB"/>
<path d="M10.0218 21.3633C10.0214 21.3633 10.0209 21.3634 10.0205 21.3634C10.02 21.3634 10.0195 21.3633 10.0191 21.3633C9.67203 21.3633 9.39062 21.6447 9.39062 21.9919C9.39062 22.339 9.67203 22.6203 10.0191 22.6203C10.0196 22.6203 10.02 22.6202 10.0205 22.6202C10.0209 22.6202 10.0214 22.6203 10.0218 22.6203C10.3688 22.6203 10.6502 22.339 10.6502 21.9919C10.6502 21.6447 10.3688 21.3633 10.0218 21.3633Z" fill="#1B6AAB"/>
<path d="M14.9882 17.2565C14.7572 17.2565 13.8855 17.2472 13.7935 17.2461C13.7931 17.2461 13.7926 17.2461 13.7923 17.2461C13.792 17.2461 13.7917 17.2461 13.7914 17.2461C13.7876 17.2461 13.785 17.2461 13.785 17.2461L13.7845 17.2465C13.5017 17.2504 13.2705 17.4677 13.245 17.7449C13.1798 18.1905 12.5632 22.3219 11.8711 24.0009H19.0043C19.0043 24.0009 19.0043 22.8053 19.0043 20.8128C19.0043 18.82 16.7051 17.2565 14.9882 17.2565Z" fill="#1B6AAB"/>
</svg>
