<svg width="24" height="24" viewBox="0 0 24 24" fill="none" xmlns="http://www.w3.org/2000/svg">
<path d="M13.125 20.25H17.625V22.5H13.125V20.25Z" fill="#1B6AAB"/>
<path d="M20.7525 14.4709L22.3837 8.38094C22.4024 8.31767 22.4112 8.2519 22.41 8.18594C22.4093 8.01421 22.3498 7.84791 22.2413 7.71481C22.1327 7.58172 21.9818 7.4899 21.8137 7.45469C21.6168 7.42412 21.4155 7.4689 21.2501 7.5801C21.0847 7.6913 20.9673 7.86076 20.9212 8.05469L19.7625 11.6284L19.785 11.6622C19.9831 12.0063 20.0371 12.4147 19.935 12.7984C19.8848 12.9894 19.7969 13.1684 19.6764 13.3249C19.556 13.4814 19.4055 13.6122 19.2337 13.7097L17.085 14.9509C16.9993 14.9958 16.8996 15.0058 16.8067 14.9788C16.7138 14.9519 16.6349 14.8901 16.5865 14.8063C16.5381 14.7226 16.5239 14.6234 16.5469 14.5294C16.57 14.4355 16.6284 14.3541 16.71 14.3022L18.8587 13.0609C18.9444 13.0122 19.0197 12.947 19.0802 12.8692C19.1407 12.7913 19.1852 12.7023 19.2112 12.6072C19.2605 12.4146 19.2336 12.2105 19.1362 12.0372C19.0869 11.9516 19.0212 11.8765 18.9428 11.8164C18.8644 11.7562 18.7749 11.7122 18.6794 11.6868C18.5839 11.6613 18.4843 11.655 18.3864 11.6682C18.2885 11.6813 18.1941 11.7137 18.1087 11.7634L14.7975 13.7022C14.4038 13.9352 14.0772 14.2664 13.8498 14.6634C13.6224 15.0605 13.5019 15.5097 13.5 15.9672V19.4997H17.25V18.6747C17.2508 18.4102 17.3069 18.1487 17.4147 17.9072C17.5226 17.6656 17.6798 17.4493 17.8762 17.2722L20.415 15.0184C20.5787 14.8729 20.6961 14.6826 20.7525 14.4709Z" fill="#1B6AAB"/>
<path d="M19.1548 11.0697L20.2011 7.84094C20.286 7.51686 20.4745 7.22939 20.7378 7.02225C21.0011 6.81512 21.3249 6.69966 21.6598 6.69344V6.68594C21.6592 6.51421 21.5996 6.34791 21.4911 6.21481C21.3826 6.08172 21.2317 5.9899 21.0636 5.95469C20.8666 5.92412 20.6654 5.9689 20.5 6.0801C20.3346 6.1913 20.2171 6.36076 20.1711 6.55469L18.6523 10.9272C18.8266 10.9464 18.9964 10.9946 19.1548 11.0697Z" fill="#1B6AAB"/>
<path d="M3.24737 14.4667C3.3028 14.6798 3.42027 14.8717 3.58487 15.018L6.11987 17.2717C6.31748 17.4481 6.47571 17.6642 6.58426 17.9059C6.6928 18.1475 6.74924 18.4093 6.74987 18.6742V19.4992H10.4999V15.9667C10.498 15.5092 10.3775 15.06 10.1501 14.663C9.92264 14.266 9.59611 13.9348 9.20237 13.7017L5.88737 11.7592C5.80193 11.7102 5.70768 11.6785 5.60999 11.6659C5.5123 11.6534 5.41309 11.6602 5.31802 11.6859C5.22296 11.7117 5.1339 11.7559 5.05594 11.8161C4.97797 11.8763 4.91262 11.9513 4.86362 12.0367C4.76622 12.21 4.73936 12.4141 4.78862 12.6067C4.81467 12.7018 4.85921 12.7908 4.9197 12.8687C4.98018 12.9465 5.05543 13.0117 5.14112 13.0605L7.28987 14.3017C7.3715 14.3536 7.42992 14.435 7.45293 14.529C7.47594 14.6229 7.46176 14.7221 7.41336 14.8059C7.36496 14.8896 7.28607 14.9514 7.19318 14.9783C7.10029 15.0053 7.00058 14.9953 6.91487 14.9505L4.76612 13.7092C4.59437 13.6118 4.44385 13.481 4.32342 13.3245C4.20299 13.168 4.11508 12.989 4.06487 12.798C3.9628 12.4143 4.01672 12.0058 4.21487 11.6617L4.23737 11.628L3.08612 8.07297C3.04156 7.87472 2.92357 7.7007 2.75591 7.5859C2.58824 7.47111 2.38332 7.42406 2.18237 7.45422C2.01498 7.49017 1.86493 7.58232 1.75715 7.71534C1.64936 7.84836 1.59034 8.01426 1.58987 8.18547C1.58929 8.25115 1.59685 8.31665 1.61237 8.38047L3.24737 14.4667Z" fill="#1B6AAB"/>
<path d="M6.375 20.25H10.875V22.5H6.375V20.25Z" fill="#1B6AAB"/>
<path d="M2.93234 5.95372C2.76495 5.98967 2.6149 6.08182 2.50712 6.21484C2.39933 6.34786 2.34031 6.51376 2.33984 6.68497V6.69247C2.67776 6.7012 3.00364 6.81974 3.26819 7.03016C3.53273 7.24058 3.72156 7.53143 3.80609 7.85872L4.84484 11.0687C5.00325 10.9936 5.17308 10.9454 5.34734 10.9262L3.83984 6.57997C3.7955 6.38034 3.67733 6.20486 3.50902 6.08871C3.34071 5.97257 3.13472 5.92434 2.93234 5.95372Z" fill="#1B6AAB"/>
<path d="M12.375 5.625V4.125H11.625V5.625H10.125V6.375H11.625V7.875H12.375V6.375H13.875V5.625H12.375Z" fill="#1B6AAB"/>
<path d="M14.651 1.57429C14.2571 1.5729 13.8669 1.64994 13.503 1.80092C13.1392 1.95189 12.8091 2.17379 12.5319 2.45367L12.2649 2.72067C12.1946 2.79097 12.0992 2.83046 11.9998 2.83046C11.9003 2.83046 11.805 2.79097 11.7346 2.72067L11.4684 2.45442C11.19 2.1754 10.8593 1.95404 10.4952 1.803C10.1311 1.65196 9.74081 1.57422 9.34664 1.57422C8.95248 1.57422 8.56218 1.65196 8.1981 1.803C7.83402 1.95404 7.50331 2.1754 7.22489 2.45442C6.66317 3.01691 6.34766 3.77935 6.34766 4.57429C6.34766 5.36923 6.66317 6.13168 7.22489 6.69417L11.9998 11.469L16.7746 6.69417C17.1938 6.2744 17.4792 5.73976 17.5946 5.15785C17.71 4.57594 17.6502 3.97288 17.423 3.4249C17.1957 2.87693 16.811 2.40864 16.3176 2.07924C15.8242 1.74984 15.2443 1.57412 14.651 1.57429ZM14.6248 6.74929C14.6248 6.84875 14.5853 6.94413 14.5149 7.01446C14.4446 7.08478 14.3492 7.12429 14.2498 7.12429H13.1248V8.24929C13.1248 8.34875 13.0853 8.44413 13.0149 8.51446C12.9446 8.58478 12.8492 8.62429 12.7498 8.62429H11.2498C11.1503 8.62429 11.0549 8.58478 10.9846 8.51446C10.9143 8.44413 10.8748 8.34875 10.8748 8.24929V7.12429H9.74977C9.65031 7.12429 9.55493 7.08478 9.4846 7.01446C9.41428 6.94413 9.37477 6.84875 9.37477 6.74929V5.24929C9.37477 5.14984 9.41428 5.05445 9.4846 4.98413C9.55493 4.9138 9.65031 4.87429 9.74977 4.87429H10.8748V3.74929C10.8748 3.64984 10.9143 3.55445 10.9846 3.48413C11.0549 3.4138 11.1503 3.37429 11.2498 3.37429H12.7498C12.8492 3.37429 12.9446 3.4138 13.0149 3.48413C13.0853 3.55445 13.1248 3.64984 13.1248 3.74929V4.87429H14.2498C14.3492 4.87429 14.4446 4.9138 14.5149 4.98413C14.5853 5.05445 14.6248 5.14984 14.6248 5.24929V6.74929Z" fill="#1B6AAB"/>
</svg>
