<svg width="24" height="24" viewBox="0 0 24 24" fill="none" xmlns="http://www.w3.org/2000/svg">
<path d="M7.03125 15.5625C7.03125 14.0117 5.76956 12.75 4.21875 12.75C2.66794 12.75 1.40625 14.0117 1.40625 15.5625C1.40625 17.1133 2.66794 18.375 4.21875 18.375C5.76956 18.375 7.03125 17.1133 7.03125 15.5625ZM4.21875 16.9688C3.44334 16.9688 2.8125 16.3379 2.8125 15.5625C2.8125 14.7871 3.44334 14.1562 4.21875 14.1562C4.99416 14.1562 5.625 14.7871 5.625 15.5625C5.625 16.3379 4.99416 16.9688 4.21875 16.9688Z" fill="#1B6AAB"/>
<path d="M6.32812 18.375H2.10938C0.946266 18.375 0 19.3213 0 20.4844V24H8.4375V20.4844C8.4375 19.3213 7.49123 18.375 6.32812 18.375ZM7.03125 22.5938H1.40625V20.4844C1.40625 20.0967 1.72167 19.7812 2.10938 19.7812H6.32812C6.71583 19.7812 7.03125 20.0967 7.03125 20.4844V22.5938Z" fill="#1B6AAB"/>
<path d="M22.5938 15.5625C22.5938 14.0117 21.3321 12.75 19.7812 12.75C18.2304 12.75 16.9688 14.0117 16.9688 15.5625C16.9688 17.1133 18.2304 18.375 19.7812 18.375C21.3321 18.375 22.5938 17.1133 22.5938 15.5625ZM19.7812 16.9688C19.0058 16.9688 18.375 16.3379 18.375 15.5625C18.375 14.7871 19.0058 14.1562 19.7812 14.1562C20.5567 14.1562 21.1875 14.7871 21.1875 15.5625C21.1875 16.3379 20.5567 16.9688 19.7812 16.9688Z" fill="#1B6AAB"/>
<path d="M21.8906 18.375H17.6719C16.5088 18.375 15.5625 19.3213 15.5625 20.4844V24H24V20.4844C24 19.3213 23.0537 18.375 21.8906 18.375ZM22.5938 22.5938H16.9688V20.4844C16.9688 20.0967 17.2842 19.7812 17.6719 19.7812H21.8906C22.2783 19.7812 22.5938 20.0967 22.5938 20.4844V22.5938Z" fill="#1B6AAB"/>
<path d="M14.8125 2.8125C14.8125 1.26169 13.5508 0 12 0C10.4492 0 9.1875 1.26169 9.1875 2.8125C9.1875 4.36331 10.4492 5.625 12 5.625C13.5508 5.625 14.8125 4.36331 14.8125 2.8125ZM12 4.21875C11.2246 4.21875 10.5938 3.58791 10.5938 2.8125C10.5938 2.03709 11.2246 1.40625 12 1.40625C12.7754 1.40625 13.4062 2.03709 13.4062 2.8125C13.4062 3.58791 12.7754 4.21875 12 4.21875Z" fill="#1B6AAB"/>
<path d="M16.2188 7.73438C16.2188 6.57127 15.2725 5.625 14.1094 5.625H9.89062C8.72752 5.625 7.78125 6.57127 7.78125 7.73438V11.3438H16.2188V7.73438ZM14.8125 9.9375H9.1875V7.73438C9.1875 7.34667 9.50292 7.03125 9.89062 7.03125H14.1094C14.4971 7.03125 14.8125 7.34667 14.8125 7.73438V9.9375Z" fill="#1B6AAB"/>
<path d="M12.7044 12.75H11.2981V16.2113L9.37891 17.3193L10.082 18.5371L12.0012 17.4291L13.9204 18.5371L14.6236 17.3193L12.7044 16.2113V12.75Z" fill="#1B6AAB"/>
</svg>
