<svg width="24" height="24" viewBox="0 0 24 24" fill="none" xmlns="http://www.w3.org/2000/svg">
<path d="M21.8906 1.33008H2.10938C0.946266 1.33008 0 2.27634 0 3.43945V16.4835C0 17.6466 0.946266 18.5929 2.10938 18.5929H9.21066V21.2655H8.15189C7.76358 21.2655 7.44877 21.5803 7.44877 21.9686C7.44877 22.3569 7.76358 22.6717 8.15189 22.6717H15.8482C16.2365 22.6717 16.5513 22.3569 16.5513 21.9686C16.5513 21.5803 16.2365 21.2655 15.8482 21.2655H14.7894V18.5929H21.8906C23.0537 18.5929 24 17.6466 24 16.4835V3.43945C24 2.27634 23.0537 1.33008 21.8906 1.33008ZM13.3831 21.2655H10.6169V18.5929H13.3831V21.2655ZM22.5938 16.4835C22.5938 16.8712 22.2783 17.1867 21.8906 17.1867H2.10938C1.72167 17.1867 1.40625 16.8712 1.40625 16.4835V15.4147H22.5938V16.4835ZM22.5938 14.0084H1.40625V3.43945C1.40625 3.05175 1.72167 2.73633 2.10938 2.73633H21.8906C22.2783 2.73633 22.5938 3.05175 22.5938 3.43945V14.0084Z" fill="#1B6AAB"/>
<path d="M8.54231 10.1678L6.63764 8.86744L8.54231 7.56708C8.86303 7.34813 8.94553 6.91064 8.72658 6.58993C8.50767 6.26925 8.07014 6.18675 7.74942 6.40566L4.99416 8.28671C4.80225 8.41772 4.6875 8.63508 4.6875 8.86739C4.6875 9.09971 4.80225 9.31716 4.99416 9.44818L7.74942 11.3292C7.87069 11.4121 8.00869 11.4517 8.14523 11.4517C8.36977 11.4517 8.59045 11.3444 8.72658 11.145C8.94553 10.8242 8.86303 10.3868 8.54231 10.1678Z" fill="#1B6AAB"/>
<path d="M19.0034 8.28671L16.2481 6.40566C15.9274 6.18675 15.4899 6.26925 15.2709 6.58993C15.052 6.91064 15.1345 7.34813 15.4552 7.56708L17.3599 8.86744L15.4552 10.1677C15.1345 10.3867 15.052 10.8241 15.2709 11.1449C15.4071 11.3443 15.6277 11.4516 15.8523 11.4516C15.9888 11.4516 16.1268 11.4119 16.2481 11.3291L19.0034 9.44808C19.1953 9.31707 19.31 9.09971 19.31 8.86739C19.31 8.63508 19.1952 8.41777 19.0034 8.28671Z" fill="#1B6AAB"/>
<path d="M13.7572 5.74267C13.4188 5.5524 12.99 5.6725 12.7997 6.01108L9.977 11.0325C9.78678 11.3709 9.90692 11.7996 10.2455 11.9899C10.3544 12.0512 10.4727 12.0802 10.5893 12.0802C10.8351 12.0802 11.0738 11.9511 11.2029 11.7215L14.0256 6.70014C14.2159 6.36165 14.0957 5.93298 13.7572 5.74267Z" fill="#1B6AAB"/>
</svg>
