<svg width="24" height="24" viewBox="0 0 24 24" fill="none" xmlns="http://www.w3.org/2000/svg">
<path d="M24 11.905V16.0768C23.9505 17.3206 22.1741 17.3197 22.1251 16.0768V14.2248L19.1415 17.2084C18.9657 17.3842 18.7272 17.483 18.4786 17.483H13.7479L7.50706 23.7239C7.14098 24.09 6.54736 24.09 6.18128 23.7239C5.81515 23.3577 5.81515 22.7642 6.18128 22.3981L12.6968 15.8826C12.8725 15.7068 13.111 15.608 13.3596 15.608H18.0903L20.8558 12.8425H18.8439C17.6 12.793 17.601 11.0166 18.8439 10.9675H23.0625C23.5803 10.9675 24 11.3872 24 11.905ZM23.0625 18.8892C22.5448 18.8892 22.1251 19.3089 22.1251 19.8267V23.061C22.1746 24.3048 23.9509 24.3039 24 23.061V19.8267C24 19.3089 23.5803 18.8892 23.0625 18.8892ZM19.3126 18.8892C18.7949 18.8892 18.3752 19.3089 18.3752 19.8267V23.061C18.4246 24.3048 20.201 24.3039 20.2501 23.061V19.8267C20.2501 19.3089 19.8304 18.8892 19.3126 18.8892ZM15.5627 18.8892C15.0449 18.8892 14.6252 19.3089 14.6252 19.8267V23.061C14.6747 24.3048 16.4511 24.3039 16.5002 23.061V19.8267C16.5002 19.3089 16.0805 18.8892 15.5627 18.8892ZM11.8128 21.7485C11.295 21.7485 10.8753 22.1682 10.8753 22.686V23.061C10.9248 24.3048 12.7012 24.3039 12.7503 23.061V22.686C12.7503 22.1682 12.3306 21.7485 11.8128 21.7485ZM9.89097 15.8893C10.4087 15.8893 10.8285 15.4696 10.8285 14.9518V14.376C13.7673 13.2882 13.0576 8.96502 9.89093 8.90507C8.64446 8.85421 8.6505 7.08828 9.89097 7.03682C10.2674 7.03682 10.5679 7.23622 10.7155 7.58397C10.9178 8.06054 11.4682 8.28282 11.9448 8.08056C12.4214 7.87825 12.6437 7.32786 12.4414 6.85124C12.1276 6.11199 11.5445 5.5714 10.8285 5.31964V4.68637C10.779 3.44253 9.00257 3.44346 8.9535 4.68637V5.32245C6.01891 6.41025 6.71878 10.7198 9.89102 10.78C11.1305 10.8313 11.1384 12.61 9.89097 12.6616C9.52639 12.6616 9.1648 12.4238 9.01171 12.0831C8.79947 11.6109 8.24453 11.4001 7.77232 11.6124C7.30007 11.8246 7.08927 12.3795 7.30157 12.8518C7.62153 13.5636 8.23473 14.1105 8.9535 14.3702V14.9518C8.9535 15.4696 9.3732 15.8893 9.89097 15.8893ZM6.65649 19.099C7.03345 19.099 7.38899 18.8699 7.532 18.4968C7.71738 18.0134 7.4757 17.4712 6.99224 17.2859C-1.17005 13.99 1.0221 2.02075 9.84424 1.87398C13.724 1.87398 17.0249 4.64273 17.6929 8.45742C17.7822 8.96736 18.268 9.30842 18.778 9.21912C19.288 9.12983 19.6291 8.64398 19.5397 8.13399C19.1451 5.88077 17.9622 3.82066 16.2087 2.33321C9.88901 -3.06835 -0.0276844 1.51948 0.000627474 9.84264C-0.0466214 13.844 2.57911 17.6465 6.32106 19.0366C6.43149 19.0789 6.54488 19.099 6.65649 19.099Z" fill="#1B6AAB"/>
</svg>
