<svg width="24" height="24" viewBox="0 0 24 24" fill="none" xmlns="http://www.w3.org/2000/svg">
<path d="M17.5781 4.6875H23.2969C23.6852 4.6875 24 4.37269 24 3.98438V0.703125C24 0.314812 23.6852 0 23.2969 0H17.5781C17.1898 0 16.875 0.314812 16.875 0.703125V1.64062H13.8281C13.4398 1.64062 13.125 1.95544 13.125 2.34375V11.2969H10.7812V9.60938C10.7812 7.69453 9.56634 6.05817 7.86689 5.43042C8.36766 4.85419 8.67188 4.10283 8.67188 3.28125C8.67188 1.47197 7.19991 0 5.39062 0C3.58134 0 2.10938 1.47197 2.10938 3.28125C2.10938 4.10283 2.41359 4.85419 2.91436 5.43042C1.21491 6.05817 0 7.69453 0 9.60938V13.3594C0 14.264 0.735984 15 1.64062 15H1.875V22.3594C1.875 23.264 2.61098 24 3.51562 24H7.26562C8.17027 24 8.90625 23.264 8.90625 22.3594V15H9.14062C10.0453 15 10.7812 14.264 10.7812 13.3594V12.7031H13.125V21.6562C13.125 22.0446 13.4398 22.3594 13.8281 22.3594H16.875V23.2969C16.875 23.6852 17.1898 24 17.5781 24H23.2969C23.6852 24 24 23.6852 24 23.2969V20.0156C24 19.6273 23.6852 19.3125 23.2969 19.3125H17.5781C17.1898 19.3125 16.875 19.6273 16.875 20.0156V20.9531H14.5312V15.9219H16.875V16.8594C16.875 17.2477 17.1898 17.5625 17.5781 17.5625H23.2969C23.6852 17.5625 24 17.2477 24 16.8594V13.5781C24 13.1898 23.6852 12.875 23.2969 12.875H17.5781C17.1898 12.875 16.875 13.1898 16.875 13.5781V14.5156H14.5312V9.48436H16.875V10.4219C16.875 10.8102 17.1898 11.125 17.5781 11.125H23.2969C23.6852 11.125 24 10.8102 24 10.4219V7.14061C24 6.7523 23.6852 6.43748 23.2969 6.43748H17.5781C17.1898 6.43748 16.875 6.7523 16.875 7.14061V8.07811H14.5312V3.04688H16.875V3.98438C16.875 4.37269 17.1898 4.6875 17.5781 4.6875ZM18.2812 1.40625H22.5938V3.28125H18.2812V1.40625ZM5.39062 1.40625C6.4245 1.40625 7.26562 2.24738 7.26562 3.28125C7.26562 4.31512 6.4245 5.15625 5.39062 5.15625C4.35675 5.15625 3.51562 4.31512 3.51562 3.28125C3.51562 2.24738 4.35675 1.40625 5.39062 1.40625ZM9.375 13.3594C9.375 13.4886 9.26986 13.5938 9.14062 13.5938H8.20312C7.81481 13.5938 7.5 13.9086 7.5 14.2969V22.3594C7.5 22.4886 7.39486 22.5938 7.26562 22.5938H6.09375V15.7031C6.09375 15.3148 5.77894 15 5.39062 15C5.00231 15 4.6875 15.3148 4.6875 15.7031V22.5938H3.51562C3.38639 22.5938 3.28125 22.4886 3.28125 22.3594V14.2969C3.28125 13.9086 2.96644 13.5938 2.57812 13.5938H1.64062C1.51139 13.5938 1.40625 13.4886 1.40625 13.3594V9.60938C1.40625 7.92933 2.77308 6.5625 4.45312 6.5625H6.32812C8.00817 6.5625 9.375 7.92933 9.375 9.60938V13.3594ZM18.2812 20.7188H22.5938V22.5938H18.2812V20.7188ZM18.2812 14.2813H22.5938V16.1563H18.2812V14.2813ZM18.2812 7.84373H22.5938V9.71873H18.2812V7.84373Z" fill="#1B6AAB"/>
</svg>
