<svg width="24" height="24" viewBox="0 0 24 24" fill="none" xmlns="http://www.w3.org/2000/svg">
<path d="M20.25 10.125H19.5C18.8797 10.125 18.375 10.6297 18.375 11.25V11.3932L18.234 11.4637C17.8583 11.6516 17.625 12.0292 17.625 12.4489C17.625 12.7432 17.7397 13.0196 17.9475 13.2277L18.375 13.6553V17.0115C18.375 17.0644 18.3532 17.1161 18.3161 17.1536C18.2707 17.1986 18.2066 17.2196 18.1436 17.2103L17.9314 17.1776C17.775 16.662 17.3708 16.3189 17.0336 16.0361C16.7017 15.7579 16.5 15.5741 16.5 15.375C16.5 14.8586 16.5859 14.5159 16.6763 14.1536C16.7738 13.7629 16.875 13.3586 16.875 12.75C16.875 11.7476 16.3575 11.0126 16.125 10.7329V10.6875C16.125 8.30962 14.1904 6.375 11.8125 6.375C9.43463 6.375 7.5 8.30962 7.5 10.6875V13.2641C7.09987 13.491 6.375 14.0809 6.375 15.375C6.375 16.0114 6.66 16.5623 7.05863 17.025L5.85713 17.2099C5.79225 17.2196 5.72925 17.1982 5.68425 17.1532C5.64675 17.1158 5.62538 17.064 5.62538 17.0111V13.6549L6.05288 13.2274C6.26025 13.02 6.375 12.7432 6.375 12.4489C6.375 12.0289 6.14175 11.6516 5.766 11.4637L5.625 11.3932V11.25C5.625 10.6297 5.12025 10.125 4.5 10.125H3.75C3.12975 10.125 2.625 10.6297 2.625 11.25V17.4022C2.625 18.1294 2.90812 18.8134 3.42262 19.3282C4.02112 19.9264 4.84613 20.2106 5.68613 20.1045L7.5 19.878V23.625H16.5V19.878L18.3139 20.1045C19.1531 20.211 19.9785 19.9264 20.5774 19.3279C21.0919 18.8134 21.375 18.1294 21.375 17.4022V11.25C21.375 10.6297 20.8703 10.125 20.25 10.125ZM18.5696 12.1346L19.125 11.8568V11.25C19.125 11.0434 19.293 10.875 19.5 10.875H20.25C20.457 10.875 20.625 11.0434 20.625 11.25V13.125H18.9053L18.4777 12.6975C18.4117 12.6311 18.375 12.543 18.375 12.4489C18.375 12.315 18.4493 12.1946 18.5696 12.1346ZM7.9935 13.8559L8.25 13.7704V10.6875C8.25 8.72325 9.84825 7.125 11.8125 7.125C13.7767 7.125 15.375 8.72325 15.375 10.6875V11.0302L15.4849 11.1401C15.4913 11.1465 16.125 11.7915 16.125 12.75C16.125 13.2664 16.0391 13.6091 15.9487 13.9714C15.8512 14.3621 15.75 14.7664 15.75 15.375C15.75 15.9386 16.176 16.2956 16.5518 16.6106C16.719 16.7509 16.881 16.887 17.0074 17.0351L13.875 16.5532V15.8381C14.5597 15.2876 15 14.445 15 13.5V10.5H12.9769C12.1665 10.5 11.382 10.2626 10.7078 9.813L10.5 9.67425L9 10.6744V13.5C9 14.6036 9.60075 15.567 10.4903 16.0883C10.4719 16.3099 10.4209 16.5289 10.2817 16.6811L10.0402 16.9462L10.2938 17.1998C10.6545 17.5601 10.872 17.7791 10.8746 18.3664L10.8506 18.678C10.7775 19.1539 10.4992 19.887 9.54487 20.4769C9.309 20.0794 8.96625 19.7775 8.655 19.5037C8.49825 19.3657 8.36363 19.2431 8.25 19.1257V19.125H8.24925C8.01262 18.8805 7.875 18.6589 7.875 18.375C7.875 18.15 7.9155 17.9715 7.965 17.8354C8.75362 18.3949 9.55275 18.7013 9.61837 18.726L9.882 18.0236C9.11512 17.7364 7.125 16.6999 7.125 15.375C7.125 14.1799 7.96125 13.8671 7.9935 13.8559ZM12 15.75C10.7591 15.75 9.75 14.7409 9.75 13.5V11.0756L10.506 10.5716C11.2537 11.016 12.1024 11.25 12.9769 11.25H14.25V13.5C14.25 14.7409 13.2409 15.75 12 15.75ZM12 16.5C12.3979 16.5 12.7774 16.4205 13.125 16.2791V16.7197L11.8448 18H11.5958C11.5204 17.4919 11.2965 17.1679 11.0411 16.8919C11.1255 16.7299 11.175 16.5589 11.2054 16.3898C11.4593 16.4595 11.7247 16.5 12 16.5ZM11.598 18.75H11.8448L12.2239 19.1291L12.6994 22.875H11.28L11.5965 18.762C11.5969 18.7579 11.5972 18.7541 11.598 18.75ZM12.5303 18.375L13.6309 17.2744L13.6916 17.2838L13.2821 19.1265L12.5303 18.375ZM3.75 10.875H4.5C4.707 10.875 4.875 11.0434 4.875 11.25V11.8568L5.43038 12.1346C5.55075 12.1946 5.625 12.315 5.625 12.4489C5.625 12.5426 5.58825 12.6311 5.52225 12.6975L5.09475 13.125H3.375V11.25C3.375 11.0434 3.543 10.875 3.75 10.875ZM5.59312 19.3605C4.98187 19.4359 4.38675 19.2315 3.95288 18.798C3.5805 18.4249 3.375 17.9291 3.375 17.4022V13.875H4.875V17.0115C4.875 17.2654 4.974 17.5043 5.15363 17.6839C5.36663 17.8973 5.67225 17.9966 5.97075 17.9513L7.20375 17.7615C7.15725 17.937 7.125 18.1399 7.125 18.375C7.125 18.6705 7.20412 18.9229 7.32788 19.1464L5.59312 19.3605ZM8.25 20.1476C8.58525 20.4446 8.89162 20.7356 9.0195 21.1185L9.156 21.5287L9.54263 21.3353C10.0417 21.0859 10.4197 20.8005 10.71 20.5054L10.5278 22.875H8.25V20.1476ZM20.0471 18.7976C19.6133 19.2315 19.0174 19.4362 18.4069 19.3605L16.5465 19.128L15.75 19.125V22.875H13.4554L13.0897 19.995L13.7179 20.6231L14.4345 17.3981L18.0296 17.9513C18.327 17.9966 18.633 17.8969 18.8464 17.6839C19.026 17.5043 19.125 17.2654 19.125 17.0115V13.875H20.625V17.4022C20.625 17.9291 20.4195 18.4249 20.0471 18.7976Z" fill="#1B6AAB"/>
<path d="M12 5.625C13.4471 5.625 14.625 4.4475 14.625 3C14.625 1.5525 13.4471 0.375 12 0.375C10.5529 0.375 9.375 1.5525 9.375 3C9.375 4.4475 10.5529 5.625 12 5.625ZM12 1.125C13.0339 1.125 13.875 1.96613 13.875 3C13.875 4.03387 13.0339 4.875 12 4.875C10.9661 4.875 10.125 4.03387 10.125 3C10.125 1.96613 10.9661 1.125 12 1.125Z" fill="#1B6AAB"/>
<path d="M13.3896 2.51462L12.8594 1.98438L11.6245 3.21925L11.1396 2.73437L10.6094 3.26462L11.6245 4.27975L13.3896 2.51462Z" fill="#1B6AAB"/>
<path d="M3.75013 9.37647C4.57738 9.37647 5.25013 8.70372 5.25013 7.87647V7.20447C5.25013 6.9536 5.37388 6.7181 5.57338 6.58985C6.545 5.9651 7.12513 4.90422 7.12513 3.75147C7.12513 2.79147 6.71413 1.87385 5.99788 1.2341C5.28238 0.594348 4.32088 0.289848 3.35825 0.398598C1.83875 0.570723 0.596377 1.79472 0.403252 3.30972C0.235627 4.62522 0.822502 5.8841 1.93513 6.5951C2.12938 6.7196 2.25013 6.95885 2.25013 7.22022V7.87647C2.25013 8.70372 2.92288 9.37647 3.75013 9.37647ZM3.75013 8.62647C3.3365 8.62647 3.00013 8.2901 3.00013 7.87647H4.50013C4.50013 8.2901 4.16375 8.62647 3.75013 8.62647ZM3.37513 3.75147C3.37513 3.54485 3.54313 3.37647 3.75013 3.37647C3.95713 3.37647 4.12513 3.54485 4.12513 3.75147C4.12513 3.9581 3.95713 4.12647 3.75013 4.12647C3.54313 4.12647 3.37513 3.9581 3.37513 3.75147ZM1.14763 3.4046C1.29725 2.22822 2.26288 1.27722 3.44263 1.14372C3.54688 1.1321 3.65038 1.12647 3.75313 1.12647C4.40038 1.12647 5.01088 1.35785 5.49838 1.79322C6.05525 2.29085 6.37513 3.00485 6.37513 3.75147C6.37513 4.64772 5.924 5.4731 5.168 5.9591C4.77125 6.21372 4.529 6.6461 4.505 7.12647H4.12513V4.80747C4.5605 4.65222 4.87513 4.23972 4.87513 3.75147C4.87513 3.13122 4.37038 2.62647 3.75013 2.62647C3.12988 2.62647 2.62513 3.13122 2.62513 3.75147C2.62513 4.23972 2.93975 4.65222 3.37513 4.80747V7.12647H2.9945C2.96675 6.64197 2.72788 6.21147 2.33863 5.96322C1.4735 5.4101 1.01675 4.42985 1.14763 3.4046Z" fill="#1B6AAB"/>
<path d="M23.625 3.47963L22.7044 3.1725L23.1382 2.30475L21.6953 0.86175L20.8271 1.296L20.5204 0.375H18.48L18.1733 1.296L17.3051 0.86175L15.8621 2.30475L16.296 3.1725L15.375 3.47963V5.52L16.2956 5.82712L15.8618 6.69488L17.3047 8.13788L18.1729 7.70362L18.4796 8.625H20.52L20.8267 7.704L21.6949 8.13825L23.1379 6.69525L22.704 5.8275L23.625 5.52037V3.47963ZM22.875 4.97963L22.0148 5.2665L21.9514 5.43187C21.9326 5.47988 21.9139 5.5275 21.8932 5.574L21.8205 5.73637L22.2259 6.54712L21.5475 7.2255L20.7368 6.82013L20.5744 6.89288C20.5283 6.9135 20.4814 6.93225 20.4338 6.95025L20.2669 7.01325L19.9796 7.875H19.02L18.7327 7.01325L18.5659 6.95025C18.5182 6.93225 18.4714 6.9135 18.4252 6.89288L18.2629 6.82013L17.4521 7.2255L16.7737 6.54712L17.1791 5.73637L17.1064 5.574C17.0854 5.52713 17.067 5.47988 17.0483 5.43187L16.9849 5.2665L16.125 4.97963V4.02L16.9852 3.73312L17.0486 3.56775C17.0674 3.51975 17.0861 3.47213 17.1068 3.42563L17.1795 3.26325L16.7741 2.4525L17.4525 1.77412L18.2632 2.1795L18.4256 2.10675C18.4717 2.08613 18.5186 2.06738 18.5662 2.04938L18.7331 1.98637L19.0204 1.125H19.98L20.2673 1.98675L20.4341 2.04975C20.4818 2.06775 20.5286 2.0865 20.5748 2.10713L20.7371 2.17988L21.5479 1.7745L22.2263 2.45287L21.8209 3.26363L21.8936 3.426C21.9146 3.47287 21.933 3.52013 21.9517 3.56813L22.0151 3.7335L22.875 4.02037V4.97963Z" fill="#1B6AAB"/>
<path d="M19.5 2.625C18.4661 2.625 17.625 3.46613 17.625 4.5C17.625 5.53387 18.4661 6.375 19.5 6.375C20.5339 6.375 21.375 5.53387 21.375 4.5C21.375 3.46613 20.5339 2.625 19.5 2.625ZM19.5 5.625C18.8798 5.625 18.375 5.12025 18.375 4.5C18.375 3.87975 18.8798 3.375 19.5 3.375C20.1202 3.375 20.625 3.87975 20.625 4.5C20.625 5.12025 20.1202 5.625 19.5 5.625Z" fill="#1B6AAB"/>
</svg>
