<svg width="21" height="24" viewBox="0 0 21 24" fill="none" xmlns="http://www.w3.org/2000/svg">
<path d="M19.9513 9.46404L11.9984 1.51119C11.1763 0.689002 9.83837 0.688955 9.01614 1.51119C8.27701 2.25027 8.21336 3.37747 8.75917 4.18236L8.74811 4.23772C8.17473 7.10483 6.77885 9.71314 4.71124 11.7807L1.06348 15.4285C0.239327 16.2527 0.239186 17.5865 1.06348 18.4107L3.05163 20.3989C3.87574 21.2231 5.20971 21.2231 6.03391 20.3989L6.53097 19.9018L10.0103 23.3812C10.8345 24.2054 12.1683 24.2054 12.9925 23.3812C13.8148 22.559 13.8148 21.2211 12.9925 20.3989L11.5014 18.9078L11.9985 18.4107C12.8226 17.5866 12.8227 16.2528 11.9985 15.4285L11.6607 15.0907C13.3223 13.9273 15.2095 13.1173 17.2248 12.7143L17.2808 12.7031C18.1036 13.2586 19.2282 13.1693 19.9513 12.4462H19.9513C20.7734 11.6241 20.7734 10.2863 19.9513 9.46404ZM5.03983 19.4048C4.76515 19.6795 4.3204 19.6795 4.04571 19.4048L2.05756 17.4166C1.78282 17.1418 1.78282 16.6973 2.05756 16.4225L5.53685 12.9432L8.51912 15.9255C8.17872 16.2659 5.38863 19.056 5.03983 19.4048ZM11.9984 21.393C12.2724 21.667 12.2724 22.113 11.9984 22.3871C11.7244 22.6611 11.2784 22.6611 11.0043 22.3871L7.525 18.9077L8.51912 17.9136L11.9984 21.393ZM9.5132 16.9196C9.72451 16.7082 10.0408 16.3846 10.54 15.9582L11.0043 16.4225C11.2791 16.6973 11.2791 17.1418 11.0043 17.4166L10.5073 17.9137L9.5132 16.9196ZM9.54306 14.9613L6.50097 11.9192C8.13123 10.0368 9.2987 7.81465 9.92331 5.40059L16.0617 11.539C13.6476 12.1635 11.4256 13.331 9.54306 14.9613ZM18.957 11.4521C18.6823 11.7268 18.2377 11.7268 17.963 11.4521L10.0102 3.49934C9.73548 3.22456 9.73548 2.78 10.0102 2.50527C10.2849 2.23053 10.7296 2.23053 11.0043 2.50527L18.957 10.458C19.2311 10.7321 19.2311 11.178 18.957 11.4521Z" fill="#1B6AAB"/>
</svg>
