<svg width="24" height="24" viewBox="0 0 24 24" fill="none" xmlns="http://www.w3.org/2000/svg">
<path d="M22.0645 8.46812H15.0968V3.04877C15.0955 1.98028 14.2298 1.1146 13.1613 1.11328H1.93548C0.866998 1.1146 0.00132309 1.98028 0 3.04877V9.62941C0.000945058 10.5488 0.647744 11.3411 1.54839 11.5261V15.161C1.54801 15.3189 1.64327 15.461 1.78938 15.5205C1.93548 15.5801 2.10314 15.5451 2.21295 15.4321L5.97014 11.5649H8.90323V16.9842C8.90455 18.0527 9.77022 18.9184 10.8387 18.9197H18.0299L21.787 22.7873C21.8969 22.9003 22.0645 22.9355 22.2106 22.8758C22.3567 22.8162 22.452 22.6741 22.4516 22.5163V18.881C23.3523 18.6959 23.9991 17.9036 24 16.9842V10.4036C23.9987 9.33512 23.133 8.46944 22.0645 8.46812ZM5.80645 10.7907C5.70212 10.7903 5.60194 10.8323 5.52898 10.9068L2.32258 14.2073V11.1778C2.32258 10.964 2.14926 10.7907 1.93548 10.7907C1.29417 10.7907 0.774194 10.2707 0.774194 9.62941V3.04877C0.774194 2.40745 1.29417 1.88747 1.93548 1.88747H13.1613C13.8026 1.88747 14.3226 2.40745 14.3226 3.04877V8.46812H10.8387C10.3656 8.46982 9.90971 8.64617 9.55853 8.96314L7.32157 6.72618L8.67641 5.37135H9.67742C9.89119 5.37135 10.0645 5.19802 10.0645 4.98425C10.0645 4.77048 9.89119 4.59715 9.67742 4.59715H7.35484V3.82296C7.35484 3.60919 7.18151 3.43586 6.96774 3.43586C6.75397 3.43586 6.58065 3.60919 6.58065 3.82296V4.59715H4.64516C4.43139 4.59715 4.25806 4.77048 4.25806 4.98425C4.25806 5.19802 4.43139 5.37135 4.64516 5.37135H7.58165L3.79083 9.16217C3.69027 9.25932 3.64982 9.40335 3.68536 9.53868C3.7207 9.67402 3.82636 9.77967 3.96169 9.81502C4.09703 9.85055 4.24105 9.81011 4.33821 9.70955L6.77419 7.27356L9.01663 9.516C9.04158 9.53774 9.06937 9.55626 9.09904 9.571C8.97165 9.83014 8.90474 10.1148 8.90323 10.4036V10.7907H5.80645ZM23.2258 16.9842C23.2258 17.6256 22.7058 18.1455 22.0645 18.1455C21.8507 18.1455 21.6774 18.3189 21.6774 18.5326V21.5633L18.471 18.2616C18.3981 18.1871 18.2979 18.1452 18.1935 18.1455H10.8387C10.1974 18.1455 9.67742 17.6256 9.67742 16.9842V10.4036C9.67742 9.76229 10.1974 9.24231 10.8387 9.24231H22.0645C22.7058 9.24231 23.2258 9.76229 23.2258 10.4036V16.9842Z" fill="#1B6AAB"/>
<path d="M18.091 14.528C18.19 14.4207 18.2186 14.2659 18.1643 14.1302C18.1101 13.9946 17.9827 13.9022 17.837 13.8928L17.0029 11.807C16.9464 11.6653 16.8118 11.57 16.6594 11.5636C16.5058 11.5519 16.361 11.6371 16.2967 11.7772L14.3612 15.6481C14.2656 15.8396 14.3433 16.0721 14.5348 16.1677C14.726 16.2634 14.9585 16.1857 15.0542 15.9942L15.7212 14.6603H17.3081L17.83 15.9653C17.889 16.1131 18.0324 16.2097 18.1916 16.2087C18.2407 16.2089 18.2895 16.1997 18.3352 16.1813C18.5339 16.1019 18.6306 15.8766 18.5512 15.678L18.091 14.528ZM16.1083 13.8862L16.6037 12.8948L17.0004 13.8862H16.1083Z" fill="#1B6AAB"/>
<path d="M22.4522 10.4023H19.7426C19.5288 10.4023 19.3555 10.5757 19.3555 10.7894C19.3555 11.0032 19.5288 11.1765 19.7426 11.1765H22.4522C22.666 11.1765 22.8393 11.0032 22.8393 10.7894C22.8393 10.5757 22.666 10.4023 22.4522 10.4023Z" fill="#1B6AAB"/>
<path d="M18.4354 10.4346C18.3879 10.4533 18.3446 10.4809 18.3076 10.5159C18.2367 10.59 18.1966 10.6883 18.1953 10.7907C18.1953 11.0045 18.3686 11.1778 18.5824 11.1778C18.7962 11.1778 18.9695 11.0045 18.9695 10.7907C18.968 10.6883 18.9279 10.59 18.8572 10.5159C18.7459 10.4061 18.5794 10.3739 18.4354 10.4346Z" fill="#1B6AAB"/>
<path d="M10.8402 3.4363H13.5499C13.7637 3.4363 13.937 3.26298 13.937 3.04921C13.937 2.83543 13.7637 2.66211 13.5499 2.66211H10.8402C10.6264 2.66211 10.4531 2.83543 10.4531 3.04921C10.4531 3.26298 10.6264 3.4363 10.8402 3.4363Z" fill="#1B6AAB"/>
<path d="M9.40138 3.32224C9.51214 3.43301 9.67923 3.46533 9.82325 3.40352C9.87012 3.38386 9.91341 3.35627 9.95102 3.32224C10.0618 3.21148 10.0941 3.0444 10.0323 2.90037C10.0126 2.85349 9.98523 2.81021 9.95102 2.7726C9.93193 2.75502 9.91133 2.73952 9.88903 2.7261C9.86937 2.71079 9.84707 2.69907 9.82325 2.69132C9.80019 2.6796 9.77505 2.67166 9.74935 2.66807C9.67526 2.6522 9.59814 2.66032 9.52915 2.69132C9.48171 2.71003 9.43843 2.73763 9.40138 2.7726C9.36717 2.81021 9.33976 2.85349 9.32011 2.90037C9.27871 2.99412 9.27871 3.10072 9.32011 3.19447C9.33976 3.24135 9.36736 3.28463 9.40138 3.32224Z" fill="#1B6AAB"/>
</svg>
