<svg width="24" height="24" viewBox="0 0 24 24" fill="none" xmlns="http://www.w3.org/2000/svg">
<path d="M13.2285 0.921571C13.0575 0.780571 12.831 0.722071 12.612 0.762571L0.612 3.01257C0.2565 3.07857 0 3.38757 0 3.74907V20.2491C0 20.6091 0.2565 20.9196 0.612 20.9856L12.612 23.2356C12.657 23.2446 12.705 23.2491 12.75 23.2491C12.9225 23.2491 13.0935 23.1891 13.2285 23.0766C13.401 22.9341 13.5 22.7211 13.5 22.4991V1.49907C13.5 1.27557 13.401 1.06407 13.2285 0.921571ZM12 21.5946L1.5 19.6266V4.37157L12 2.40357V21.5946Z" fill="#1B6AAB"/>
<path d="M23.25 3.75H12.75C12.336 3.75 12 4.086 12 4.5C12 4.914 12.336 5.25 12.75 5.25H22.5V18.75H12.75C12.336 18.75 12 19.086 12 19.5C12 19.914 12.336 20.25 12.75 20.25H23.25C23.664 20.25 24 19.914 24 19.5V4.5C24 4.086 23.664 3.75 23.25 3.75Z" fill="#1B6AAB"/>
<path d="M20.25 6.75H12.75C12.336 6.75 12 7.086 12 7.5C12 7.914 12.336 8.25 12.75 8.25H20.25C20.664 8.25 21 7.914 21 7.5C21 7.086 20.664 6.75 20.25 6.75Z" fill="#1B6AAB"/>
<path d="M20.25 9.75H12.75C12.336 9.75 12 10.086 12 10.5C12 10.914 12.336 11.25 12.75 11.25H20.25C20.664 11.25 21 10.914 21 10.5C21 10.086 20.664 9.75 20.25 9.75Z" fill="#1B6AAB"/>
<path d="M20.25 12.75H12.75C12.336 12.75 12 13.086 12 13.5C12 13.914 12.336 14.25 12.75 14.25H20.25C20.664 14.25 21 13.914 21 13.5C21 13.086 20.664 12.75 20.25 12.75Z" fill="#1B6AAB"/>
<path d="M20.25 15.75H12.75C12.336 15.75 12 16.086 12 16.5C12 16.914 12.336 17.25 12.75 17.25H20.25C20.664 17.25 21 16.914 21 16.5C21 16.086 20.664 15.75 20.25 15.75Z" fill="#1B6AAB"/>
<path d="M9.83261 8.25376C9.43511 8.21326 9.04961 8.50426 9.00461 8.91526L8.60111 12.5483L7.45211 9.48526C7.23161 8.90026 6.26561 8.90026 6.04661 9.48526L4.82711 12.7388L4.49261 10.3928C4.43411 9.98176 4.05011 9.69076 3.64361 9.75676C3.23411 9.81526 2.94911 10.1948 3.00761 10.6043L3.75761 15.8543C3.80561 16.1948 4.07861 16.4588 4.41911 16.4948C4.76711 16.5293 5.08211 16.3343 5.20211 16.0133L6.75011 11.8853L8.29811 16.0133C8.40911 16.3073 8.69111 16.4993 9.00011 16.4993C9.03161 16.4993 9.06161 16.4978 9.09311 16.4918C9.43661 16.4498 9.70661 16.1753 9.74561 15.8318L10.4956 9.08176C10.5406 8.67076 10.2451 8.30026 9.83261 8.25376Z" fill="#1B6AAB"/>
</svg>
