<svg width="24" height="24" viewBox="0 0 24 24" fill="none" xmlns="http://www.w3.org/2000/svg">
<g clip-path="url(#clip0)">
<path d="M12 5.20312C8.2522 5.20312 5.20312 8.2522 5.20312 12C5.20312 15.7478 8.2522 18.7969 12 18.7969C15.7478 18.7969 18.7969 15.7478 18.7969 12C18.7969 8.2522 15.7478 5.20312 12 5.20312ZM15.0469 16.4445C14.1795 17.0409 13.1299 17.3906 12 17.3906C10.8701 17.3906 9.8205 17.0409 8.95312 16.4445V16.2188C8.95312 15.0556 9.89939 14.1094 11.0625 14.1094H12.9375C14.1006 14.1094 15.0469 15.0556 15.0469 16.2188V16.4445ZM10.8281 11.5312V10.5938C10.8281 9.94758 11.3538 9.42188 12 9.42188C12.6462 9.42188 13.1719 9.94758 13.1719 10.5938V11.5312C13.1719 12.1774 12.6462 12.7031 12 12.7031C11.3538 12.7031 10.8281 12.1774 10.8281 11.5312ZM16.3113 15.2324C15.9996 14.1681 15.1976 13.3115 14.1669 12.9255C14.4267 12.5231 14.5781 12.0447 14.5781 11.5312V10.5938C14.5781 9.17217 13.4216 8.01562 12 8.01562C10.5784 8.01562 9.42188 9.17217 9.42188 10.5938V11.5312C9.42188 12.0447 9.57333 12.5231 9.83311 12.9255C8.80247 13.3115 8.00044 14.1681 7.68872 15.2324C7.01133 14.3311 6.60938 13.2117 6.60938 12C6.60938 9.02761 9.02761 6.60938 12 6.60938C14.9724 6.60938 17.3906 9.02761 17.3906 12C17.3906 13.2117 16.9887 14.3311 16.3113 15.2324Z" fill="#1B6AAB"/>
<path d="M23.4742 13.5161L22.0351 12.846C22.0635 12.5456 22.0771 12.2692 22.0771 12C22.0771 11.7308 22.0635 11.4544 22.0351 11.154L23.4742 10.4839C23.7964 10.3339 23.956 9.96717 23.8462 9.6292L22.9771 6.95438C22.8673 6.61636 22.5227 6.41334 22.1738 6.4815L20.6211 6.78427C20.3298 6.30567 19.9952 5.84817 19.6209 5.41669L20.3915 4.02844C20.564 3.7177 20.4775 3.32719 20.19 3.11831L17.9147 1.46517C17.6272 1.25639 17.2291 1.29478 16.9869 1.5548L15.9034 2.71805C15.3815 2.49783 14.8436 2.32252 14.2957 2.19417L14.1031 0.617766C14.0601 0.265125 13.7606 0 13.4052 0H10.5927C10.2374 0 9.93787 0.265125 9.89479 0.617859L9.70218 2.19427C9.15426 2.32261 8.61642 2.49787 8.09451 2.71814L7.01104 1.55484C6.76884 1.29478 6.37068 1.25644 6.08324 1.46522L3.80784 3.11831C3.52035 3.32719 3.43392 3.7177 3.60637 4.02844L4.37695 5.41669C4.0026 5.84817 3.66801 6.30567 3.37677 6.78427L1.82409 6.4815C1.4751 6.41334 1.13062 6.61641 1.02079 6.95438L0.151728 9.6292C0.0419 9.96717 0.201509 10.3339 0.523681 10.4839L1.96284 11.154C1.93443 11.4544 1.92084 11.7308 1.92084 12C1.92084 12.2692 1.93443 12.5456 1.96284 12.846L0.523681 13.5161C0.201509 13.6661 0.0419469 14.0328 0.151728 14.3708L1.02084 17.0456C1.13062 17.3836 1.4751 17.5865 1.82413 17.5185L3.37682 17.2157C3.6681 17.6943 4.0027 18.1518 4.37704 18.5833L3.60642 19.9716C3.43396 20.2823 3.5204 20.6728 3.80788 20.8817L6.08324 22.5348C6.37078 22.7437 6.76884 22.7052 7.01104 22.4452L8.09451 21.282C8.61642 21.5022 9.15431 21.6775 9.70218 21.8058L9.89479 23.3822C9.93787 23.7349 10.2374 24 10.5927 24H13.4052C13.7606 24 14.0601 23.7349 14.1031 23.3821L14.2957 21.8057C14.8437 21.6774 15.3815 21.5021 15.9034 21.2819L16.9869 22.4451C17.2291 22.7052 17.6272 22.7435 17.9147 22.5347L20.19 20.8816C20.4775 20.6727 20.564 20.2822 20.3915 19.9715L19.6209 18.5832C19.9953 18.1517 20.3299 17.6942 20.6211 17.2156L22.1738 17.5184C22.5226 17.5865 22.8673 17.3835 22.9771 17.0455L23.8462 14.3707C23.956 14.0328 23.7964 13.6661 23.4742 13.5161ZM21.832 16.0191L20.4027 15.7404C20.3995 15.7397 20.3962 15.7391 20.393 15.7385L20.3858 15.7371C20.0438 15.672 19.7125 15.8664 19.5952 16.1823C19.2364 16.8317 18.7853 17.4416 18.2535 17.9963C18.0478 18.2108 17.9992 18.5316 18.1321 18.7974C18.1367 18.8065 18.1414 18.8154 18.1462 18.8243L18.8599 20.1098L17.5917 21.0312L16.5916 19.9575C16.3817 19.729 16.0468 19.6652 15.7674 19.8003C15.0553 20.1451 14.3042 20.3897 13.5351 20.5274C13.2313 20.5818 12.9985 20.8279 12.961 21.1343L12.7828 22.5938H11.2152L11.0369 21.1343C10.9994 20.8279 10.7666 20.5818 10.4628 20.5274C9.69365 20.3897 8.94262 20.1451 8.23054 19.8003C7.95492 19.6669 7.62337 19.7285 7.41267 19.9507C7.41121 19.9522 7.40976 19.9538 7.40835 19.9553L6.40621 21.0312L5.13801 20.1098L5.84367 18.8386C5.9992 18.5737 5.96681 18.2282 5.74443 17.9963C5.21254 17.4416 4.76146 16.8317 4.40263 16.1823C4.28535 15.8665 3.95404 15.672 3.61209 15.7371L3.60487 15.7385C3.60163 15.7391 3.5984 15.7397 3.59517 15.7404L2.1659 16.0191L1.68149 14.5282L3.01448 13.9076C3.01757 13.9062 3.02277 13.9037 3.02587 13.9022C3.29976 13.7698 3.45745 13.4761 3.41652 13.1746C3.35549 12.7251 3.32709 12.3518 3.32709 12C3.32709 11.6482 3.35549 11.2749 3.41652 10.8253C3.45745 10.5238 3.2977 10.2292 3.02376 10.0968C3.02067 10.0953 3.01757 10.0938 3.01448 10.0923L1.68149 9.47175L2.1659 7.98084L3.59517 8.25956C3.59835 8.26022 3.60163 8.26083 3.60487 8.26148L3.61209 8.26284C3.9539 8.32809 4.28535 8.13352 4.40263 7.81763C4.76146 7.16822 5.21254 6.55833 5.74438 6.0037C5.95012 5.78916 5.99863 5.46834 5.86574 5.20252C5.8612 5.19347 5.85651 5.18452 5.85163 5.1757L5.13801 3.89016L6.40621 2.96878L7.40629 4.0425C7.6162 4.27097 7.95112 4.33477 8.23049 4.19967C8.94257 3.85491 9.69365 3.61027 10.4628 3.47259C10.7666 3.41822 10.9994 3.17208 11.0369 2.86575L11.2152 1.40625H12.7828L12.9611 2.86575C12.9985 3.17208 13.2314 3.41822 13.5352 3.47259C14.3043 3.61027 15.0553 3.85486 15.7674 4.19967C16.043 4.33308 16.3746 4.27148 16.5853 4.0493C16.5867 4.0478 16.5882 4.04625 16.5896 4.0447L17.5917 2.96878L18.8599 3.89016L18.1463 5.17575C18.1414 5.18456 18.1366 5.19361 18.1321 5.20266C17.9992 5.46848 18.0478 5.7892 18.2535 6.00375C18.7854 6.55837 19.2365 7.16827 19.5953 7.81767C19.7126 8.13356 20.044 8.32823 20.3858 8.26289L20.3931 8.26153C20.3963 8.26087 20.3995 8.26027 20.4028 8.25961L21.832 7.98089L22.3164 9.4718L20.9835 10.0924C20.703 10.2218 20.5399 10.5192 20.5814 10.8253C20.6424 11.2749 20.6708 11.6482 20.6708 12C20.6708 12.3518 20.6424 12.7251 20.5814 13.1747C20.5405 13.4762 20.7002 13.7708 20.9742 13.9032C20.9773 13.9047 20.9804 13.9062 20.9834 13.9077L22.3164 14.5282L21.832 16.0191Z" fill="#1B6AAB"/>
</g>
<defs>
<clipPath id="clip0">
<rect width="24" height="24" fill="white"/>
</clipPath>
</defs>
</svg>
