<svg width="24" height="24" viewBox="0 0 24 24" fill="none" xmlns="http://www.w3.org/2000/svg">
<path d="M12.0009 0C7.45998 0 3.76562 3.69435 3.76562 8.23529C3.76562 11.2239 5.36092 13.796 7.76562 15.2353V16.9412H6.35386V18.3529H7.76562V21.1765H9.17739V24H14.8244V21.1765H16.2362V18.3529H17.648V16.9412H16.2362V15.2353C18.6428 13.7949 20.2362 11.2216 20.2362 8.23529C20.2362 3.69435 16.5419 0 12.0009 0V0ZM13.4127 22.5882H10.5892V21.1765H13.4127V22.5882ZM14.8244 19.7647H9.17739V18.3529H14.8244V19.7647ZM9.17739 16.9412V15.5294H14.8244V16.9412H9.17739ZM9.9685 7.90579L11.295 6.24762V8.47059H12.7068V6.24762L14.0334 7.90579L12.9039 11.2941H11.098L9.9685 7.90579ZM11.295 12.7059H12.7068V14.1176H11.295V12.7059ZM15.3483 14.1176H14.1186V12.1146L15.6155 7.62362L12.0009 3.10532L8.38628 7.62362L9.88327 12.1146V14.1176H8.65358C6.50525 12.9076 5.17739 10.6695 5.17739 8.23529C5.17739 4.4728 8.23842 1.41176 12.0009 1.41176C15.7634 1.41176 18.8244 4.4728 18.8244 8.23529C18.8244 10.6695 17.4966 12.9076 15.3483 14.1176Z" fill="#1B6AAB"/>
<path d="M19.1797 1.62109L20.6769 0.123918L21.675 1.12204L20.1778 2.61921L19.1797 1.62109Z" fill="#1B6AAB"/>
<path d="M2.32422 15.8203L3.82136 14.3232L4.81948 15.3213L3.32234 16.8184L2.32422 15.8203Z" fill="#1B6AAB"/>
<path d="M21.8828 7.76562H24.0005V9.17739H21.8828V7.76562Z" fill="#1B6AAB"/>
<path d="M0 7.76562H2.11765V9.17739H0V7.76562Z" fill="#1B6AAB"/>
<path d="M19.1758 15.3223L20.1739 14.3241L21.671 15.8213L20.6729 16.8194L19.1758 15.3223Z" fill="#1B6AAB"/>
<path d="M2.32422 1.11914L3.32234 0.121022L4.81951 1.6182L3.82139 2.61632L2.32422 1.11914Z" fill="#1B6AAB"/>
</svg>
