<svg width="24" height="24" viewBox="0 0 24 24" fill="none" xmlns="http://www.w3.org/2000/svg">
<path d="M16.586 2.99964C16.9611 2.62469 17.4697 2.41406 18 2.41406C18.5303 2.41406 19.0389 2.62469 19.414 2.99964L21 4.58564C21.3749 4.96069 21.5856 5.46931 21.5856 5.99964C21.5856 6.52996 21.3749 7.03858 21 7.41364L13 15.4136C12.625 15.7887 12.1164 15.9995 11.586 15.9996H10C9.46957 15.9996 8.96086 15.7889 8.58579 15.4138C8.21071 15.0388 8 14.5301 8 13.9996V12.4136C8.00011 11.8832 8.2109 11.3746 8.586 10.9996L16.586 2.99964ZM16.414 5.99964L18 7.58564L19.586 5.99964L20.293 6.70664L18 4.41364L16.414 5.99964ZM16.586 8.99964L15 7.41364L10 12.4136V13.9996H11.586L16.586 8.99964ZM3 6.99964C3 6.20399 3.31607 5.44092 3.87868 4.87832C4.44129 4.31571 5.20435 3.99964 6 3.99964H9C9.26522 3.99964 9.51957 4.10499 9.70711 4.29253C9.89464 4.48007 10 4.73442 10 4.99964C10 5.26485 9.89464 5.51921 9.70711 5.70674C9.51957 5.89428 9.26522 5.99964 9 5.99964H6C5.73478 5.99964 5.48043 6.10499 5.29289 6.29253C5.10536 6.48007 5 6.73442 5 6.99964V17.9996C5 18.2649 5.10536 18.5192 5.29289 18.7067C5.48043 18.8943 5.73478 18.9996 6 18.9996H17C17.2652 18.9996 17.5196 18.8943 17.7071 18.7067C17.8946 18.5192 18 18.2649 18 17.9996V14.9996C18 14.7344 18.1054 14.4801 18.2929 14.2925C18.4804 14.105 18.7348 13.9996 19 13.9996C19.2652 13.9996 19.5196 14.105 19.7071 14.2925C19.8946 14.4801 20 14.7344 20 14.9996V17.9996C20 18.7953 19.6839 19.5583 19.1213 20.121C18.5587 20.6836 17.7956 20.9996 17 20.9996H6C5.20435 20.9996 4.44129 20.6836 3.87868 20.121C3.31607 19.5583 3 18.7953 3 17.9996V6.99964Z" fill="white"/>
</svg>
