<svg width="24" height="24" viewBox="0 0 24 24" fill="none" xmlns="http://www.w3.org/2000/svg">
<path d="M4.00033 9.07366H9.07366V4.00033H16.0003V9.58699H17.3337V4.00033C17.3337 3.6467 17.1932 3.30756 16.9431 3.05752C16.6931 2.80747 16.3539 2.66699 16.0003 2.66699H7.24699L2.66699 7.24699V20.0003C2.66699 20.3539 2.80747 20.6931 3.05752 20.9431C3.30756 21.1932 3.6467 21.3337 4.00033 21.3337H16.0003C16.3539 21.3337 16.6931 21.1932 16.9431 20.9431C17.1932 20.6931 17.3337 20.3539 17.3337 20.0003H4.00033V9.07366ZM4.00033 7.79366L7.79366 4.00033H8.00033V8.00033H4.00033V7.79366Z" fill="white"/>
<path d="M18.8797 10.8996C18.7521 10.7903 18.5881 10.7333 18.4203 10.7398C18.2525 10.7462 18.0934 10.8158 17.9746 10.9345C17.8559 11.0533 17.7863 11.2124 17.7799 11.3802C17.7734 11.548 17.8305 11.712 17.9397 11.8396L20.1063 13.9996H11.9997C11.8229 13.9996 11.6533 14.0698 11.5283 14.1948C11.4032 14.3198 11.333 14.4894 11.333 14.6662C11.333 14.843 11.4032 15.0126 11.5283 15.1376C11.6533 15.2627 11.8229 15.3329 11.9997 15.3329H20.1263L17.9397 17.5196C17.8699 17.5793 17.8132 17.6529 17.7732 17.7356C17.7332 17.8183 17.7107 17.9084 17.7071 18.0002C17.7036 18.092 17.7191 18.1836 17.7526 18.2691C17.7861 18.3547 17.8369 18.4324 17.9019 18.4973C17.9669 18.5623 18.0446 18.6131 18.1301 18.6467C18.2157 18.6802 18.3072 18.6956 18.399 18.6921C18.4909 18.6885 18.5809 18.6661 18.6637 18.626C18.7464 18.586 18.8199 18.5294 18.8797 18.4596L22.6663 14.6662L18.8797 10.8996Z" fill="white"/>
</svg>
