<svg width="100" height="100" viewBox="0 0 100 100" fill="none" xmlns="http://www.w3.org/2000/svg">
<g filter="url(#filter0_ddd)">
<circle cx="50" cy="49" r="40" fill="white"/>
</g>
<g clip-path="url(#clip0)">
<path fill-rule="evenodd" clip-rule="evenodd" d="M69.75 28.125H32.25C31.4212 28.125 30.6263 28.4542 30.0403 29.0403C29.4542 29.6263 29.125 30.4212 29.125 31.25V68.75C29.125 69.5788 29.4542 70.3737 30.0403 70.9597C30.6263 71.5458 31.4212 71.875 32.25 71.875H69.75C70.5788 71.875 71.3737 71.5458 71.9597 70.9597C72.5458 70.3737 72.875 69.5788 72.875 68.75V31.25C72.875 30.4212 72.5458 29.6263 71.9597 29.0403C71.3737 28.4542 70.5788 28.125 69.75 28.125ZM32.25 25C30.5924 25 29.0027 25.6585 27.8306 26.8306C26.6585 28.0027 26 29.5924 26 31.25V68.75C26 70.4076 26.6585 71.9973 27.8306 73.1694C29.0027 74.3415 30.5924 75 32.25 75H69.75C71.4076 75 72.9973 74.3415 74.1694 73.1694C75.3415 71.9973 76 70.4076 76 68.75V31.25C76 29.5924 75.3415 28.0027 74.1694 26.8306C72.9973 25.6585 71.4076 25 69.75 25H32.25Z" fill="#1B6AAB"/>
<path d="M43.1875 62.5C43.1875 63.7432 42.6936 64.9355 41.8146 65.8146C40.9355 66.6936 39.7432 67.1875 38.5 67.1875C37.2568 67.1875 36.0645 66.6936 35.1854 65.8146C34.3064 64.9355 33.8125 63.7432 33.8125 62.5C33.8125 61.2568 34.3064 60.0645 35.1854 59.1854C36.0645 58.3064 37.2568 57.8125 38.5 57.8125C39.7432 57.8125 40.9355 58.3064 41.8146 59.1854C42.6936 60.0645 43.1875 61.2568 43.1875 62.5Z" fill="#1B6AAB"/>
<path fill-rule="evenodd" clip-rule="evenodd" d="M33.8125 35.9375C33.8125 35.1087 34.1417 34.3138 34.7278 33.7278C35.3138 33.1417 36.1087 32.8125 36.9375 32.8125C54.1969 32.8125 68.1875 46.8031 68.1875 64.0625C68.1875 64.8913 67.8583 65.6862 67.2722 66.2722C66.6862 66.8583 65.8913 67.1875 65.0625 67.1875C64.2337 67.1875 63.4388 66.8583 62.8528 66.2722C62.2667 65.6862 61.9375 64.8913 61.9375 64.0625C61.9375 57.4321 59.3036 51.0732 54.6152 46.3848C49.9268 41.6964 43.5679 39.0625 36.9375 39.0625C36.1087 39.0625 35.3138 38.7333 34.7278 38.1472C34.1417 37.5612 33.8125 36.7663 33.8125 35.9375ZM33.8125 48.4375C33.8125 47.6087 34.1417 46.8138 34.7278 46.2278C35.3138 45.6417 36.1087 45.3125 36.9375 45.3125C41.9103 45.3125 46.6794 47.2879 50.1958 50.8042C53.7121 54.3206 55.6875 59.0897 55.6875 64.0625C55.6875 64.8913 55.3583 65.6862 54.7722 66.2722C54.1862 66.8583 53.3913 67.1875 52.5625 67.1875C51.7337 67.1875 50.9388 66.8583 50.3528 66.2722C49.7667 65.6862 49.4375 64.8913 49.4375 64.0625C49.4375 60.7473 48.1205 57.5679 45.7763 55.2237C43.4321 52.8795 40.2527 51.5625 36.9375 51.5625C36.1087 51.5625 35.3138 51.2333 34.7278 50.6472C34.1417 50.0612 33.8125 49.2663 33.8125 48.4375Z" fill="#1B6AAB"/>
</g>
<defs>
<filter id="filter0_ddd" x="0" y="0" width="100" height="100" filterUnits="userSpaceOnUse" color-interpolation-filters="sRGB">
<feFlood flood-opacity="0" result="BackgroundImageFix"/>
<feColorMatrix in="SourceAlpha" type="matrix" values="0 0 0 0 0 0 0 0 0 0 0 0 0 0 0 0 0 0 127 0"/>
<feOffset dy="2"/>
<feGaussianBlur stdDeviation="2"/>
<feColorMatrix type="matrix" values="0 0 0 0 0 0 0 0 0 0 0 0 0 0 0 0 0 0 0.2 0"/>
<feBlend mode="normal" in2="BackgroundImageFix" result="effect1_dropShadow"/>
<feColorMatrix in="SourceAlpha" type="matrix" values="0 0 0 0 0 0 0 0 0 0 0 0 0 0 0 0 0 0 127 0"/>
<feOffset dy="1"/>
<feGaussianBlur stdDeviation="5"/>
<feColorMatrix type="matrix" values="0 0 0 0 0 0 0 0 0 0 0 0 0 0 0 0 0 0 0.12 0"/>
<feBlend mode="normal" in2="effect1_dropShadow" result="effect2_dropShadow"/>
<feColorMatrix in="SourceAlpha" type="matrix" values="0 0 0 0 0 0 0 0 0 0 0 0 0 0 0 0 0 0 127 0"/>
<feOffset dy="4"/>
<feGaussianBlur stdDeviation="2.5"/>
<feColorMatrix type="matrix" values="0 0 0 0 0 0 0 0 0 0 0 0 0 0 0 0 0 0 0.14 0"/>
<feBlend mode="normal" in2="effect2_dropShadow" result="effect3_dropShadow"/>
<feBlend mode="normal" in="SourceGraphic" in2="effect3_dropShadow" result="shape"/>
</filter>
<clipPath id="clip0">
<rect width="50" height="50" fill="white" transform="translate(26 25)"/>
</clipPath>
</defs>
</svg>
