<svg width="25" height="25" viewBox="0 0 25 25" fill="none" xmlns="http://www.w3.org/2000/svg">
<circle cx="12.5" cy="12.5" r="12.5" fill="white"/>
<g clip-path="url(#clip0)">
<path d="M12.0274 6.48694V11.766L8.71124 10.108L4.41406 12.2388V20.5883H20.5884V6.48587L16.2912 4.41187L12.0274 6.48694ZM9.18421 19.6406H8.2365V18.6929H9.18421V19.6406ZM10.1319 19.6406V17.7452H7.28879V19.6406H5.36177V12.8267L8.70947 11.1667L12.0274 12.8257V19.6406H10.1319ZM16.7659 19.6406H15.8182V18.6929H16.7659V19.6406ZM19.6406 7.08078V19.6406H17.7136V17.7452H14.8705V19.6406H12.9751V7.07971L16.2929 5.46503L19.6406 7.08078Z" fill="#185DA0"/>
<path d="M13.9219 8.26807H14.8696V9.21578H13.9219V8.26807Z" fill="#185DA0"/>
<path d="M17.7129 8.26807H18.6606V9.21578H17.7129V8.26807Z" fill="#185DA0"/>
<path d="M15.8184 8.26807H16.7661V9.21578H15.8184V8.26807Z" fill="#185DA0"/>
<path d="M13.9219 10.1636H14.8696V11.1113H13.9219V10.1636Z" fill="#185DA0"/>
<path d="M15.8184 10.1636H16.7661V11.1113H15.8184V10.1636Z" fill="#185DA0"/>
<path d="M17.7129 10.1636H18.6606V11.1113H17.7129V10.1636Z" fill="#185DA0"/>
<path d="M13.9219 12.0588H14.8696V13.0065H13.9219V12.0588Z" fill="#185DA0"/>
<path d="M17.7129 12.0588H18.6606V13.0065H17.7129V12.0588Z" fill="#185DA0"/>
<path d="M15.8184 12.0588H16.7661V13.0065H15.8184V12.0588Z" fill="#185DA0"/>
<path d="M13.9219 13.9543H14.8696V14.902H13.9219V13.9543Z" fill="#185DA0"/>
<path d="M15.8184 13.9543H16.7661V14.902H15.8184V13.9543Z" fill="#185DA0"/>
<path d="M17.7129 13.9543H18.6606V14.902H17.7129V13.9543Z" fill="#185DA0"/>
<path d="M13.9219 15.8499H14.8696V16.7976H13.9219V15.8499Z" fill="#185DA0"/>
<path d="M17.7129 15.8499H18.6606V16.7976H17.7129V15.8499Z" fill="#185DA0"/>
<path d="M15.8184 15.8499H16.7661V16.7976H15.8184V15.8499Z" fill="#185DA0"/>
<path d="M6.33984 13.9543H7.28755V14.902H6.33984V13.9543Z" fill="#185DA0"/>
<path d="M8.23633 13.9543H9.18404V14.902H8.23633V13.9543Z" fill="#185DA0"/>
<path d="M10.1309 13.9543H11.0786V14.902H10.1309V13.9543Z" fill="#185DA0"/>
<path d="M6.33984 15.8499H7.28755V16.7976H6.33984V15.8499Z" fill="#185DA0"/>
<path d="M10.1309 15.8499H11.0786V16.7976H10.1309V15.8499Z" fill="#185DA0"/>
<path d="M8.23633 15.8499H9.18404V16.7976H8.23633V15.8499Z" fill="#185DA0"/>
</g>
<defs>
<clipPath id="clip0">
<rect width="16.1765" height="16.1765" fill="white" transform="translate(4.41211 4.41187)"/>
</clipPath>
</defs>
</svg>
