<svg width="24" height="24" viewBox="0 0 24 24" fill="none" xmlns="http://www.w3.org/2000/svg">
<path d="M4.77749 3.49821C4.74456 3.46109 4.70459 3.43087 4.65989 3.40931C4.6152 3.38775 4.56667 3.37528 4.51711 3.37261C4.46756 3.36995 4.41797 3.37714 4.37122 3.39378C4.32447 3.41042 4.28149 3.43618 4.24476 3.46955C4.20804 3.50293 4.1783 3.54326 4.15728 3.58821C4.13626 3.63316 4.12437 3.68184 4.1223 3.73142C4.12022 3.781 4.12801 3.8305 4.14521 3.87704C4.16241 3.92359 4.18868 3.96626 4.22249 4.00259L6.33627 6.32777C2.75005 8.33946 1.22287 11.7006 1.15734 11.8481C1.13602 11.8961 1.125 11.948 1.125 12.0004C1.125 12.0529 1.13602 12.1048 1.15734 12.1527C1.18912 12.2242 1.95534 13.9233 3.67237 15.6401C5.26209 17.2298 7.99743 19.1246 12 19.1246C13.719 19.1359 15.4187 18.7615 16.9739 18.0292L19.2225 20.5026C19.2554 20.5397 19.2954 20.5699 19.3401 20.5915C19.3848 20.613 19.4333 20.6255 19.4829 20.6282C19.5324 20.6308 19.582 20.6237 19.6288 20.607C19.6755 20.5904 19.7185 20.5646 19.7552 20.5312C19.7919 20.4979 19.8217 20.4575 19.8427 20.4126C19.8637 20.3676 19.8756 20.319 19.8777 20.2694C19.8798 20.2198 19.872 20.1703 19.8548 20.1238C19.8376 20.0772 19.8113 20.0345 19.7775 19.9982L4.77749 3.49821ZM13.9783 14.7341C13.3059 15.2209 12.4777 15.4429 11.6519 15.3574C10.8262 15.272 10.0609 14.8851 9.50251 14.2709C8.94409 13.6566 8.63171 12.858 8.62512 12.0279C8.61853 11.1978 8.91818 10.3944 9.46677 9.7713L13.9783 14.7341ZM12 18.3746C9.00215 18.3746 6.3853 17.2827 4.22212 15.1293C3.29776 14.2106 2.52014 13.1553 1.91652 12.0003C2.25824 11.323 3.79949 8.5503 6.85471 6.89805L8.96005 9.21396C8.26463 9.97243 7.87785 10.9635 7.87567 11.9925C7.87348 13.0215 8.25605 14.0142 8.94826 14.7756C9.64046 15.537 10.5923 16.0122 11.6169 16.1078C12.6415 16.2033 13.6648 15.9125 14.4859 15.2922L16.4446 17.4469C15.0457 18.068 13.5306 18.3842 12 18.3746ZM22.8426 12.1527C22.8046 12.2382 21.8871 14.27 19.8073 16.1328C19.7706 16.1657 19.7278 16.191 19.6813 16.2073C19.6349 16.2236 19.5856 16.2306 19.5365 16.2279C19.4873 16.2252 19.4391 16.2128 19.3947 16.1915C19.3503 16.1702 19.3106 16.1403 19.2777 16.1036C19.2449 16.067 19.2195 16.0242 19.2032 15.9777C19.1869 15.9312 19.1799 15.882 19.1826 15.8328C19.1853 15.7836 19.1977 15.7355 19.219 15.6911C19.2403 15.6467 19.2702 15.6069 19.3069 15.5741C20.4375 14.5574 21.3777 13.3472 22.0835 12.0004C21.4798 10.8452 20.7021 9.78968 19.7778 8.87074C17.6146 6.71665 14.9978 5.62465 12 5.62465C11.3711 5.62385 10.7433 5.67496 10.1228 5.77746C10.0253 5.79264 9.92568 5.76874 9.84565 5.71094C9.76561 5.65315 9.71159 5.56612 9.69531 5.46875C9.67903 5.37138 9.70181 5.27152 9.7587 5.19083C9.81559 5.11014 9.902 5.05515 9.99918 5.03777C10.6605 4.92838 11.3297 4.87378 12 4.87455C16.0026 4.87455 18.7379 6.7698 20.3276 8.3598C22.0447 10.0769 22.8109 11.7765 22.8426 11.8481C22.864 11.896 22.875 11.9479 22.875 12.0004C22.875 12.0528 22.864 12.1047 22.8426 12.1526V12.1527ZM12.6356 8.68512C12.5379 8.66652 12.4516 8.60986 12.3956 8.52762C12.3397 8.44537 12.3187 8.34427 12.3373 8.24655C12.3559 8.14884 12.4126 8.06251 12.4948 8.00657C12.577 7.95062 12.6782 7.92964 12.7759 7.94824C13.6519 8.11836 14.4496 8.56705 15.0499 9.22741C15.6502 9.88778 16.021 10.7245 16.1071 11.6127C16.1117 11.6618 16.1066 11.7112 16.092 11.7583C16.0775 11.8053 16.0538 11.849 16.0224 11.8869C15.991 11.9248 15.9524 11.9562 15.9089 11.9792C15.8653 12.0022 15.8177 12.0164 15.7686 12.0209C15.7569 12.022 15.745 12.0226 15.7332 12.0226C15.6399 12.0225 15.55 11.9876 15.481 11.9247C15.4121 11.8618 15.369 11.7754 15.3604 11.6825C15.29 10.9559 14.9867 10.2715 14.4957 9.73138C14.0047 9.19123 13.3522 8.82424 12.6356 8.68512Z" fill="black"/>
</svg>
