<svg width="24" height="24" viewBox="0 0 24 24" fill="none" xmlns="http://www.w3.org/2000/svg">
<path d="M20.7075 14.704C20.5923 13.9036 19.9743 13.2796 19.1787 13.0936C16.0863 12.3688 15.3111 10.588 15.1803 8.61279C14.6319 8.51079 13.6563 8.40039 12.0003 8.40039C10.3443 8.40039 9.36868 8.51079 8.82028 8.61279C8.68948 10.588 7.91428 12.3688 4.82188 13.0936C4.02628 13.2808 3.40828 13.9036 3.29308 14.704L2.69668 18.8344C2.48668 20.2888 3.55468 21.6004 5.04028 21.6004H18.9603C20.4447 21.6004 21.5139 20.2888 21.3039 18.8344L20.7075 14.704ZM12.0003 18.5908C10.3263 18.5908 8.96908 17.2468 8.96908 15.5908C8.96908 13.9348 10.3263 12.5908 12.0003 12.5908C13.6743 12.5908 15.0315 13.9348 15.0315 15.5908C15.0315 17.2468 13.6731 18.5908 12.0003 18.5908ZM23.9403 7.20039C23.9115 5.40039 19.3299 2.40159 12.0003 2.40039C4.66948 2.40159 0.0878785 5.40039 0.0602785 7.20039C0.0326785 9.00039 0.0854786 11.3428 3.10228 10.9528C6.63148 10.4956 6.41428 9.26319 6.41428 7.50159C6.41428 6.27279 9.28468 5.97639 12.0003 5.97639C14.7159 5.97639 17.5851 6.27279 17.5863 7.50159C17.5863 9.26319 17.3691 10.4956 20.8983 10.9528C23.9139 11.3428 23.9679 9.00039 23.9403 7.20039Z" fill="#F89923"/>
</svg>
