<svg width="25" height="25" viewBox="0 0 25 25" fill="none" xmlns="http://www.w3.org/2000/svg">
<circle cx="12.5" cy="12.5" r="12.5" fill="white"/>
<path d="M13.5208 15.2061L13.5208 15.2061L14.2498 14.4772L14.3205 14.5479L14.2498 14.4772C14.6517 14.0753 15.2761 13.9928 15.7686 14.2763L19.4692 16.407C19.8113 16.6039 20.0375 16.9419 20.0893 17.3332C20.141 17.7245 20.0104 18.1097 19.7313 18.3888L19.6606 18.3181L19.7313 18.3888L18.633 19.4872L18.5623 19.4165L18.633 19.4872C18.2203 19.8999 17.6388 20.1005 16.9367 20.1005C16.2569 20.1005 15.4589 19.9129 14.5752 19.5434C12.849 18.8215 10.9547 17.4774 9.23888 15.7616L9.3096 15.6909L9.23888 15.7616C7.52313 14.0458 6.17898 12.1515 5.45709 10.4252C4.71026 8.63935 4.69999 7.18082 5.5133 6.36748L5.58401 6.43819L5.5133 6.36748L6.61162 5.26913L6.61162 5.26912C6.89071 4.99003 7.2759 4.85927 7.66727 4.91115M13.5208 15.2061L6.68233 5.33984C6.93944 5.08273 7.29364 4.9625 7.65413 5.01028C8.01459 5.05797 8.32535 5.26603 8.50678 5.58113M13.5208 15.2061C13.3627 15.3642 13.1134 15.3779 12.9406 15.2388L12.9406 15.2388C12.3688 14.7788 11.8057 14.2723 11.267 13.7335L11.1962 13.8042L11.267 13.7335C10.7282 13.1947 10.2217 12.6317 9.76167 12.0599L9.76166 12.0599C9.6226 11.8871 9.63619 11.6377 9.79434 11.4796L9.79435 11.4796L10.5232 10.7507M13.5208 15.2061L10.5232 10.7507M7.66727 4.91115L7.65413 5.01028L7.66725 4.91115C7.66726 4.91115 7.66727 4.91115 7.66727 4.91115ZM7.66727 4.91115C8.05856 4.96293 8.39649 5.18919 8.59344 5.53124L8.50678 5.58113M8.50678 5.58113L8.59344 5.53124L10.7241 9.23191C11.0077 9.72444 10.9251 10.3488 10.5232 10.7507M8.50678 5.58113L10.6375 9.28181C10.8985 9.73515 10.8224 10.3101 10.4525 10.68L10.5232 10.7507M19.4093 17.4232L19.4093 17.4232C19.4251 17.543 19.4035 17.6609 19.3492 17.764L14.6277 15.0694L14.7348 14.9623C14.9177 14.7794 15.2022 14.7418 15.4263 14.8708L19.127 17.0015L19.1769 16.9148L19.127 17.0015C19.283 17.0913 19.3857 17.2446 19.4093 17.4232ZM7.57725 5.59121L7.57726 5.59121C7.75581 5.61483 7.90911 5.71747 7.99894 5.87352L7.99894 5.87353L10.1296 9.5742L10.1297 9.57421C10.2587 9.79831 10.2211 10.0828 10.0382 10.2656L10.0382 10.2656L9.947 10.3568L7.23765 5.65114C7.31843 5.6086 7.408 5.58611 7.50034 5.58611C7.52577 5.58611 7.55148 5.5878 7.57725 5.59121ZM6.08996 10.1606L5.99836 10.1989L6.08995 10.1606C5.7662 9.38646 5.60079 8.69713 5.58919 8.13079C5.57758 7.56402 5.71977 7.13111 5.99837 6.85251L6.72145 6.12939L9.44465 10.8592L9.30928 10.9946L9.30928 10.9946C8.90348 11.4004 8.86794 12.0434 9.22721 12.49L9.22721 12.49C9.70285 13.0811 10.2259 13.6626 10.7819 14.2186L10.8526 14.1479L10.7819 14.2186C11.3379 14.7745 11.9194 15.2976 12.5105 15.7732L12.5732 15.6953L12.5105 15.7732C12.957 16.1325 13.6 16.097 14.0059 15.6911L13.9352 15.6204L14.0059 15.6911L14.1249 15.5722L18.8698 18.2802L18.1479 19.0021C17.8693 19.2807 17.4364 19.4229 16.8697 19.4113C16.3033 19.3997 15.614 19.2342 14.8399 18.9105L14.8013 19.0028L14.8399 18.9105C13.2008 18.2251 11.3831 16.9356 9.72398 15.2765C8.06487 13.6174 6.77538 11.7997 6.08996 10.1606Z" fill="#185DA0" stroke="#185DA0" stroke-width="0.2"/>
</svg>
