<svg width="25" height="25" viewBox="0 0 25 25" fill="none" xmlns="http://www.w3.org/2000/svg">
<circle cx="12.5" cy="12.5" r="12.5" fill="white"/>
<path d="M19.5938 7.375H6.40625C5.63084 7.375 5 8.00584 5 8.78125V17.2188C5 17.9942 5.63084 18.625 6.40625 18.625H19.5938C20.3692 18.625 21 17.9942 21 17.2188V8.78125C21 8.00584 20.3692 7.375 19.5938 7.375ZM18.0698 8.3125L13 13.3568L7.93016 8.3125H18.0698ZM6.84375 17.6875H6.40625C6.14778 17.6875 5.9375 17.4772 5.9375 17.2188V10.2971L6.84375 11.1898V17.6875ZM18.1562 17.6875H7.75V12.1225L11.3427 15.675C11.7844 16.1173 12.373 16.3609 13 16.3609C13.627 16.3609 14.2156 16.1173 14.6563 15.676L18.1562 12.2027V17.6875ZM20.0625 17.2188C20.0625 17.4772 19.8522 17.6875 19.5938 17.6875H19.0938V11.2699L20.0625 10.2971V17.2188ZM20.0625 8.97459L13.994 15.0125C13.7294 15.2775 13.3764 15.4234 13 15.4234C12.6236 15.4234 12.2706 15.2775 12.0049 15.0115L5.9375 8.97459V8.78125C5.9375 8.52278 6.14778 8.3125 6.40625 8.3125H6.60097L13 14.6793L19.399 8.3125H19.5938C19.8522 8.3125 20.0625 8.52278 20.0625 8.78125V8.97459Z" fill="#185DA0"/>
</svg>
