<svg width="25" height="25" viewBox="0 0 25 25" fill="none" xmlns="http://www.w3.org/2000/svg">
<circle cx="12.5" cy="12.5" r="12.5" fill="white"/>
<g clip-path="url(#clip0)">
<path d="M12.0234 6.48719V11.7663L8.70734 10.1082L4.41016 12.2391V20.5886H20.5844V6.48611L16.2873 4.41211L12.0234 6.48719ZM9.18031 19.6409H8.2326V18.6932H9.18031V19.6409ZM10.128 19.6409V17.7454H7.28488V19.6409H5.35787V12.827L8.70557 11.167L12.0234 12.8259V19.6409H10.128ZM16.762 19.6409H15.8143V18.6932H16.762V19.6409ZM19.6367 7.08103V19.6409H17.7097V17.7454H14.8666V19.6409H12.9712V7.07995L16.289 5.46527L19.6367 7.08103Z" fill="#185DA0"/>
<path d="M13.918 8.26855H14.8657V9.21627H13.918V8.26855Z" fill="#185DA0"/>
<path d="M17.707 8.26855H18.6547V9.21627H17.707V8.26855Z" fill="#185DA0"/>
<path d="M15.8125 8.26855H16.7602V9.21627H15.8125V8.26855Z" fill="#185DA0"/>
<path d="M13.918 10.1641H14.8657V11.1118H13.918V10.1641Z" fill="#185DA0"/>
<path d="M15.8125 10.1641H16.7602V11.1118H15.8125V10.1641Z" fill="#185DA0"/>
<path d="M17.707 10.1641H18.6547V11.1118H17.707V10.1641Z" fill="#185DA0"/>
<path d="M13.918 12.0596H14.8657V13.0073H13.918V12.0596Z" fill="#185DA0"/>
<path d="M17.707 12.0596H18.6547V13.0073H17.707V12.0596Z" fill="#185DA0"/>
<path d="M15.8125 12.0596H16.7602V13.0073H15.8125V12.0596Z" fill="#185DA0"/>
<path d="M13.918 13.9541H14.8657V14.9018H13.918V13.9541Z" fill="#185DA0"/>
<path d="M15.8125 13.9541H16.7602V14.9018H15.8125V13.9541Z" fill="#185DA0"/>
<path d="M17.707 13.9541H18.6547V14.9018H17.707V13.9541Z" fill="#185DA0"/>
<path d="M13.918 15.8496H14.8657V16.7973H13.918V15.8496Z" fill="#185DA0"/>
<path d="M17.707 15.8496H18.6547V16.7973H17.707V15.8496Z" fill="#185DA0"/>
<path d="M15.8125 15.8496H16.7602V16.7973H15.8125V15.8496Z" fill="#185DA0"/>
<path d="M6.33594 13.9541H7.28365V14.9018H6.33594V13.9541Z" fill="#185DA0"/>
<path d="M8.23047 13.9541H9.17818V14.9018H8.23047V13.9541Z" fill="#185DA0"/>
<path d="M10.1289 13.9541H11.0766V14.9018H10.1289V13.9541Z" fill="#185DA0"/>
<path d="M6.33594 15.8496H7.28365V16.7973H6.33594V15.8496Z" fill="#185DA0"/>
<path d="M10.1289 15.8496H11.0766V16.7973H10.1289V15.8496Z" fill="#185DA0"/>
<path d="M8.23047 15.8496H9.17818V16.7973H8.23047V15.8496Z" fill="#185DA0"/>
</g>
<defs>
<clipPath id="clip0">
<rect width="16.1765" height="16.1765" fill="white" transform="translate(4.41016 4.41211)"/>
</clipPath>
</defs>
</svg>
