<svg width="24" height="24" viewBox="0 0 24 24" fill="none" xmlns="http://www.w3.org/2000/svg">
<path d="M11.25 10.5V13.5H8.25V10.5H11.25Z" fill="black" fill-opacity="0.7"/>
<path d="M11.25 18V15H8.25V18H11.25Z" fill="black" fill-opacity="0.7"/>
<path d="M15.75 10.5V13.5H12.75V10.5H15.75Z" fill="black" fill-opacity="0.7"/>
<path d="M15.75 18V15H12.75V18H15.75Z" fill="black" fill-opacity="0.7"/>
<path d="M7.5 7.5V5.25C7.5 4.65326 7.73705 4.08097 8.15901 3.65901C8.58097 3.23705 9.15326 3 9.75 3H14.25C14.8467 3 15.419 3.23705 15.841 3.65901C16.2629 4.08097 16.5 4.65326 16.5 5.25V7.5H20.25C20.4489 7.5 20.6397 7.57902 20.7803 7.71967C20.921 7.86032 21 8.05109 21 8.25V18C21 18.7956 20.6839 19.5587 20.1213 20.1213C19.5587 20.6839 18.7956 21 18 21H6C5.20435 21 4.44129 20.6839 3.87868 20.1213C3.31607 19.5587 3 18.7956 3 18V8.25C3 8.05109 3.07902 7.86032 3.21967 7.71967C3.36032 7.57902 3.55109 7.5 3.75 7.5H7.5ZM9 5.25V7.5H15V5.25C15 5.05109 14.921 4.86032 14.7803 4.71967C14.6397 4.57902 14.4489 4.5 14.25 4.5H9.75C9.55109 4.5 9.36032 4.57902 9.21967 4.71967C9.07902 4.86032 9 5.05109 9 5.25ZM4.5 18C4.5 18.3978 4.65804 18.7794 4.93934 19.0607C5.22064 19.342 5.60218 19.5 6 19.5H18C18.3978 19.5 18.7794 19.342 19.0607 19.0607C19.342 18.7794 19.5 18.3978 19.5 18V9H4.5V18Z" fill="black" fill-opacity="0.7"/>
</svg>
