<svg width="24" height="24" viewBox="0 0 24 24" fill="none" xmlns="http://www.w3.org/2000/svg">
<path d="M13.25 8.5C13.0511 8.5 12.8603 8.57902 12.7197 8.71967C12.579 8.86032 12.5 9.05109 12.5 9.25C12.5 9.44891 12.579 9.63968 12.7197 9.78033C12.8603 9.92098 13.0511 10 13.25 10H16.75C16.9489 10 17.1397 9.92098 17.2803 9.78033C17.421 9.63968 17.5 9.44891 17.5 9.25C17.5 9.05109 17.421 8.86032 17.2803 8.71967C17.1397 8.57902 16.9489 8.5 16.75 8.5H13.25ZM12.5 14.75C12.5 14.5511 12.579 14.3603 12.7197 14.2197C12.8603 14.079 13.0511 14 13.25 14H16.75C16.9489 14 17.1397 14.079 17.2803 14.2197C17.421 14.3603 17.5 14.5511 17.5 14.75C17.5 14.9489 17.421 15.1397 17.2803 15.2803C17.1397 15.421 16.9489 15.5 16.75 15.5H13.25C13.0511 15.5 12.8603 15.421 12.7197 15.2803C12.579 15.1397 12.5 14.9489 12.5 14.75ZM10.78 7.72C10.9205 7.86063 10.9993 8.05125 10.9993 8.25C10.9993 8.44875 10.9205 8.63937 10.78 8.78L8.78 10.78C8.63937 10.9205 8.44875 10.9993 8.25 10.9993C8.05125 10.9993 7.86063 10.9205 7.72 10.78L6.72 9.78C6.58752 9.63783 6.5154 9.44978 6.51883 9.25548C6.52225 9.06118 6.60097 8.87579 6.73838 8.73838C6.87579 8.60097 7.06118 8.52225 7.25548 8.51882C7.44978 8.5154 7.63783 8.58752 7.78 8.72L8.25 9.19L9.72 7.72C9.86063 7.57955 10.0512 7.50066 10.25 7.50066C10.4488 7.50066 10.6394 7.57955 10.78 7.72ZM10.78 14.28C10.8537 14.2113 10.9128 14.1285 10.9538 14.0365C10.9948 13.9445 11.0168 13.8452 11.0186 13.7445C11.0204 13.6438 11.0018 13.5438 10.9641 13.4504C10.9264 13.357 10.8703 13.2722 10.799 13.201C10.7278 13.1297 10.643 13.0736 10.5496 13.0359C10.4562 12.9982 10.3562 12.9796 10.2555 12.9814C10.1548 12.9832 10.0555 13.0052 9.96346 13.0462C9.87146 13.0872 9.78866 13.1463 9.72 13.22L8.25 14.69L7.78 14.22C7.63783 14.0875 7.44978 14.0154 7.25548 14.0188C7.06118 14.0223 6.87579 14.101 6.73838 14.2384C6.60097 14.3758 6.52225 14.5612 6.51883 14.7555C6.5154 14.9498 6.58752 15.1378 6.72 15.28L7.72 16.28C7.86063 16.4205 8.05125 16.4993 8.25 16.4993C8.44875 16.4993 8.63937 16.4205 8.78 16.28L10.78 14.28ZM5.25 3C4.65326 3 4.08097 3.23705 3.65901 3.65901C3.23705 4.08097 3 4.65326 3 5.25V18.75C3 19.3467 3.23705 19.919 3.65901 20.341C4.08097 20.7629 4.65326 21 5.25 21H18.75C19.3467 21 19.919 20.7629 20.341 20.341C20.7629 19.919 21 19.3467 21 18.75V5.25C21 4.65326 20.7629 4.08097 20.341 3.65901C19.919 3.23705 19.3467 3 18.75 3H5.25ZM4.5 5.25C4.5 5.05109 4.57902 4.86032 4.71967 4.71967C4.86032 4.57902 5.05109 4.5 5.25 4.5H18.75C18.9489 4.5 19.1397 4.57902 19.2803 4.71967C19.421 4.86032 19.5 5.05109 19.5 5.25V18.75C19.5 18.9489 19.421 19.1397 19.2803 19.2803C19.1397 19.421 18.9489 19.5 18.75 19.5H5.25C5.05109 19.5 4.86032 19.421 4.71967 19.2803C4.57902 19.1397 4.5 18.9489 4.5 18.75V5.25Z" fill="black" fill-opacity="0.7"/>
</svg>
