<svg width="24" height="24" viewBox="0 0 24 24" fill="none" xmlns="http://www.w3.org/2000/svg">
<g clip-path="url(#clip0)">
<path d="M21.75 21.0001H2.25001C1.0093 21.0001 0 19.9908 0 18.75V15C0 14.5855 0.335439 14.25 0.750005 14.25C1.99072 14.25 3.00002 13.2407 3.00002 12C3.00002 10.7593 1.99072 9.74999 0.750005 9.74999C0.335439 9.75004 0 9.4146 0 9.00004V5.25001C0 4.0093 1.0093 3 2.25001 3H21.75C22.9908 3 24 4.0093 24 5.25001V9.00004C24 9.4146 23.6646 9.75004 23.25 9.75004C22.0093 9.75004 21 10.7593 21 12.0001C21 13.2408 22.0093 14.2501 23.25 14.2501C23.6646 14.2501 24 14.5855 24 15.0001V18.7501C24 19.9908 22.9908 21.0001 21.75 21.0001ZM1.50001 15.6746V18.75C1.50001 19.1639 1.83621 19.5001 2.25001 19.5001H21.75C22.1638 19.5001 22.5 19.1639 22.5 18.75V15.6746C20.7906 15.326 19.5 13.8113 19.5 12C19.5 10.1887 20.7905 8.67409 22.5 8.32542V5.25001C22.5 4.83621 22.1638 4.50001 21.75 4.50001H2.25001C1.83621 4.50001 1.50001 4.83621 1.50001 5.25001V8.32547C3.20947 8.67409 4.50003 10.1887 4.50003 12.0001C4.50003 13.8114 3.20947 15.326 1.50001 15.6746Z" fill="black" fill-opacity="0.7"/>
<path d="M9.04883 17.7256L13.5472 5.72982L14.9517 6.2565L10.4533 18.2523L9.04883 17.7256Z" fill="black" fill-opacity="0.7"/>
<path d="M8.45216 12.2529C7.21145 12.2529 6.20215 11.2436 6.20215 10.0029C6.20215 8.76222 7.21145 7.75293 8.45216 7.75293C9.69288 7.75293 10.7022 8.76222 10.7022 10.0029C10.7022 11.2436 9.69288 12.2529 8.45216 12.2529ZM8.45216 9.25293C8.03835 9.25293 7.70216 9.58913 7.70216 10.0029C7.70216 10.4167 8.03835 10.7529 8.45216 10.7529C8.86597 10.7529 9.20217 10.4167 9.20217 10.0029C9.20217 9.58913 8.86597 9.25293 8.45216 9.25293Z" fill="black" fill-opacity="0.7"/>
<path d="M16.2041 16.9043C14.9634 16.9043 13.9541 15.895 13.9541 14.6543C13.9541 13.4136 14.9634 12.4043 16.2041 12.4043C17.4448 12.4043 18.4541 13.4136 18.4541 14.6543C18.4541 15.895 17.4448 16.9043 16.2041 16.9043ZM16.2041 13.9043C15.7903 13.9043 15.4541 14.2405 15.4541 14.6543C15.4541 15.0681 15.7903 15.4043 16.2041 15.4043C16.6179 15.4043 16.9541 15.0681 16.9541 14.6543C16.9541 14.2405 16.6179 13.9043 16.2041 13.9043Z" fill="black" fill-opacity="0.7"/>
</g>
<defs>
<clipPath id="clip0">
<rect width="24" height="24" fill="white"/>
</clipPath>
</defs>
</svg>
