<svg width="16" height="12" viewBox="0 0 16 12" fill="none" xmlns="http://www.w3.org/2000/svg">
<path d="M6 6C6.79565 6 7.55871 5.68393 8.12132 5.12132C8.68393 4.55871 9 3.79565 9 3C9 2.20435 8.68393 1.44129 8.12132 0.87868C7.55871 0.316071 6.79565 0 6 0C5.20435 0 4.44129 0.316071 3.87868 0.87868C3.31607 1.44129 3 2.20435 3 3C3 3.79565 3.31607 4.55871 3.87868 5.12132C4.44129 5.68393 5.20435 6 6 6ZM8 3C8 3.53043 7.78929 4.03914 7.41421 4.41421C7.03914 4.78929 6.53043 5 6 5C5.46957 5 4.96086 4.78929 4.58579 4.41421C4.21071 4.03914 4 3.53043 4 3C4 2.46957 4.21071 1.96086 4.58579 1.58579C4.96086 1.21071 5.46957 1 6 1C6.53043 1 7.03914 1.21071 7.41421 1.58579C7.78929 1.96086 8 2.46957 8 3ZM12 11C12 12 11 12 11 12H1C1 12 0 12 0 11C0 10 1 7 6 7C11 7 12 10 12 11ZM11 10.996C10.999 10.75 10.846 10.01 10.168 9.332C9.516 8.68 8.289 8 6 8C3.71 8 2.484 8.68 1.832 9.332C1.154 10.01 1.002 10.75 1 10.996H11Z" fill="black" fill-opacity="0.54"/>
<path fill-rule="evenodd" clip-rule="evenodd" d="M15.8546 3.14592C15.9012 3.19236 15.9381 3.24754 15.9633 3.30828C15.9886 3.36903 16.0015 3.43415 16.0015 3.49992C16.0015 3.56568 15.9886 3.63081 15.9633 3.69155C15.9381 3.7523 15.9012 3.80747 15.8546 3.85392L12.8546 6.85392C12.8082 6.90048 12.753 6.93742 12.6923 6.96263C12.6315 6.98784 12.5664 7.00081 12.5006 7.00081C12.4349 7.00081 12.3697 6.98784 12.309 6.96263C12.2483 6.93742 12.1931 6.90048 12.1466 6.85392L10.6466 5.35392C10.5527 5.26003 10.5 5.13269 10.5 4.99992C10.5 4.86714 10.5527 4.7398 10.6466 4.64592C10.7405 4.55203 10.8679 4.49929 11.0006 4.49929C11.1334 4.49929 11.2607 4.55203 11.3546 4.64592L12.5006 5.79292L15.1466 3.14592C15.1931 3.09935 15.2483 3.06241 15.309 3.0372C15.3697 3.012 15.4349 2.99902 15.5006 2.99902C15.5664 2.99902 15.6315 3.012 15.6923 3.0372C15.753 3.06241 15.8082 3.09935 15.8546 3.14592Z" fill="black" fill-opacity="0.54"/>
</svg>
