<svg width="19" height="19" viewBox="0 0 19 19" fill="none" xmlns="http://www.w3.org/2000/svg">
<path d="M13.586 0.999635C13.9611 0.624693 14.4697 0.414063 15 0.414062C15.5303 0.414062 16.0389 0.624693 16.414 0.999635L18 2.58564C18.3749 2.96069 18.5856 3.46931 18.5856 3.99964C18.5856 4.52996 18.3749 5.03858 18 5.41364L10 13.4136C9.62501 13.7887 9.11639 13.9995 8.586 13.9996H7C6.46957 13.9996 5.96086 13.7889 5.58579 13.4138C5.21071 13.0388 5 12.5301 5 11.9996V10.4136C5.00011 9.88325 5.2109 9.37462 5.586 8.99964L13.586 0.999635ZM13.414 3.99964L15 5.58564L16.586 3.99964L17.293 4.70664L15 2.41364L13.414 3.99964ZM13.586 6.99964L12 5.41364L7 10.4136V11.9996H8.586L13.586 6.99964ZM0 4.99964C0 4.20399 0.316071 3.44092 0.87868 2.87832C1.44129 2.31571 2.20435 1.99964 3 1.99964H6C6.26522 1.99964 6.51957 2.10499 6.70711 2.29253C6.89464 2.48007 7 2.73442 7 2.99964C7 3.26485 6.89464 3.51921 6.70711 3.70674C6.51957 3.89428 6.26522 3.99964 6 3.99964H3C2.73478 3.99964 2.48043 4.10499 2.29289 4.29253C2.10536 4.48007 2 4.73442 2 4.99964V15.9996C2 16.2649 2.10536 16.5192 2.29289 16.7067C2.48043 16.8943 2.73478 16.9996 3 16.9996H14C14.2652 16.9996 14.5196 16.8943 14.7071 16.7067C14.8946 16.5192 15 16.2649 15 15.9996V12.9996C15 12.7344 15.1054 12.4801 15.2929 12.2925C15.4804 12.105 15.7348 11.9996 16 11.9996C16.2652 11.9996 16.5196 12.105 16.7071 12.2925C16.8946 12.4801 17 12.7344 17 12.9996V15.9996C17 16.7953 16.6839 17.5583 16.1213 18.121C15.5587 18.6836 14.7956 18.9996 14 18.9996H3C2.20435 18.9996 1.44129 18.6836 0.87868 18.121C0.316071 17.5583 0 16.7953 0 15.9996V4.99964Z" fill="white"/>
</svg>
