<svg width="52" height="60" viewBox="0 0 52 60" fill="none" xmlns="http://www.w3.org/2000/svg">
<path d="M51.5384 26.0787C52.5822 17.8675 50.2645 9.86836 45.0124 3.555C43.6862 1.96102 41.2675 1.82531 39.7913 3.30141L37.3702 5.7225C33.423 2.16727 28.2023 0 22.4844 0C9.45512 0 0.21875 10.6915 0.21875 22.2656C0.21875 27.8002 2.26449 33.0694 5.94125 37.1515L3.52004 39.5727C2.04512 41.0476 2.17871 43.4664 3.77375 44.7936C8.39668 48.6395 13.9235 50.9108 19.7755 51.4423L13.2181 57.9996C12.883 58.3348 12.7828 58.8388 12.9642 59.2767C13.1456 59.7145 13.5729 60.0001 14.0469 60.0001H30.9219C31.3959 60.0001 31.8232 59.7145 32.0046 59.2767C32.186 58.8388 32.0855 58.3348 31.7505 57.9996L25.1903 51.4396C38.912 50.1961 49.8482 39.3752 51.5384 26.0787ZM23.6562 35.1562H21.3125C20.0202 35.1562 18.9688 34.1048 18.9688 32.8125C18.9688 31.5202 20.0202 30.4688 21.3125 30.4688H30.6875C33.2722 30.4688 35.375 28.3659 35.375 25.7812C35.375 24.4889 36.4264 23.4375 37.7188 23.4363H42.3709C41.8739 31.962 35.993 39.0635 28.087 41.3843C28.2537 40.9002 28.3438 40.3816 28.3438 39.8438C28.3438 37.2591 26.2409 35.1562 23.6562 35.1562ZM37.7188 21.0938C35.1341 21.0938 33.0312 23.1966 33.0312 25.7812C33.0312 27.0736 31.9798 28.125 30.6875 28.125H21.3125C18.7278 28.125 16.625 30.2278 16.625 32.8125C16.625 35.3972 18.7278 37.5 21.3125 37.5H23.6562C24.9486 37.5 26 38.5514 26 39.8438C26 40.9164 25.2871 41.8359 24.2587 42.1076C23.6739 42.1595 23.0824 42.1875 22.4844 42.1875C14.422 42.1875 7.46305 37.3733 4.33074 30.4688H7.25C9.83469 30.4688 11.9375 28.3659 11.9375 25.7812C11.9375 24.4889 12.9889 23.4375 14.2812 23.4375H23.6562C26.2409 23.4375 28.3438 21.3347 28.3438 18.75C28.3438 16.1653 26.2409 14.0625 23.6562 14.0625H16.625C15.3327 14.0625 14.2812 13.0111 14.2812 11.7188C14.2812 10.4264 15.3327 9.375 16.625 9.375H18.9688C21.5534 9.375 23.6562 7.27219 23.6562 4.6875C23.6562 3.85055 23.4283 3.04828 23.0253 2.35137C33.3702 2.62852 41.7725 10.8306 42.3709 21.0938H37.7188ZM19.8539 2.51766C20.7225 2.87344 21.3125 3.73512 21.3125 4.6875C21.3125 5.97984 20.2611 7.03125 18.9688 7.03125H16.625C14.0403 7.03125 11.9375 9.13406 11.9375 11.7188C11.9375 14.3034 14.0403 16.4062 16.625 16.4062H23.6562C24.9486 16.4062 26 17.4577 26 18.75C26 20.0423 24.9486 21.0938 23.6562 21.0938H14.2812C11.6966 21.0938 9.59375 23.1966 9.59375 25.7812C9.59375 27.0736 8.54234 28.125 7.25 28.125H3.44234C2.87094 26.2717 2.5625 24.304 2.5625 22.2656C2.5625 12.1723 10.1077 3.80906 19.8539 2.51766ZM22.5009 49.2196C22.4889 49.2195 22.477 49.2196 22.465 49.2197C16.1717 49.2198 10.1701 47.0658 5.27281 42.9918C4.72695 42.5378 4.68441 41.7231 5.17742 41.2298L7.59863 38.8088C11.5457 42.364 16.7664 44.5312 22.4844 44.5312C34.682 44.5312 44.75 34.6181 44.75 22.2656C44.75 16.5477 42.5827 11.327 39.0275 7.37977L41.4486 4.95867C41.945 4.46203 42.76 4.51242 43.2105 5.05395C48.0424 10.8621 50.1743 18.2238 49.2134 25.7832C47.6097 38.3992 36.5956 49.2009 22.5009 49.2196Z" fill="white"/>
</svg>
