<svg width="24" height="24" viewBox="0 0 24 24" fill="none" xmlns="http://www.w3.org/2000/svg">
<path d="M4.0013 9.07366H9.07464V4.00033H16.0013V9.58699H17.3346V4.00033C17.3346 3.6467 17.1942 3.30756 16.9441 3.05752C16.6941 2.80747 16.3549 2.66699 16.0013 2.66699H7.24797L2.66797 7.24699V20.0003C2.66797 20.3539 2.80844 20.6931 3.05849 20.9431C3.30854 21.1932 3.64768 21.3337 4.0013 21.3337H16.0013C16.3549 21.3337 16.6941 21.1932 16.9441 20.9431C17.1942 20.6931 17.3346 20.3539 17.3346 20.0003H4.0013V9.07366ZM4.0013 7.79366L7.79464 4.00033H8.0013V8.00033H4.0013V7.79366Z" fill="white"/>
<path d="M18.8787 10.8996C18.7512 10.7903 18.5871 10.7333 18.4193 10.7398C18.2515 10.7462 18.0924 10.8158 17.9737 10.9345C17.8549 11.0533 17.7854 11.2124 17.7789 11.3802C17.7724 11.548 17.8295 11.712 17.9387 11.8396L20.1054 13.9996H11.9987C11.8219 13.9996 11.6523 14.0698 11.5273 14.1948C11.4023 14.3198 11.332 14.4894 11.332 14.6662C11.332 14.843 11.4023 15.0126 11.5273 15.1376C11.6523 15.2627 11.8219 15.3329 11.9987 15.3329H20.1254L17.9387 17.5196C17.8689 17.5793 17.8122 17.6529 17.7722 17.7356C17.7322 17.8183 17.7097 17.9084 17.7062 18.0002C17.7026 18.092 17.7181 18.1836 17.7516 18.2691C17.7851 18.3547 17.836 18.4324 17.9009 18.4973C17.9659 18.5623 18.0436 18.6131 18.1291 18.6467C18.2147 18.6802 18.3063 18.6956 18.3981 18.6921C18.4899 18.6885 18.58 18.6661 18.6627 18.626C18.7454 18.586 18.8189 18.5294 18.8787 18.4596L22.6654 14.6662L18.8787 10.8996Z" fill="white"/>
</svg>
