<svg width="60" height="60" viewBox="0 0 60 60" fill="none" xmlns="http://www.w3.org/2000/svg">
<g clip-path="url(#clip0)">
<path d="M9.73058 47.0979C11.4289 47.0979 12.8988 46.4886 14.0999 45.2874C15.3011 44.0863 15.9104 42.6159 15.9104 40.9181C15.9104 39.2202 15.3011 37.7499 14.0999 36.5483C12.8983 35.3476 11.4284 34.7383 9.73058 34.7383C8.03228 34.7383 6.56194 35.3476 5.36123 36.5487C4.16006 37.7499 3.55078 39.2198 3.55078 40.9181C3.55078 42.6164 4.15961 44.0863 5.36123 45.2874C6.56286 46.4886 8.03274 47.0979 9.73058 47.0979Z" fill="white"/>
<path d="M19.497 52.4705C19.4037 51.9487 19.2819 51.4525 19.1359 50.9956C18.9766 50.498 18.761 50.0087 18.495 49.5404C18.2043 49.0295 17.8587 48.5804 17.4673 48.206C17.0352 47.7926 16.5133 47.463 15.915 47.2259C15.3218 46.9911 14.6722 46.8721 13.9837 46.8721C13.4065 46.8721 12.9542 47.1353 12.539 47.4054C12.2905 47.5679 12.0089 47.7491 11.6968 47.9483C11.5654 48.032 11.3136 48.163 10.8586 48.3099C10.1829 48.5283 9.54344 48.5283 8.86732 48.3099C8.41276 48.163 8.16054 48.032 8.03008 47.9492C7.71697 47.7491 7.4359 47.5679 7.1855 47.4044C6.77169 47.1353 6.31942 46.8721 5.74218 46.8721C5.0537 46.8721 4.40368 46.9911 3.81133 47.2259C3.21349 47.4626 2.69119 47.7926 2.25769 48.2069C1.86676 48.5814 1.5216 49.03 1.23138 49.5408C0.965422 50.0087 0.749816 50.498 0.590514 50.9961C0.444488 51.452 0.32318 51.9482 0.229339 52.4701C0.138244 52.9786 0.0759887 53.4648 0.0448607 53.9143C0.0151061 54.3405 0 54.7822 0 55.2276C0 56.9923 0.753935 58.0809 1.38702 58.6833C2.28241 59.5361 3.44192 59.9678 4.8326 59.9678H14.8938C16.2845 59.9678 17.444 59.5356 18.3398 58.6833C18.9724 58.0813 19.7268 56.9928 19.7268 55.2272C19.7264 54.779 19.7113 54.3373 19.6815 53.9138C19.6504 53.4657 19.5886 52.98 19.497 52.4705Z" fill="white"/>
<path d="M43.8242 40.9181C43.8242 42.6164 44.433 44.0863 45.6347 45.2874C46.8363 46.4886 48.3062 47.0979 50.0036 47.0979C51.7019 47.0979 53.1722 46.4886 54.3734 45.2874C55.5745 44.0863 56.1834 42.6159 56.1834 40.9181C56.1834 39.2202 55.5745 37.7499 54.3729 36.5483C53.1717 35.3476 51.7014 34.7383 50.0036 34.7383C48.3053 34.7383 46.8354 35.3476 45.6342 36.5487C44.433 37.7499 43.8242 39.2202 43.8242 40.9181Z" fill="white"/>
<path d="M59.9549 53.9129C59.9238 53.4648 59.8616 52.9796 59.7705 52.4705C59.6766 51.9487 59.5553 51.4525 59.4088 50.9956C59.2495 50.498 59.0339 50.0087 58.768 49.5404C58.4777 49.0295 58.1321 48.5804 57.7408 48.206C57.3086 47.7926 56.7863 47.463 56.188 47.2259C55.5952 46.9911 54.9452 46.8721 54.2572 46.8721C53.6795 46.8721 53.2272 47.1353 52.8125 47.4054C52.5635 47.5679 52.2824 47.7491 51.9702 47.9483C51.8388 48.032 51.5866 48.163 51.132 48.3099C50.4564 48.5283 49.8164 48.5283 49.1403 48.3099C48.6857 48.163 48.4335 48.032 48.3031 47.9492C47.9899 47.7491 47.7089 47.5679 47.4589 47.4044C47.0451 47.1353 46.5929 46.8721 46.0152 46.8721C45.3267 46.8721 44.6771 46.9911 44.0843 47.2259C43.4865 47.463 42.9642 47.7926 42.5307 48.2069C42.1402 48.5809 41.795 49.03 41.5044 49.5408C41.2384 50.0087 41.0228 50.498 40.8635 50.9961C40.7175 51.4525 40.5962 51.9482 40.5023 52.4701C40.4112 52.9791 40.349 53.4648 40.3178 53.9143C40.2881 54.3396 40.2734 54.7818 40.2734 55.2276C40.2734 56.9923 41.0274 58.0809 41.66 58.6833C42.5558 59.5361 43.7154 59.9678 45.106 59.9678H55.1672C56.5579 59.9678 57.7169 59.5356 58.6128 58.6833C59.2459 58.0813 59.9998 56.9928 59.9998 55.2272C59.9998 54.7786 59.9847 54.3364 59.9549 53.9129Z" fill="white"/>
<path d="M29.8673 12.3592C31.5656 12.3592 33.0355 11.7503 34.2366 10.5487C35.4378 9.34753 36.0471 7.87766 36.0471 6.17935C36.0471 4.48151 35.4383 3.01163 34.2366 1.81C33.0355 0.609283 31.5651 0 29.8673 0C28.169 0 26.6991 0.608826 25.498 1.81046C24.2968 3.01163 23.6875 4.48151 23.6875 6.17981C23.6875 7.87766 24.2968 9.34799 25.4984 10.5492C26.6996 11.7503 28.1699 12.3592 29.8673 12.3592Z" fill="white"/>
<path d="M39.8182 19.1747C39.7866 18.7265 39.7248 18.2417 39.6338 17.7322C39.5399 17.2104 39.4186 16.7142 39.2721 16.2573C39.1128 15.7597 38.8972 15.2699 38.6313 14.8026C38.3406 14.2912 37.995 13.8422 37.604 13.4677C37.1719 13.0544 36.6496 12.7248 36.0508 12.4876C35.4576 12.2528 34.808 12.1338 34.12 12.1338C33.5423 12.1338 33.09 12.397 32.6753 12.6671C32.4267 12.8296 32.1452 13.0109 31.8335 13.21C31.7016 13.2938 31.4494 13.4247 30.9949 13.5716C30.3201 13.7895 29.6797 13.79 29.0031 13.5712C28.5495 13.4247 28.2973 13.2938 28.1663 13.2104C27.8532 13.0104 27.5717 12.8291 27.3222 12.6666C26.9089 12.397 26.4566 12.1338 25.8784 12.1338C25.19 12.1338 24.5404 12.2528 23.9476 12.4876C23.3493 12.7243 22.827 13.0544 22.3939 13.4686C22.003 13.8426 21.6579 14.2917 21.3676 14.8021C21.1021 15.2695 20.8865 15.7593 20.7268 16.2578C20.5807 16.7142 20.459 17.2099 20.3656 17.7318C20.2745 18.2404 20.2122 18.726 20.1807 19.176C20.1514 19.6013 20.1367 20.043 20.1367 20.4889C20.1367 22.254 20.8902 23.3421 21.5233 23.945C22.4191 24.7974 23.5782 25.2295 24.9693 25.2295H35.03C36.4212 25.2295 37.5802 24.7974 38.4761 23.945C39.1092 23.3426 39.8631 22.2545 39.8631 20.4884C39.8626 20.0403 39.848 19.5981 39.8182 19.1747Z" fill="white"/>
<path d="M35.3684 52.3545H24.3647C23.3933 52.3545 22.6055 53.1418 22.6055 54.1137C22.6055 55.0851 23.3933 55.8729 24.3647 55.8729H35.3684C36.3402 55.8729 37.128 55.0851 37.128 54.1137C37.128 53.1418 36.3402 52.3545 35.3684 52.3545Z" fill="white"/>
<path d="M19.2219 26.4815C18.4323 25.9157 17.3332 26.0975 16.7674 26.8871L13.7512 31.0958C13.1854 31.8854 13.3667 32.9845 14.1568 33.5508C14.4671 33.7733 14.8251 33.8799 15.1799 33.8799C15.7278 33.8799 16.268 33.6249 16.6117 33.1457L19.6275 28.9365C20.1933 28.1469 20.012 27.0478 19.2219 26.4815Z" fill="white"/>
<path d="M44.5582 33.8802C44.9125 33.8802 45.2709 33.7736 45.5813 33.5507C46.3714 32.9849 46.5526 31.8858 45.9868 31.0961L42.9707 26.887C42.4049 26.0974 41.3058 25.9156 40.5161 26.4819C39.726 27.0477 39.5448 28.1468 40.1106 28.9369L43.1263 33.1455C43.4701 33.6253 44.0098 33.8802 44.5582 33.8802Z" fill="white"/>
</g>
<defs>
<clipPath id="clip0">
<rect width="60" height="60" fill="white"/>
</clipPath>
</defs>
</svg>
