<svg width="75" height="75" viewBox="0 0 75 75" fill="none" xmlns="http://www.w3.org/2000/svg">
<path d="M56.0207 35.6724C58.8089 35.434 61.2564 34.2611 63.3068 32.1723C70.3541 24.9934 70.14 8.99397 70.1275 8.3165C70.1044 7.05834 69.0781 6.05057 67.8195 6.04964L56.2083 6.04202V1.15491C56.2083 0.516937 55.6911 0 55.0534 0H19.9442C19.3064 0 18.7893 0.516937 18.7893 1.15491V6.04156L7.17826 6.04941C5.91988 6.05034 4.89362 7.05811 4.87029 8.31627C4.85759 8.99397 4.6437 24.9931 11.691 32.1721C13.7414 34.2608 16.1891 35.4338 18.977 35.6721C20.0435 43.1381 25.6365 49.1603 32.8794 50.8666V65.4029H27.0279C26.6503 65.4029 26.2966 65.5875 26.0807 65.8972L20.9991 73.1845C20.7528 73.5374 20.7235 73.998 20.9226 74.3796C21.1215 74.7609 21.5162 75 21.9465 75C21.9465 75 53.0547 74.9998 53.0565 75C53.6943 75 54.2115 74.4831 54.2115 73.8451C54.2115 73.5656 54.0943 73.3381 53.947 73.1096L48.9176 65.897C48.7016 65.5873 48.348 65.4027 47.9703 65.4027H42.1189V50.8668C49.3613 49.1603 54.9543 43.1384 56.0207 35.6724ZM65.4723 10.6674C65.2494 15.7797 64.0418 24.8292 60.0102 28.936C58.8965 30.0704 57.6434 30.749 56.2085 30.9941V10.6612L65.4723 10.6674ZM9.52758 10.6674L18.7893 10.6614V30.9941C17.3555 30.749 16.1039 30.0722 14.991 28.9397C10.9673 24.8451 9.75463 15.7851 9.52758 10.6674ZM27.9285 19.2766L34.5415 18.3157L37.499 12.3233L40.4565 18.3157L47.0695 19.2766L42.2842 23.941L43.414 30.5275L37.4992 27.4178L31.5845 30.5275L32.7142 23.941L27.9285 19.2766Z" fill="#1B6AAB"/>
</svg>
