<svg width="76" height="75" viewBox="0 0 76 75" fill="none" xmlns="http://www.w3.org/2000/svg">
<g clip-path="url(#clip0)">
<path fill-rule="evenodd" clip-rule="evenodd" d="M0.5 58.5938C0.5 60.4586 1.24079 62.247 2.55941 63.5656C3.87802 64.8842 5.66645 65.625 7.53125 65.625H68.4688C70.3336 65.625 72.122 64.8842 73.4406 63.5656C74.7592 62.247 75.5 60.4586 75.5 58.5938V32.1094L38.6047 41.9391C38.2085 42.0449 37.7915 42.0449 37.3953 41.9391L0.5 32.1094V58.5938Z" fill="#1B6AAB"/>
<path fill-rule="evenodd" clip-rule="evenodd" d="M0.5 21.0937C0.5 19.2289 1.24079 17.4405 2.55941 16.1219C3.87802 14.8033 5.66645 14.0625 7.53125 14.0625H68.4688C70.3336 14.0625 72.122 14.8033 73.4406 16.1219C74.7592 17.4405 75.5 19.2289 75.5 21.0937V27.5812L39.8094 37.0969C38.6238 37.4126 37.3762 37.4126 36.1906 37.0969L0.5 27.5812V21.0937ZM23.9375 11.7187C23.9375 9.85395 24.6783 8.06552 25.9969 6.74691C27.3155 5.42829 29.1039 4.6875 30.9688 4.6875H45.0312C46.8961 4.6875 48.6845 5.42829 50.0031 6.74691C51.3217 8.06552 52.0625 9.85395 52.0625 11.7187V14.0625H47.375V11.7187C47.375 11.0971 47.1281 10.501 46.6885 10.0615C46.249 9.62193 45.6529 9.375 45.0312 9.375H30.9688C30.3471 9.375 29.751 9.62193 29.3115 10.0615C28.8719 10.501 28.625 11.0971 28.625 11.7187V14.0625H23.9375V11.7187Z" fill="#1B6AAB"/>
</g>
<defs>
<clipPath id="clip0">
<rect width="75" height="75" fill="white" transform="translate(0.5)"/>
</clipPath>
</defs>
</svg>
