<svg width="75" height="75" viewBox="0 0 75 75" fill="none" xmlns="http://www.w3.org/2000/svg">
<g clip-path="url(#clip0)">
<path d="M65.7441 0H9.25977C8.04629 0 7.0625 0.983789 7.0625 2.19727V72.8027C7.0625 73.5642 7.45684 74.2714 8.10459 74.6719C8.75249 75.0724 9.56138 75.1085 10.2425 74.768L37.502 61.1383L64.7615 74.768C65.0716 74.9231 65.4082 75 65.7441 75C66.1458 75 66.5466 74.8898 66.8995 74.6719C67.5472 74.2715 67.9416 73.5642 67.9416 72.8027V2.19727C67.9414 0.983789 66.9575 0 65.7441 0ZM53.1569 28.1518L46.9238 34.2275L48.3749 42.6872C48.4109 42.8451 48.43 43.0093 48.43 43.1782C48.43 44.3902 47.4485 45.3731 46.2368 45.3754C46.2343 45.3754 46.232 45.3754 46.2295 45.3754C45.8797 45.3754 45.5289 45.2921 45.2073 45.123L37.502 41.073L29.7969 45.123C29.4755 45.2919 29.1244 45.3754 28.7747 45.3754C28.3191 45.3754 27.8658 45.2339 27.4829 44.9558C26.8064 44.464 26.4674 43.631 26.6089 42.8067L28.0808 34.2277L21.847 28.152C21.248 27.5682 21.0324 26.6949 21.291 25.8995C21.5495 25.1039 22.2371 24.5241 23.0647 24.404L31.6793 23.1521L35.5313 15.3461C35.9015 14.5961 36.6652 14.1212 37.5017 14.1212C38.3381 14.1212 39.102 14.596 39.472 15.346L43.3247 23.1521L51.9389 24.404C52.7665 24.5241 53.4542 25.1039 53.7126 25.8993C53.9713 26.6947 53.7557 27.5679 53.1569 28.1518Z" fill="#1B6AAB"/>
</g>
<defs>
<clipPath id="clip0">
<rect width="75" height="75" fill="white"/>
</clipPath>
</defs>
</svg>
