<svg width="60" height="60" viewBox="0 0 60 60" fill="none" xmlns="http://www.w3.org/2000/svg">
<path d="M14.2978 10.4458L21.3281 12.927V22.8507C21.3281 23.8215 22.1152 24.6085 23.0859 24.6085H46.5234C47.4942 24.6085 48.2812 23.8215 48.2812 22.8507V12.927L52.9688 11.2725V18.1632C52.9688 19.134 53.7558 19.921 54.7266 19.921C55.6973 19.921 56.4844 19.134 56.4844 18.1632V8.78817C56.4844 8.04298 56.0143 7.37864 55.3116 7.13056L35.3897 0.0993066C35.0112 -0.0344043 34.5982 -0.0344043 34.2197 0.0993066L14.2978 7.13056C13.595 7.37864 13.125 8.04298 13.125 8.78817C13.125 9.53337 13.595 10.1977 14.2978 10.4458ZM44.7656 21.0929H24.8438V14.1678L34.2197 17.4769C34.4089 17.5437 34.6069 17.5771 34.8047 17.5771C35.0025 17.5771 35.2004 17.5437 35.3897 17.4769L44.7656 14.1678V21.0929ZM34.8047 3.62103L49.445 8.78817L34.8047 13.9553L20.1643 8.78817L34.8047 3.62103Z" fill="white"/>
<path d="M56.3545 32.1773C54.1398 31.4273 51.7915 32.1432 50.3711 34.0005L43.8246 42.5611C43.8257 42.5146 43.8281 42.4683 43.8281 42.4214C43.8281 39.1906 41.1996 36.5621 37.9688 36.5621H26.34C22.6325 33.4078 17.3927 32.8465 13.125 35.0559V34.8043C13.125 33.8335 12.338 33.0464 11.3672 33.0464H1.75781C0.787031 33.0464 0 33.8335 0 34.8043V58.2417C0 59.2125 0.787031 59.9996 1.75781 59.9996H11.3672C12.338 59.9996 13.125 59.2125 13.125 58.2417V56.4839H41.9372C46.1436 56.4839 50.0129 54.3715 52.2877 50.833L59.1477 40.1618C59.7053 39.2945 60 38.291 60 37.2599C60 34.922 58.569 32.9268 56.3545 32.1773ZM9.60938 56.4839H3.51562V36.5621H9.60938V56.4839ZM56.1905 38.2608L49.3304 48.932C47.7056 51.4594 44.9418 52.9683 41.9372 52.9683H13.125V39.2244L13.7129 38.8046C17.0105 36.449 21.5243 36.778 24.4457 39.587C24.7731 39.9019 25.2097 40.0778 25.6639 40.0778H37.9686C39.261 40.0778 40.3124 41.1292 40.3124 42.4216C40.3124 43.7139 39.261 44.7653 37.9686 44.7653H25.6641H25.4297C24.4589 44.7653 23.6719 45.5523 23.6719 46.5231C23.6719 47.4939 24.4589 48.2809 25.4297 48.2809H25.6641H37.9688H39.5332C42.2529 48.2809 44.8628 46.9912 46.5149 44.8308L53.1637 36.1361C53.9118 35.1579 54.9322 35.4074 55.2272 35.5074C55.5221 35.6073 56.4844 36.0287 56.4844 37.2603C56.4844 37.6156 56.3828 37.9616 56.1905 38.2608Z" fill="white"/>
</svg>
