<svg width="61" height="64" viewBox="0 0 61 64" fill="none" xmlns="http://www.w3.org/2000/svg">
<g clip-path="url(#clip0)">
<path d="M43.4897 40.0752L30.5 52.0002L17.5103 40.0752C7.77478 40.4627 0 47.7752 0 56.8002V58.0002C0 61.3127 2.92746 64.0002 6.53571 64.0002H54.4643C58.0725 64.0002 61 61.3127 61 58.0002V56.8002C61 47.7752 53.2252 40.4627 43.4897 40.0752ZM1.85179 9.9752L2.72321 10.1627V17.4627C1.77009 17.9877 1.08929 18.9002 1.08929 20.0002C1.08929 21.0502 1.71563 21.9252 2.60067 22.4627L0.476562 30.2502C0.245089 31.1127 0.7625 32.0002 1.51138 32.0002H7.2029C7.95179 32.0002 8.4692 31.1127 8.23772 30.2502L6.11362 22.4627C6.99866 21.9252 7.625 21.0502 7.625 20.0002C7.625 18.9002 6.9442 17.9877 5.99107 17.4627V10.8877L14.9777 12.8752C13.8067 15.0252 13.0714 17.4252 13.0714 20.0002C13.0714 28.8377 20.8734 36.0002 30.5 36.0002C40.1266 36.0002 47.9286 28.8377 47.9286 20.0002C47.9286 17.4252 47.2069 15.0252 46.0223 12.8752L59.1346 9.9752C61.6127 9.4252 61.6127 6.5877 59.1346 6.0377L33.2096 0.287695C31.4395 -0.0998047 29.5741 -0.0998047 27.804 0.287695L1.85179 6.0252C-0.612723 6.5752 -0.612723 9.4252 1.85179 9.9752Z" fill="white"/>
</g>
<defs>
<clipPath id="clip0">
<rect width="61" height="64" fill="white"/>
</clipPath>
</defs>
</svg>
