<svg width="75" height="75" viewBox="0 0 75 75" fill="none" xmlns="http://www.w3.org/2000/svg">
<g clip-path="url(#clip0)">
<path d="M64.1752 40.0371H58.375C58.9662 41.6558 59.2892 43.4026 59.2892 45.2233V67.1447C59.2892 67.9038 59.1571 68.6324 58.9167 69.31H68.5057C72.0877 69.31 75.0017 66.3959 75.0017 62.814V50.8636C75.0019 44.894 70.145 40.0371 64.1752 40.0371Z" fill="#1B6AAB"/>
<path d="M15.7127 45.2242C15.7127 43.4034 16.0357 41.6567 16.6269 40.0381H10.8267C4.85685 40.0381 0 44.8949 0 50.8648V62.8151C0 66.397 2.91402 69.3111 6.49601 69.3111H16.0852C15.8448 68.6332 15.7127 67.9047 15.7127 67.1457V45.2242Z" fill="#1B6AAB"/>
<path d="M44.1297 34.3975H30.8696C24.8998 34.3975 20.043 39.2543 20.043 45.2241V67.1456C20.043 68.3413 21.0124 69.3109 22.2083 69.3109H52.7911C53.987 69.3109 54.9564 68.3415 54.9564 67.1456V45.2241C54.9564 39.2543 50.0996 34.3975 44.1297 34.3975Z" fill="#1B6AAB"/>
<path d="M37.5009 5.68945C30.3214 5.68945 24.4805 11.5304 24.4805 18.71C24.4805 23.5799 27.1683 27.8331 31.1378 30.0661C33.0205 31.1252 35.1911 31.7305 37.5009 31.7305C39.8107 31.7305 41.9813 31.1252 43.864 30.0661C47.8336 27.8331 50.5213 23.5798 50.5213 18.71C50.5213 11.5305 44.6804 5.68945 37.5009 5.68945Z" fill="#1B6AAB"/>
<path d="M14.636 17.8252C9.26661 17.8252 4.89844 22.1934 4.89844 27.5628C4.89844 32.9322 9.26661 37.3003 14.636 37.3003C15.998 37.3003 17.295 37.0182 18.4732 36.5111C20.5102 35.6341 22.1898 34.0816 23.2291 32.137C23.9586 30.7722 24.3736 29.2153 24.3736 27.5628C24.3736 22.1935 20.0054 17.8252 14.636 17.8252Z" fill="#1B6AAB"/>
<path d="M60.3626 17.8252C54.9932 17.8252 50.625 22.1934 50.625 27.5628C50.625 29.2154 51.04 30.7724 51.7695 32.137C52.8088 34.0818 54.4884 35.6342 56.5254 36.5111C57.7036 37.0182 59.0006 37.3003 60.3626 37.3003C65.732 37.3003 70.1001 32.9322 70.1001 27.5628C70.1001 22.1934 65.732 17.8252 60.3626 17.8252Z" fill="#1B6AAB"/>
</g>
<defs>
<clipPath id="clip0">
<rect width="75" height="75" fill="white"/>
</clipPath>
</defs>
</svg>
