<svg width="24" height="24" viewBox="0 0 24 24" fill="none" xmlns="http://www.w3.org/2000/svg">
<path d="M12 7.5C12.1989 7.5 12.3897 7.57902 12.5303 7.71967C12.671 7.86032 12.75 8.05109 12.75 8.25V11.25H15.75C15.9489 11.25 16.1397 11.329 16.2803 11.4697C16.421 11.6103 16.5 11.8011 16.5 12C16.5 12.1989 16.421 12.3897 16.2803 12.5303C16.1397 12.671 15.9489 12.75 15.75 12.75H12.75V15.75C12.75 15.9489 12.671 16.1397 12.5303 16.2803C12.3897 16.421 12.1989 16.5 12 16.5C11.8011 16.5 11.6103 16.421 11.4697 16.2803C11.329 16.1397 11.25 15.9489 11.25 15.75V12.75H8.25C8.05109 12.75 7.86032 12.671 7.71967 12.5303C7.57902 12.3897 7.5 12.1989 7.5 12C7.5 11.8011 7.57902 11.6103 7.71967 11.4697C7.86032 11.329 8.05109 11.25 8.25 11.25H11.25V8.25C11.25 8.05109 11.329 7.86032 11.4697 7.71967C11.6103 7.57902 11.8011 7.5 12 7.5ZM3 12C3 10.8181 3.23279 9.64778 3.68508 8.55585C4.13738 7.46392 4.80031 6.47177 5.63604 5.63604C6.47177 4.80031 7.46392 4.13738 8.55585 3.68508C9.64778 3.23279 10.8181 3 12 3C13.1819 3 14.3522 3.23279 15.4442 3.68508C16.5361 4.13738 17.5282 4.80031 18.364 5.63604C19.1997 6.47177 19.8626 7.46392 20.3149 8.55585C20.7672 9.64778 21 10.8181 21 12C21 14.3869 20.0518 16.6761 18.364 18.364C16.6761 20.0518 14.3869 21 12 21C9.61305 21 7.32387 20.0518 5.63604 18.364C3.94821 16.6761 3 14.3869 3 12ZM12 4.5C10.0109 4.5 8.10322 5.29018 6.6967 6.6967C5.29018 8.10322 4.5 10.0109 4.5 12C4.5 13.9891 5.29018 15.8968 6.6967 17.3033C8.10322 18.7098 10.0109 19.5 12 19.5C13.9891 19.5 15.8968 18.7098 17.3033 17.3033C18.7098 15.8968 19.5 13.9891 19.5 12C19.5 10.0109 18.7098 8.10322 17.3033 6.6967C15.8968 5.29018 13.9891 4.5 12 4.5Z" fill="#1B6AAB"/>
</svg>
