<svg width="48" height="48" viewBox="0 0 48 48" fill="none" xmlns="http://www.w3.org/2000/svg">
<circle cx="24" cy="24" r="24" fill="#1B6AAB"/>
<path d="M21.7503 14.4004C21.4167 14.4004 21.0897 14.4931 20.8058 14.6681C20.5218 14.8431 20.2921 15.0936 20.1423 15.3916L19.4342 16.8004H17.4063C16.6106 16.8004 15.8475 17.1165 15.2849 17.6791C14.7223 18.2417 14.4062 19.0047 14.4062 19.8004V29.4004C14.4062 30.196 14.7223 30.9591 15.2849 31.5217C15.8475 32.0843 16.6106 32.4004 17.4063 32.4004H23.5215C23.3252 32.0169 23.1672 31.6149 23.0499 31.2004H17.4075C16.9301 31.2004 16.4722 31.0107 16.1347 30.6732C15.7971 30.3356 15.6075 29.8778 15.6075 29.4004V19.8004C15.6075 19.323 15.7971 18.8652 16.1347 18.5276C16.4722 18.19 16.9301 18.0004 17.4075 18.0004H19.805C19.9162 18.0002 20.0251 17.9691 20.1196 17.9106C20.2141 17.8521 20.2905 17.7685 20.3403 17.6692L21.2139 15.9304C21.2639 15.8311 21.3406 15.7476 21.4353 15.6894C21.53 15.6311 21.639 15.6003 21.7503 15.6004H26.267C26.3786 15.6002 26.488 15.631 26.5829 15.6896C26.6779 15.7481 26.7547 15.8319 26.8047 15.9316L27.6723 17.668C27.7221 17.7675 27.7987 17.8512 27.8934 17.9097C27.9882 17.9682 28.0973 17.9992 28.2087 17.9992H30.6075C31.0848 17.9992 31.5427 18.1888 31.8802 18.5264C32.2178 18.864 32.4074 19.3218 32.4074 19.7992V23.5228C32.837 23.7424 33.239 24.0088 33.6075 24.3136V19.7992C33.6075 19.0035 33.2914 18.2405 32.7288 17.6779C32.1662 17.1153 31.4031 16.7992 30.6075 16.7992H28.5795L27.8774 15.3952C27.7279 15.0962 27.498 14.8447 27.2136 14.669C26.9291 14.4933 26.6014 14.4003 26.267 14.4004H21.7503Z" fill="white"/>
<path d="M23.9998 19.2002C25.0714 19.2002 26.1121 19.5586 26.9565 20.2184C27.8008 20.8781 28.4003 21.8013 28.6594 22.841C28.2605 22.8856 27.8664 22.9668 27.4822 23.0834C27.321 22.4708 27.001 21.9115 26.5545 21.4621C26.1081 21.0126 25.551 20.6889 24.9394 20.5236C24.3279 20.3583 23.6835 20.3572 23.0714 20.5205C22.4594 20.6838 21.9012 21.0056 21.4532 21.4536C21.0053 21.9015 20.6834 22.4597 20.5201 23.0718C20.3568 23.6839 20.3579 24.3282 20.5232 24.9398C20.6886 25.5513 21.0123 26.1084 21.4617 26.5549C21.9111 27.0014 22.4704 27.3214 23.083 27.4826C22.9665 27.8664 22.8854 28.26 22.8406 28.6586C21.7068 28.3721 20.7164 27.6816 20.0555 26.7168C19.3945 25.752 19.1083 24.5792 19.2505 23.4184C19.3928 22.2575 19.9538 21.1885 20.8282 20.4119C21.7026 19.6353 22.8303 19.2044 23.9998 19.2002Z" fill="white"/>
<path d="M34.8 29.4C34.8 30.8322 34.2311 32.2057 33.2184 33.2184C32.2057 34.2311 30.8322 34.8 29.4 34.8C27.9678 34.8 26.5943 34.2311 25.5816 33.2184C24.5689 32.2057 24 30.8322 24 29.4C24 27.9678 24.5689 26.5943 25.5816 25.5816C26.5943 24.5689 27.9678 24 29.4 24C30.8322 24 32.2057 24.5689 33.2184 25.5816C34.2311 26.5943 34.8 27.9678 34.8 29.4ZM30 27C30 26.8409 29.9368 26.6883 29.8243 26.5757C29.7117 26.4632 29.5591 26.4 29.4 26.4C29.2409 26.4 29.0883 26.4632 28.9757 26.5757C28.8632 26.6883 28.8 26.8409 28.8 27V28.8H27C26.8409 28.8 26.6883 28.8632 26.5757 28.9757C26.4632 29.0883 26.4 29.2409 26.4 29.4C26.4 29.5591 26.4632 29.7117 26.5757 29.8243C26.6883 29.9368 26.8409 30 27 30H28.8V31.8C28.8 31.9591 28.8632 32.1117 28.9757 32.2243C29.0883 32.3368 29.2409 32.4 29.4 32.4C29.5591 32.4 29.7117 32.3368 29.8243 32.2243C29.9368 32.1117 30 31.9591 30 31.8V30H31.8C31.9591 30 32.1117 29.9368 32.2243 29.8243C32.3368 29.7117 32.4 29.5591 32.4 29.4C32.4 29.2409 32.3368 29.0883 32.2243 28.9757C32.1117 28.8632 31.9591 28.8 31.8 28.8H30V27Z" fill="white"/>
</svg>
