<svg width="24" height="24" viewBox="0 0 24 24" fill="none" xmlns="http://www.w3.org/2000/svg">
<path d="M23.1505 13.9697C23.1429 14.0119 23.1376 14.0545 23.1296 14.0967L23.0886 13.8549C23.1111 13.8926 23.1296 13.9318 23.1505 13.9698C23.2755 13.2921 23.3387 12.6045 23.3394 11.9154C23.3394 10.3856 23.0399 8.90137 22.4482 7.50422C21.8772 6.15459 21.0605 4.9425 20.0191 3.90187C18.9792 2.86125 17.7663 2.04441 16.4174 1.47356C15.0206 0.882562 13.5365 0.583031 12.0067 0.583031C11.2857 0.583031 10.5635 0.650719 9.86072 0.785625C9.85922 0.786 9.85734 0.786 9.85538 0.786375C9.89494 0.807281 9.93488 0.825937 9.97359 0.847594L9.73528 0.810281C9.77522 0.802781 9.81553 0.794344 9.85538 0.786375C8.89125 0.27375 7.80675 0 6.70913 0C4.91719 0 3.23222 0.697781 1.965 1.96537C0.698156 3.23259 0 4.91747 0 6.7095C0.000608328 7.84784 0.291113 8.96727 0.844125 9.96225C0.851344 9.92119 0.856313 9.87975 0.864281 9.83869L0.905344 10.0762C0.884062 10.039 0.865406 10.0002 0.844125 9.96225C0.731332 10.6072 0.674246 11.2607 0.6735 11.9154C0.6735 13.4456 0.973031 14.9295 1.56478 16.327C2.13488 17.677 2.95209 18.8883 3.99234 19.9289C5.03372 20.9696 6.24506 21.7876 7.59544 22.3569C8.99231 22.9491 10.4768 23.249 12.0067 23.249C12.6726 23.249 13.34 23.1881 13.9913 23.0726C13.9534 23.0513 13.9147 23.0319 13.8758 23.0095L14.118 23.0521C14.0762 23.0601 14.034 23.065 13.9914 23.0726C14.9982 23.6424 16.1352 23.942 17.292 23.9422C19.0837 23.9422 20.7678 23.2455 22.035 21.9776C23.3025 20.7112 24 19.0259 24 17.2339C23.9994 16.0913 23.707 14.9677 23.1505 13.9698V13.9697ZM12.0518 18.856C8.02575 18.856 6.22453 16.8766 6.22453 15.3932C6.22453 14.6322 6.78628 14.099 7.56047 14.099C9.28341 14.099 8.83716 16.5729 12.0518 16.5729C13.6976 16.5729 14.6063 15.6793 14.6063 14.7649C14.6063 14.2149 14.335 13.6052 13.2514 13.338L9.67031 12.4441C6.78628 11.7208 6.26288 10.1617 6.26288 8.69616C6.26288 5.65331 9.12788 4.51078 11.8185 4.51078C14.297 4.51078 17.2187 5.88056 17.2187 7.70606C17.2187 8.48831 16.5413 8.94319 15.7674 8.94319C14.297 8.94319 14.5676 6.90787 11.6057 6.90787C10.1359 6.90787 9.32175 7.5735 9.32175 8.52591C9.32175 9.47653 10.4826 9.78019 11.4905 10.0097L14.1412 10.5981C17.0446 11.2449 17.7808 12.9401 17.7808 14.5368C17.7808 17.0096 15.8827 18.856 12.0518 18.856ZM13.8758 23.0095C13.9147 23.032 13.9534 23.0513 13.9914 23.0726C14.034 23.065 14.0762 23.0601 14.118 23.052L13.8758 23.0095ZM23.1296 14.0967C23.1376 14.0545 23.1429 14.012 23.1505 13.9698C23.1296 13.9317 23.111 13.8926 23.0887 13.8549L23.1296 14.0967ZM0.864281 9.83869C0.856313 9.87975 0.851344 9.92119 0.844125 9.96225C0.865406 10.0002 0.884062 10.039 0.905344 10.0762L0.864281 9.83869ZM9.97359 0.847594C9.93488 0.825937 9.89494 0.807281 9.85547 0.786375C9.81553 0.794344 9.77522 0.802687 9.73528 0.810281L9.97359 0.847594Z" fill="#00AFF0"/>
</svg>
