<svg width="24" height="25" viewBox="0 0 24 25" fill="none" xmlns="http://www.w3.org/2000/svg">
<g clip-path="url(#clip0)">
<path d="M21.75 21.4903H2.25001C1.0093 21.4903 0 20.4783 0 19.2344V15.4746C0 15.059 0.335439 14.7227 0.750005 14.7227C1.99072 14.7227 3.00002 13.7107 3.00002 12.4668C3.00002 11.2228 1.99072 10.2109 0.750005 10.2109C0.335439 10.211 0 9.87465 0 9.45901V5.69923C0 4.45528 1.0093 3.44336 2.25001 3.44336H21.75C22.9908 3.44336 24 4.45528 24 5.69923V9.45901C24 9.87465 23.6646 10.211 23.25 10.211C22.0093 10.211 21 11.2229 21 12.4668C21 13.7108 22.0093 14.7227 23.25 14.7227C23.6646 14.7227 24 15.059 24 15.4747V19.2344C24 20.4783 22.9908 21.4903 21.75 21.4903ZM1.50001 16.1509V19.2344C1.50001 19.6493 1.83621 19.9863 2.25001 19.9863H21.75C22.1638 19.9863 22.5 19.6493 22.5 19.2344V16.1509C20.7906 15.8014 19.5 14.2828 19.5 12.4668C19.5 10.6508 20.7905 9.13222 22.5 8.78264V5.69923C22.5 5.28434 22.1638 4.94727 21.75 4.94727H2.25001C1.83621 4.94727 1.50001 5.28434 1.50001 5.69923V8.78269C3.20947 9.13222 4.50003 10.6508 4.50003 12.4668C4.50003 14.2829 3.20947 15.8014 1.50001 16.1509Z" fill="black" fill-opacity="0.7"/>
<path d="M9.04883 18.208L13.5472 6.18103L14.9517 6.70908L10.4533 18.7361L9.04883 18.208Z" fill="black" fill-opacity="0.7"/>
<path d="M8.45216 12.7207C7.21145 12.7207 6.20215 11.7088 6.20215 10.4648C6.20215 9.2209 7.21145 8.20898 8.45216 8.20898C9.69288 8.20898 10.7022 9.2209 10.7022 10.4648C10.7022 11.7088 9.69288 12.7207 8.45216 12.7207ZM8.45216 9.71289C8.03835 9.71289 7.70216 10.05 7.70216 10.4648C7.70216 10.8797 8.03835 11.2168 8.45216 11.2168C8.86597 11.2168 9.20217 10.8797 9.20217 10.4648C9.20217 10.05 8.86597 9.71289 8.45216 9.71289Z" fill="black" fill-opacity="0.7"/>
<path d="M16.2041 17.3838C14.9634 17.3838 13.9541 16.3719 13.9541 15.1279C13.9541 13.884 14.9634 12.8721 16.2041 12.8721C17.4448 12.8721 18.4541 13.884 18.4541 15.1279C18.4541 16.3719 17.4448 17.3838 16.2041 17.3838ZM16.2041 14.376C15.7903 14.376 15.4541 14.7131 15.4541 15.1279C15.4541 15.5428 15.7903 15.8799 16.2041 15.8799C16.6179 15.8799 16.9541 15.5428 16.9541 15.1279C16.9541 14.7131 16.6179 14.376 16.2041 14.376Z" fill="black" fill-opacity="0.7"/>
</g>
<defs>
<clipPath id="clip0">
<rect width="24" height="24.0624" fill="white" transform="translate(0 0.435547)"/>
</clipPath>
</defs>
</svg>
