<svg width="24" height="25" viewBox="0 0 24 25" fill="none" xmlns="http://www.w3.org/2000/svg">
<g opacity="0.8">
<path d="M10.1703 5.17033C10.3197 5.16981 10.4673 5.20301 10.6023 5.26747C10.7373 5.33192 10.8562 5.42601 10.9503 5.54281L15.7803 11.5831C15.9274 11.7632 16.0078 11.9892 16.0078 12.2224C16.0078 12.4556 15.9274 12.6815 15.7803 12.8616L10.7803 18.9019C10.6106 19.1075 10.3667 19.2368 10.1022 19.2614C9.83782 19.2859 9.57454 19.2037 9.37032 19.0328C9.16611 18.8619 9.03768 18.6164 9.0133 18.3502C8.98892 18.084 9.07059 17.8189 9.24032 17.6133L13.7103 12.2173L9.39033 6.82134C9.26804 6.67357 9.19036 6.49363 9.16649 6.30281C9.14261 6.11199 9.17352 5.91827 9.25558 5.74458C9.33763 5.5709 9.46739 5.42451 9.6295 5.32274C9.79162 5.22097 9.97929 5.16808 10.1703 5.17033Z" fill="black" fill-opacity="0.7"/>
</g>
</svg>
