<svg width="230" height="230" viewBox="0 0 230 230" fill="none" xmlns="http://www.w3.org/2000/svg">
<g filter="url(#filter0_dd)">
<rect x="40" y="40" width="150" height="150" rx="16" fill="#FAF8F6"/>
</g>
<path d="M133.022 113.672C135.81 113.434 138.257 112.261 140.308 110.172C147.355 102.993 147.141 86.994 147.128 86.3165C147.105 85.0583 146.079 84.0506 144.82 84.0496L133.209 84.042V79.1549C133.209 78.5169 132.692 78 132.054 78H96.9451C96.3074 78 95.7902 78.5169 95.7902 79.1549V84.0416L84.1792 84.0494C82.9209 84.0503 81.8946 85.0581 81.8713 86.3163C81.8586 86.994 81.6447 102.993 88.6919 110.172C90.7424 112.261 93.1901 113.434 95.978 113.672C97.0445 121.138 102.637 127.16 109.88 128.867V143.403H104.029C103.651 143.403 103.298 143.587 103.082 143.897L98 151.184C97.7538 151.537 97.7245 151.998 97.9236 152.38C98.1225 152.761 98.5172 153 98.9475 153C98.9475 153 130.056 153 130.058 153C130.695 153 131.212 152.483 131.212 151.845C131.212 151.566 131.095 151.338 130.948 151.11L125.919 143.897C125.703 143.587 125.349 143.403 124.971 143.403H119.12V128.867C126.362 127.16 131.955 121.138 133.022 113.672ZM142.473 88.6674C142.25 93.7797 141.043 102.829 137.011 106.936C135.897 108.07 134.644 108.749 133.209 108.994V88.6612L142.473 88.6674ZM86.5286 88.6674L95.7902 88.6614V108.994C94.3565 108.749 93.1048 108.072 91.992 106.94C87.9683 102.845 86.7556 93.7851 86.5286 88.6674ZM104.929 97.2766L111.542 96.3157L114.5 90.3233L117.457 96.3157L124.07 97.2766L119.285 101.941L120.415 108.527L114.5 105.418L108.585 108.527L109.715 101.941L104.929 97.2766Z" fill="#1B6AAB"/>
<defs>
<filter id="filter0_dd" x="0" y="0" width="230" height="230" filterUnits="userSpaceOnUse" color-interpolation-filters="sRGB">
<feFlood flood-opacity="0" result="BackgroundImageFix"/>
<feColorMatrix in="SourceAlpha" type="matrix" values="0 0 0 0 0 0 0 0 0 0 0 0 0 0 0 0 0 0 127 0"/>
<feOffset dx="10" dy="10"/>
<feGaussianBlur stdDeviation="15"/>
<feColorMatrix type="matrix" values="0 0 0 0 0.105882 0 0 0 0 0.415686 0 0 0 0 0.670588 0 0 0 0.3 0"/>
<feBlend mode="normal" in2="BackgroundImageFix" result="effect1_dropShadow"/>
<feColorMatrix in="SourceAlpha" type="matrix" values="0 0 0 0 0 0 0 0 0 0 0 0 0 0 0 0 0 0 127 0"/>
<feOffset dx="-10" dy="-10"/>
<feGaussianBlur stdDeviation="15"/>
<feColorMatrix type="matrix" values="0 0 0 0 1 0 0 0 0 1 0 0 0 0 1 0 0 0 1 0"/>
<feBlend mode="normal" in2="effect1_dropShadow" result="effect2_dropShadow"/>
<feBlend mode="normal" in="SourceGraphic" in2="effect2_dropShadow" result="shape"/>
</filter>
</defs>
</svg>
