<svg width="16" height="16" viewBox="0 0 16 16" fill="none" xmlns="http://www.w3.org/2000/svg">
<path d="M4.80078 3.99922C4.80078 3.78705 4.88507 3.58356 5.0351 3.43353C5.18513 3.2835 5.38861 3.19922 5.60078 3.19922H10.4008C10.613 3.19922 10.8164 3.2835 10.9665 3.43353C11.1165 3.58356 11.2008 3.78705 11.2008 3.99922V4.79922C11.2008 5.01139 11.1165 5.21487 10.9665 5.3649C10.8164 5.51493 10.613 5.59922 10.4008 5.59922H5.60078C5.38861 5.59922 5.18513 5.51493 5.0351 5.3649C4.88507 5.21487 4.80078 5.01139 4.80078 4.79922V3.99922ZM5.60078 3.99922V4.79922H10.4008V3.99922H5.60078Z" fill="black" fill-opacity="0.54"/>
<path d="M3.19922 3.19961V12.7996C3.19922 13.224 3.36779 13.6309 3.66785 13.931C3.96791 14.231 4.37487 14.3996 4.79922 14.3996H12.3992C12.5053 14.3996 12.607 14.3575 12.6821 14.2825C12.7571 14.2074 12.7992 14.1057 12.7992 13.9996C12.7992 13.8935 12.7571 13.7918 12.6821 13.7168C12.607 13.6418 12.5053 13.5996 12.3992 13.5996H4.79922C4.58705 13.5996 4.38356 13.5153 4.23353 13.3653C4.0835 13.2153 3.99922 13.0118 3.99922 12.7996H11.9992C12.2114 12.7996 12.4149 12.7153 12.5649 12.5653C12.7149 12.4153 12.7992 12.2118 12.7992 11.9996V3.19961C12.7992 2.77526 12.6306 2.3683 12.3306 2.06824C12.0305 1.76818 11.6236 1.59961 11.1992 1.59961H4.79922C4.37487 1.59961 3.96791 1.76818 3.66785 2.06824C3.36779 2.3683 3.19922 2.77526 3.19922 3.19961ZM11.1992 2.39961C11.4114 2.39961 11.6149 2.48389 11.7649 2.63392C11.9149 2.78395 11.9992 2.98744 11.9992 3.19961V11.9996H3.99922V3.19961C3.99922 2.98744 4.0835 2.78395 4.23353 2.63392C4.38356 2.48389 4.58705 2.39961 4.79922 2.39961H11.1992Z" fill="black" fill-opacity="0.54"/>
</svg>
