<svg width="24" height="25" viewBox="0 0 24 25" fill="none" xmlns="http://www.w3.org/2000/svg">
<path d="M4 18.0696V17.4179C4 17.0771 4.16 16.7562 4.41 16.6058C6.1 15.5932 8.03 15.0618 10 15.0618C10.03 15.0618 10.05 15.0618 10.08 15.0719C10.18 14.37 10.38 13.6983 10.67 13.0867C10.45 13.0666 10.23 13.0566 10 13.0566C7.58 13.0566 5.32 13.7284 3.39 14.8814C2.51 15.4027 2 16.3853 2 17.4179V20.0748H11.26C10.84 19.4733 10.51 18.7915 10.29 18.0696H4ZM10 12.054C12.21 12.054 14 10.2594 14 8.04361C14 5.82786 12.21 4.0332 10 4.0332C7.79 4.0332 6 5.82786 6 8.04361C6 10.2594 7.79 12.054 10 12.054ZM10 6.03841C11.1 6.03841 12 6.94075 12 8.04361C12 9.14647 11.1 10.0488 10 10.0488C8.9 10.0488 8 9.14647 8 8.04361C8 6.94075 8.9 6.03841 10 6.03841ZM20.75 16.0644C20.75 15.8439 20.72 15.6433 20.69 15.4328L21.83 14.4202L20.83 12.6857L19.38 13.1769C19.06 12.9062 18.7 12.6957 18.3 12.5453L18 11.0514H16L15.7 12.5453C15.3 12.6957 14.94 12.9062 14.62 13.1769L13.17 12.6857L12.17 14.4202L13.31 15.4328C13.28 15.6433 13.25 15.8439 13.25 16.0644C13.25 16.285 13.28 16.4855 13.31 16.6961L12.17 17.7087L13.17 19.4432L14.62 18.9519C14.94 19.2226 15.3 19.4332 15.7 19.5836L16 21.0774H18L18.3 19.5836C18.7 19.4332 19.06 19.2226 19.38 18.9519L20.83 19.4432L21.83 17.7087L20.69 16.6961C20.72 16.4855 20.75 16.285 20.75 16.0644ZM17 18.0696C15.9 18.0696 15 17.1673 15 16.0644C15 14.9616 15.9 14.0592 17 14.0592C18.1 14.0592 19 14.9616 19 16.0644C19 17.1673 18.1 18.0696 17 18.0696Z" fill="black" fill-opacity="0.7"/>
</svg>
