<svg width="24" height="24" viewBox="0 0 24 24" fill="none" xmlns="http://www.w3.org/2000/svg">
<path d="M5.564 2.70312L9.014 6.43712L6.58 11.2351L11.72 10.3141L14.06 15.9601L24 2.92613L5.564 2.70312ZM4.928 10.7911L5.885 10.0041L4.651 10.3941L4.525 10.2141L5.035 9.71912L4.366 9.98913C1.813 10.9791 0 13.4551 0 16.3501C0 18.3011 0.822 20.0551 2.133 21.2971C1.55126 20.2748 1.24622 19.1184 1.248 17.9421C1.248 15.0771 3.057 12.5271 5.563 11.5221L5.878 10.7561L5.128 11.0871L4.917 10.8021L4.928 10.7911ZM9.292 8.82113L10.89 6.00012L20.288 3.79912L9.292 8.82113Z" fill="#1B6AAB"/>
</svg>
