<svg width="225" height="230" viewBox="0 0 225 230" fill="none" xmlns="http://www.w3.org/2000/svg">
<g filter="url(#filter0_dd)">
<rect x="40" y="40" width="150" height="150" rx="16" fill="#FAF8F6"/>
</g>
<path d="M141.173 118.037H135.373C135.964 119.656 136.287 121.403 136.287 123.223V145.145C136.287 145.904 136.155 146.632 135.915 147.31H145.504C149.086 147.31 152 144.396 152 140.814V128.864C152 122.894 147.143 118.037 141.173 118.037Z" fill="#1B6AAB"/>
<path d="M92.7127 123.224C92.7127 121.403 93.0357 119.657 93.6269 118.038H87.8267C81.8568 118.038 77 122.895 77 128.865V140.815C77 144.397 79.914 147.311 83.496 147.311H93.0852C92.8448 146.633 92.7127 145.905 92.7127 145.146V123.224Z" fill="#1B6AAB"/>
<path d="M121.131 112.397H107.871C101.901 112.397 97.0439 117.254 97.0439 123.224V145.146C97.0439 146.341 98.0134 147.311 99.2093 147.311H129.792C130.988 147.311 131.957 146.341 131.957 145.146V123.224C131.957 117.254 127.101 112.397 121.131 112.397Z" fill="#1B6AAB"/>
<path d="M114.501 83.6895C107.321 83.6895 101.48 89.5304 101.48 96.71C101.48 101.58 104.168 105.833 108.138 108.066C110.021 109.125 112.191 109.73 114.501 109.73C116.811 109.73 118.981 109.125 120.864 108.066C124.834 105.833 127.521 101.58 127.521 96.71C127.521 89.5305 121.68 83.6895 114.501 83.6895Z" fill="#1B6AAB"/>
<path d="M91.636 95.8252C86.2666 95.8252 81.8984 100.193 81.8984 105.563C81.8984 110.932 86.2666 115.3 91.636 115.3C92.998 115.3 94.295 115.018 95.4732 114.511C97.5102 113.634 99.1898 112.082 100.229 110.137C100.959 108.772 101.374 107.215 101.374 105.563C101.374 100.194 97.0054 95.8252 91.636 95.8252Z" fill="#1B6AAB"/>
<path d="M137.364 95.8252C131.994 95.8252 127.626 100.193 127.626 105.563C127.626 107.215 128.041 108.772 128.77 110.137C129.81 112.082 131.489 113.634 133.526 114.511C134.705 115.018 136.002 115.3 137.364 115.3C142.733 115.3 147.101 110.932 147.101 105.563C147.101 100.193 142.733 95.8252 137.364 95.8252Z" fill="#1B6AAB"/>
<defs>
<filter id="filter0_dd" x="0" y="0" width="230" height="230" filterUnits="userSpaceOnUse" color-interpolation-filters="sRGB">
<feFlood flood-opacity="0" result="BackgroundImageFix"/>
<feColorMatrix in="SourceAlpha" type="matrix" values="0 0 0 0 0 0 0 0 0 0 0 0 0 0 0 0 0 0 127 0"/>
<feOffset dx="10" dy="10"/>
<feGaussianBlur stdDeviation="15"/>
<feColorMatrix type="matrix" values="0 0 0 0 0.105882 0 0 0 0 0.415686 0 0 0 0 0.670588 0 0 0 0.3 0"/>
<feBlend mode="normal" in2="BackgroundImageFix" result="effect1_dropShadow"/>
<feColorMatrix in="SourceAlpha" type="matrix" values="0 0 0 0 0 0 0 0 0 0 0 0 0 0 0 0 0 0 127 0"/>
<feOffset dx="-10" dy="-10"/>
<feGaussianBlur stdDeviation="15"/>
<feColorMatrix type="matrix" values="0 0 0 0 1 0 0 0 0 1 0 0 0 0 1 0 0 0 1 0"/>
<feBlend mode="normal" in2="effect1_dropShadow" result="effect2_dropShadow"/>
<feBlend mode="normal" in="SourceGraphic" in2="effect2_dropShadow" result="shape"/>
</filter>
</defs>
</svg>
