<svg width="26" height="26" viewBox="0 0 26 26" fill="none" xmlns="http://www.w3.org/2000/svg">
<path d="M12.998 7.86032L12.2749 7.10345C11.318 6.10175 9.78546 4.88867 8.132 4.88867C6.56487 4.88867 5.2945 5.43076 4.41833 6.30531C3.54228 7.17973 3 8.4467 3 10.0087C3 11.7024 3.65937 13.1224 4.72421 14.45C5.80824 15.8016 7.26156 16.9976 8.79381 18.2532L8.79421 18.2535L8.85103 18.3001C10.2492 19.447 11.78 20.7026 12.969 22.1105L12.205 22.7557M12.998 7.86032L13.0272 22.1107H12.9704C12.9704 22.1107 12.9701 22.1106 12.9697 22.1104C12.9691 22.1101 12.9683 22.1096 12.9674 22.1085L12.205 22.7557M12.998 7.86032L13.7211 7.10345C14.6772 6.10258 16.214 4.88867 17.869 4.88867C19.4356 4.88867 20.7057 5.43071 21.5818 6.30527C22.4577 7.1797 23 8.44669 23 10.0087C23 11.7028 22.3402 13.123 21.275 14.4506C20.1906 15.8022 18.7372 16.998 17.2054 18.253C17.2053 18.2531 17.2053 18.2531 17.2052 18.2532L17.1842 18.2704C15.7744 19.425 14.2299 20.69 13.0292 22.1091L12.998 7.86032ZM12.205 22.7557C12.396 22.9807 12.676 23.1107 12.97 23.1107H13.028C13.323 23.1107 13.602 22.9797 13.792 22.7557L8.132 3.88867C4.521 3.88867 2 6.40567 2 10.0087C2 13.9787 5.131 16.5447 8.16 19.0267L8.18073 19.0437C9.60429 20.2114 11.0755 21.4182 12.205 22.7557Z" stroke="#F89923" stroke-width="2"/>
</svg>
