<svg width="22" height="21" viewBox="0 0 22 21" fill="none" xmlns="http://www.w3.org/2000/svg">
<path d="M10.998 4.86032L10.2749 4.10345C9.31797 3.10175 7.78546 1.88867 6.132 1.88867C4.56487 1.88867 3.2945 2.43076 2.41833 3.30531C1.54228 4.17973 1 5.4467 1 7.00867C1 8.70241 1.65937 10.1224 2.72421 11.45C3.80824 12.8016 5.26156 13.9976 6.79381 15.2532L6.79421 15.2535L6.85103 15.3001C8.24924 16.447 9.78004 17.7026 10.969 19.1105L10.205 19.7557M10.998 4.86032L11.0272 19.1107H10.9704C10.9704 19.1107 10.9701 19.1106 10.9697 19.1104C10.9691 19.1101 10.9683 19.1096 10.9674 19.1085L10.205 19.7557M10.998 4.86032L11.7211 4.10345C12.6772 3.10258 14.214 1.88867 15.869 1.88867C17.4356 1.88867 18.7057 2.43071 19.5818 3.30527C20.4577 4.1797 21 5.44669 21 7.00867C21 8.7028 20.3402 10.123 19.275 11.4506C18.1906 12.8022 16.7372 13.998 15.2054 15.253C15.2053 15.2531 15.2053 15.2531 15.2052 15.2532L15.1842 15.2704C13.7744 16.425 12.2299 17.69 11.0292 19.1091L10.998 4.86032ZM10.205 19.7557C10.396 19.9807 10.676 20.1107 10.97 20.1107H11.028C11.323 20.1107 11.602 19.9797 11.792 19.7557L6.132 0.888672C2.521 0.888672 0 3.40567 0 7.00867C0 10.9787 3.131 13.5447 6.16 16.0267L6.18073 16.0437C7.60429 17.2114 9.07548 18.4182 10.205 19.7557Z" stroke="#F89923" stroke-width="2"/>
</svg>
