<svg width="23" height="15" viewBox="0 0 23 15" fill="none" xmlns="http://www.w3.org/2000/svg">
<path d="M11.5923 5.87771L18.6005 12.8859L18.6005 12.8859C19.2578 13.5431 20.3234 13.5431 20.9807 12.8859L20.9809 12.8857C21.6379 12.2284 21.6379 11.163 20.9808 10.5057L20.9807 10.5056L12.7825 2.30736L12.7823 2.30725C12.1251 1.65019 11.0596 1.65019 10.4023 2.30725L10.4022 2.30736L2.20395 10.5056L2.19779 10.5118L2.19175 10.5181C1.54596 11.1867 1.5645 12.2523 2.23317 12.8981L2.23321 12.8981C2.88545 13.528 3.91951 13.528 4.57178 12.8981L4.57804 12.892L4.58418 12.8859L11.5923 5.87771Z" fill="white" stroke="white" stroke-width="2"/>
</svg>
