<svg width="38" height="38" viewBox="0 0 38 38" fill="none" xmlns="http://www.w3.org/2000/svg">
<g clip-path="url(#clip0)" filter="url(#filter0_d)">
<path d="M27.9859 28.7086C21.739 29.3761 15.4751 29.3761 9.22818 28.7086C6.73513 28.4405 4.76694 26.478 4.50451 23.9849C3.83704 17.7381 3.83704 11.4741 4.50451 5.2272C4.77264 2.73416 6.73513 0.765962 9.22818 0.503536C15.4751 -0.163939 21.739 -0.163939 27.9859 0.503536C30.479 0.771666 32.4472 2.73416 32.7096 5.2272C33.3771 11.4741 33.3771 17.7381 32.7096 23.9849C32.4472 26.478 30.479 28.4462 27.9859 28.7086Z" fill="url(#paint0_linear)"/>
<path d="M31.1227 6.28067C30.8888 4.07287 29.1431 2.32146 26.9296 2.08756C21.3844 1.49425 15.8278 1.49425 10.2826 2.08756C8.07482 2.32146 6.32342 4.06717 6.08951 6.28067C5.4962 11.8258 5.4962 17.3824 6.08951 22.9276C6.32342 25.1411 8.06912 26.8868 10.2826 27.1207C15.8278 27.714 21.3844 27.714 26.9296 27.1207C29.1431 26.8868 30.8888 25.1411 31.1227 22.9276C31.716 17.3824 31.716 11.8258 31.1227 6.28067Z" fill="url(#paint1_linear)"/>
<path d="M4.4375 23.3789C4.46032 23.5786 4.47743 23.784 4.50025 23.9836C4.76838 26.4767 6.73087 28.4449 9.22392 28.7073C15.4708 29.3748 21.7348 29.3748 27.9817 28.7073C30.4747 28.4392 32.4429 26.4767 32.7053 23.9836C32.7282 23.784 32.7453 23.5786 32.7681 23.3789H4.4375Z" fill="url(#paint2_linear)"/>
<path d="M33.2015 13.5781L27.1372 7.51376C26.4583 7.9017 25.8593 8.11848 25.4086 8.23828C25.1576 8.30674 24.9465 8.34097 24.7982 8.36379C24.1136 7.66209 23.1609 7.22852 22.1055 7.22852C20.0289 7.22852 18.3403 8.91146 18.3403 10.9938C18.3403 11.0679 18.3403 11.1421 18.346 11.2162C18.3574 11.3988 18.3802 11.5757 18.4144 11.7468C17.5473 11.7354 14.7233 11.5015 12.0363 9.19671L10.7698 7.93022C10.7698 7.93022 9.28085 10.526 11.4715 12.4999C11.5685 12.6082 11.6712 12.7109 11.791 12.8193C11.8024 12.8307 11.8081 12.8421 11.8195 12.8479C11.5343 12.8307 10.6671 12.7452 10.1708 12.3915C10.1708 12.3915 10.0681 13.9774 11.3917 15.1469L12.4585 16.2252C12.1333 16.2537 11.7739 16.248 11.5229 16.1339C11.5229 16.1339 11.7454 17.0752 12.6011 17.8282L14.0958 19.3343C13.2001 19.8592 11.6256 20.5096 9.55469 20.3441L18.6312 29.2095C21.7518 29.2095 24.8724 29.0441 27.9873 28.7075C30.4803 28.4394 32.4485 26.4769 32.7109 23.9838C33.076 20.521 33.2415 17.0467 33.2015 13.5781Z" fill="url(#paint3_linear)"/>
<path d="M27.6564 8.9791C27.0117 9.31569 26.0362 9.47543 25.7167 9.52107C25.7167 9.50395 25.711 9.49254 25.711 9.47543C26.8063 8.79654 27.1429 7.51864 27.1429 7.51864C26.464 7.90658 25.865 8.12336 25.4143 8.24317C25.1633 8.31163 24.9522 8.34586 24.8039 8.36868C24.1193 7.66697 23.1666 7.2334 22.1112 7.2334C20.0346 7.2334 18.346 8.91635 18.346 10.9986C18.346 11.0728 18.346 11.147 18.3517 11.2211C18.3631 11.4037 18.3859 11.5805 18.4201 11.7517C17.4161 11.7346 13.782 11.4265 10.7698 7.9294C10.7698 7.9294 9.09259 10.856 11.9108 12.8527C11.9108 12.8527 10.7698 12.8185 10.1651 12.3906C10.1651 12.3906 9.98826 15.2089 13.2344 16.0988C13.2344 16.0988 12.0934 16.3841 11.5229 16.1331C11.5229 16.1331 12.0934 18.5576 14.9458 18.7345C14.9458 18.7345 12.8978 20.6057 9.55469 20.3376C11.1977 21.3759 13.1488 21.9806 15.2368 21.9806C21.1128 21.9806 25.8764 17.217 25.8764 11.3409C25.8764 11.2668 25.8764 11.1926 25.8764 11.1184C25.8764 11.0728 25.8764 11.0329 25.8764 10.9872C25.8764 10.9587 25.8764 10.9245 25.8764 10.896C26.9547 10.1771 27.6564 8.9791 27.6564 8.9791Z" fill="white"/>
</g>
<defs>
<filter id="filter0_d" x="0" y="0" width="37.2091" height="37.2091" filterUnits="userSpaceOnUse" color-interpolation-filters="sRGB">
<feFlood flood-opacity="0" result="BackgroundImageFix"/>
<feColorMatrix in="SourceAlpha" type="matrix" values="0 0 0 0 0 0 0 0 0 0 0 0 0 0 0 0 0 0 127 0"/>
<feOffset dy="4"/>
<feGaussianBlur stdDeviation="2"/>
<feColorMatrix type="matrix" values="0 0 0 0 0 0 0 0 0 0 0 0 0 0 0 0 0 0 0.25 0"/>
<feBlend mode="normal" in2="BackgroundImageFix" result="effect1_dropShadow"/>
<feBlend mode="normal" in="SourceGraphic" in2="effect1_dropShadow" result="shape"/>
</filter>
<linearGradient id="paint0_linear" x1="13.7005" y1="4.10825" x2="21.0883" y2="19.9148" gradientUnits="userSpaceOnUse">
<stop stop-color="#00C3FF"/>
<stop offset="1" stop-color="#00B0ED"/>
</linearGradient>
<linearGradient id="paint1_linear" x1="24.7835" y1="17.9179" x2="-17.6535" y2="-4.84695" gradientUnits="userSpaceOnUse">
<stop stop-color="#00B0ED" stop-opacity="0"/>
<stop offset="1" stop-color="#00A2CE"/>
</linearGradient>
<linearGradient id="paint2_linear" x1="18.6029" y1="24.9525" x2="18.6029" y2="28.7799" gradientUnits="userSpaceOnUse">
<stop stop-color="#00B0ED" stop-opacity="0"/>
<stop offset="1" stop-color="#00A2CE"/>
</linearGradient>
<linearGradient id="paint3_linear" x1="31.9192" y1="27.5021" x2="17.6497" y2="13.2326" gradientUnits="userSpaceOnUse">
<stop stop-color="#00B0ED" stop-opacity="0"/>
<stop offset="1" stop-color="#00A2CE"/>
</linearGradient>
<clipPath id="clip0">
<rect width="29.2091" height="29.2091" fill="white" transform="translate(4)"/>
</clipPath>
</defs>
</svg>
