<svg width="24" height="25" viewBox="0 0 24 25" fill="none" xmlns="http://www.w3.org/2000/svg">
<path d="M12 2.0052C9.243 2.0052 7 4.25404 7 7.01821C7 9.78239 9.243 12.0312 12 12.0312C14.757 12.0312 17 9.78239 17 7.01821C17 4.25404 14.757 2.0052 12 2.0052ZM12 10.026C10.346 10.026 9 8.67652 9 7.01821C9 5.35991 10.346 4.01041 12 4.01041C13.654 4.01041 15 5.35991 15 7.01821C15 8.67652 13.654 10.026 12 10.026ZM21 21.0546V20.052C21 16.183 17.859 13.0338 14 13.0338H10C6.14 13.0338 3 16.183 3 20.052V21.0546H5V20.052C5 17.2879 7.243 15.039 10 15.039H14C16.757 15.039 19 17.2879 19 20.052V21.0546H21Z" fill="black" fill-opacity="0.7"/>
</svg>
