<svg width="75" height="75" viewBox="0 0 75 75" fill="none" xmlns="http://www.w3.org/2000/svg">
<g clip-path="url(#clip0)">
<path fill-rule="evenodd" clip-rule="evenodd" d="M9.375 18.75C9.375 16.2636 10.3627 13.879 12.1209 12.1209C13.879 10.3627 16.2636 9.375 18.75 9.375H46.875C49.3614 9.375 51.746 10.3627 53.5041 12.1209C55.2623 13.879 56.25 16.2636 56.25 18.75V75L32.8125 60.9375L9.375 75V18.75Z" fill="#1B6AAB"/>
<path d="M65.6266 65.625L60.9391 62.8125V9.375C60.9391 8.1318 60.4452 6.93951 59.5661 6.06044C58.687 5.18136 57.4948 4.6875 56.2516 4.6875H20.0078C20.8306 3.26235 22.0141 2.0789 23.4392 1.25607C24.8643 0.433245 26.4809 4.18052e-05 28.1266 0L56.2516 0C58.738 0 61.1225 0.987721 62.8807 2.74587C64.6388 4.50403 65.6266 6.8886 65.6266 9.375V65.625Z" fill="#1B6AAB"/>
</g>
<defs>
<clipPath id="clip0">
<rect width="75" height="75" fill="white"/>
</clipPath>
</defs>
</svg>
