<svg width="75" height="75" viewBox="0 0 75 75" fill="none" xmlns="http://www.w3.org/2000/svg">
<path d="M42.964 29.6716L43.0085 29.7464C43.2112 30.0869 43.3183 30.4758 43.3183 30.8719V31.9961C43.3183 34.0462 44.9862 35.7141 47.0362 35.7141C49.0863 35.7141 50.7542 34.0462 50.7542 31.9961V30.797C50.7542 29.5824 51.739 28.5976 52.9536 28.5976H61.5874C60.5089 13.3469 48.3044 1.12061 33.0625 0.00878906V6.56821C37.0678 7.06275 40.179 10.4868 40.179 14.6237C40.179 18.7607 37.0678 22.1846 33.0625 22.6792V28.5976H41.0743C41.8495 28.5976 42.5673 29.0057 42.964 29.6716Z" fill="#1B6AAB"/>
<path d="M64.035 46.4746V49.5678C64.035 51.7898 62.2337 53.5911 60.0117 53.5911C57.7894 53.5911 55.9881 51.7895 55.9883 49.5672L55.9888 46.4746H46.4046V56.2986L43.4697 56.2952C41.2298 56.2926 39.4062 58.0954 39.383 60.3353C39.3596 62.6062 41.194 64.4597 43.465 64.4597H46.4046V74.9997C61.6554 73.9208 73.8815 61.7163 74.9934 46.4746H64.035Z" fill="#1B6AAB"/>
<path d="M35.7778 14.6235C35.7778 12.5735 34.1099 10.9056 32.0599 10.9056H30.8607C29.6461 10.9056 28.6613 9.9208 28.6613 8.70615V0C13.3561 1.04883 1.08193 13.3015 0 28.5974H6.63179C7.12632 24.5921 10.5504 21.4809 14.6874 21.4809C18.8244 21.4809 22.2483 24.5921 22.743 28.5974H28.6613V20.5856C28.6613 19.8108 29.0689 19.0932 29.7344 18.6964L29.8093 18.6517C30.1499 18.4487 30.5391 18.3415 30.9356 18.3415H32.0599C34.1099 18.3416 35.7778 16.6737 35.7778 14.6235Z" fill="#1B6AAB"/>
<path d="M18.7597 31.9224L18.7151 31.8476C18.5124 31.5072 18.4053 31.1182 18.4053 30.722V29.6824C18.4053 27.6023 16.7033 25.8452 14.6235 25.8804C12.6028 25.9145 10.9693 27.5691 10.9693 29.5977V30.7969C10.9693 32.0117 9.98467 32.9963 8.76987 32.9963H0C1.08208 48.2924 13.3562 60.5449 28.6613 61.5937V50.5159H25.6805C23.4486 50.5159 21.6394 48.7066 21.6394 46.4748C21.6394 44.243 23.4486 42.4337 25.6805 42.4337H28.6613V32.9962H20.6495C19.8743 32.9963 19.1563 32.5884 18.7597 31.9224Z" fill="#1B6AAB"/>
</svg>
