<svg width="75" height="75" viewBox="0 0 75 75" fill="none" xmlns="http://www.w3.org/2000/svg">
<g clip-path="url(#clip0)">
<path fill-rule="evenodd" clip-rule="evenodd" d="M65.625 4.6875H9.375C8.1318 4.6875 6.93951 5.18136 6.06044 6.06044C5.18136 6.93951 4.6875 8.1318 4.6875 9.375V65.625C4.6875 66.8682 5.18136 68.0605 6.06044 68.9396C6.93951 69.8186 8.1318 70.3125 9.375 70.3125H65.625C66.8682 70.3125 68.0605 69.8186 68.9396 68.9396C69.8186 68.0605 70.3125 66.8682 70.3125 65.625V9.375C70.3125 8.1318 69.8186 6.93951 68.9396 6.06044C68.0605 5.18136 66.8682 4.6875 65.625 4.6875ZM9.375 0C6.8886 0 4.50403 0.987721 2.74587 2.74587C0.987721 4.50403 0 6.8886 0 9.375L0 65.625C0 68.1114 0.987721 70.496 2.74587 72.2541C4.50403 74.0123 6.8886 75 9.375 75H65.625C68.1114 75 70.496 74.0123 72.2541 72.2541C74.0123 70.496 75 68.1114 75 65.625V9.375C75 6.8886 74.0123 4.50403 72.2541 2.74587C70.496 0.987721 68.1114 0 65.625 0L9.375 0Z" fill="#1B6AAB"/>
<path d="M25.7812 56.25C25.7812 58.1148 25.0405 59.9032 23.7218 61.2218C22.4032 62.5405 20.6148 63.2812 18.75 63.2812C16.8852 63.2812 15.0968 62.5405 13.7782 61.2218C12.4595 59.9032 11.7188 58.1148 11.7188 56.25C11.7188 54.3852 12.4595 52.5968 13.7782 51.2782C15.0968 49.9595 16.8852 49.2188 18.75 49.2188C20.6148 49.2188 22.4032 49.9595 23.7218 51.2782C25.0405 52.5968 25.7812 54.3852 25.7812 56.25Z" fill="#1B6AAB"/>
<path fill-rule="evenodd" clip-rule="evenodd" d="M11.7188 16.4062C11.7188 15.163 12.2126 13.9708 13.0917 13.0917C13.9708 12.2126 15.163 11.7188 16.4062 11.7188C42.2953 11.7188 63.2812 32.7047 63.2812 58.5938C63.2812 59.837 62.7874 61.0292 61.9083 61.9083C61.0292 62.7874 59.837 63.2812 58.5938 63.2812C57.3505 63.2812 56.1583 62.7874 55.2792 61.9083C54.4001 61.0292 53.9062 59.837 53.9062 58.5938C53.9062 48.6481 49.9554 39.1099 42.9228 32.0772C35.8901 25.0446 26.3519 21.0938 16.4062 21.0938C15.163 21.0938 13.9708 20.5999 13.0917 19.7208C12.2126 18.8417 11.7188 17.6495 11.7188 16.4062ZM11.7188 35.1562C11.7188 33.913 12.2126 32.7208 13.0917 31.8417C13.9708 30.9626 15.163 30.4688 16.4062 30.4688C23.8655 30.4688 31.0192 33.4319 36.2936 38.7064C41.5681 43.9808 44.5312 51.1345 44.5312 58.5938C44.5312 59.837 44.0374 61.0292 43.1583 61.9083C42.2792 62.7874 41.087 63.2812 39.8438 63.2812C38.6005 63.2812 37.4083 62.7874 36.5292 61.9083C35.6501 61.0292 35.1562 59.837 35.1562 58.5938C35.1562 53.6209 33.1808 48.8518 29.6645 45.3355C26.1482 41.8192 21.3791 39.8438 16.4062 39.8438C15.163 39.8438 13.9708 39.3499 13.0917 38.4708C12.2126 37.5917 11.7188 36.3995 11.7188 35.1562Z" fill="#1B6AAB"/>
</g>
<defs>
<clipPath id="clip0">
<rect width="75" height="75" fill="white"/>
</clipPath>
</defs>
</svg>
