<svg width="20" height="20" viewBox="0 0 20 20" fill="none" xmlns="http://www.w3.org/2000/svg">
<path d="M8 4.00004H3C2.46957 4.00004 1.96086 4.21075 1.58579 4.58583C1.21071 4.9609 1 5.46961 1 6.00004V17C1 17.5305 1.21071 18.0392 1.58579 18.4143C1.96086 18.7893 2.46957 19 3 19H14C14.5304 19 15.0391 18.7893 15.4142 18.4143C15.7893 18.0392 16 17.5305 16 17V12L8 4.00004ZM14.586 2.58604C14.7705 2.39502 14.9912 2.24266 15.2352 2.13784C15.4792 2.03302 15.7416 1.97785 16.0072 1.97554C16.2728 1.97323 16.5361 2.02384 16.7819 2.1244C17.0277 2.22496 17.251 2.37346 17.4388 2.56125C17.6266 2.74904 17.7751 2.97234 17.8756 3.21813C17.9762 3.46392 18.0268 3.72728 18.0245 3.99284C18.0222 4.2584 17.967 4.52084 17.8622 4.76485C17.7574 5.00886 17.605 5.22955 17.414 5.41404L8.828 14H6V11.172L14.586 2.58604Z" stroke="white" stroke-width="2" stroke-linecap="round" stroke-linejoin="round"/>
</svg>
