<svg width="166" height="147" viewBox="0 0 166 147" fill="none" xmlns="http://www.w3.org/2000/svg">
<path d="M81.0493 147.001C113.782 147.001 140.317 120.403 140.317 87.5922C140.317 54.7817 113.782 28.1836 81.0493 28.1836C48.3164 28.1836 21.7812 54.7817 21.7812 87.5922C21.7812 120.403 48.3164 147.001 81.0493 147.001Z" fill="#1B6AAB"/>
<path d="M71.2784 0L73.9184 6.08641L79.9904 8.73267L73.9184 11.3789L71.2784 17.4653L68.6384 11.3789L62.5664 8.73267L68.6384 6.08641L71.2784 0Z" fill="#1B6AAB"/>
<path d="M158.137 61.2617L160.249 66.1573L165.001 68.2743L160.249 70.259L158.137 75.1546L156.025 70.259L151.273 68.2743L156.025 66.1573L158.137 61.2617Z" fill="#1B6AAB"/>
<path d="M5.016 66.0234L6.6 69.5959L10.164 71.0513L6.6 72.6391L5.016 76.2116L3.564 72.6391L0 71.0513L3.564 69.5959L5.016 66.0234Z" fill="#1B6AAB"/>
<path d="M41.4492 70.5234V112.599C41.4492 115.378 43.6932 117.627 46.4652 117.627H116.557C119.329 117.627 121.573 115.378 121.573 112.599V70.5234H41.4492Z" fill="#AAAAAA"/>
<path d="M119.725 66.951L84.0852 40.8853C82.5012 39.6945 80.5212 39.6945 78.9372 40.8853L43.2972 66.951C42.1092 67.7449 41.4492 69.068 41.4492 70.5235H121.441C121.441 69.068 120.781 67.7449 119.725 66.951Z" fill="#D8D7DB"/>
<path d="M109.694 63.5117H53.3301C52.4061 63.5117 51.7461 64.1733 51.7461 65.0995V109.689C51.7461 110.615 52.4061 111.277 53.3301 111.277H109.694C110.618 111.277 111.278 110.615 111.278 109.689V65.0995C111.278 64.1733 110.618 63.5117 109.694 63.5117Z" fill="#E0E6FA"/>
<path d="M60.9834 77.2714H102.299C102.695 77.2714 103.091 76.8744 103.091 76.4775C103.091 76.0805 102.695 75.6836 102.299 75.6836H60.9834C60.5874 75.6836 60.1914 76.0805 60.1914 76.4775C60.1914 77.0067 60.5874 77.2714 60.9834 77.2714Z" fill="#00506A"/>
<path d="M102.299 82.5645H60.9834C60.5874 82.5645 60.1914 82.9614 60.1914 83.3583C60.1914 83.7553 60.5874 84.1522 60.9834 84.1522H102.299C102.695 84.1522 103.091 83.7553 103.091 83.3583C103.091 82.9614 102.695 82.5645 102.299 82.5645Z" fill="#00506A"/>
<path d="M102.299 89.3125H60.9834C60.5874 89.3125 60.1914 89.7094 60.1914 90.1064C60.1914 90.5033 60.5874 90.9003 60.9834 90.9003H102.299C102.695 90.9003 103.091 90.5033 103.091 90.1064C103.091 89.7094 102.695 89.3125 102.299 89.3125Z" fill="#00506A"/>
<path d="M46.4648 117.627H116.557C119.329 117.627 121.441 115.378 121.441 112.731V70.5234L46.4648 117.627Z" fill="#FEFFFF"/>
<path d="M41.4492 70.5234V112.731C41.4492 115.51 43.6932 117.627 46.3332 117.627H116.425L41.4492 70.5234Z" fill="#F2F0F7"/>
</svg>
