<svg width="24" height="24" viewBox="0 0 24 24" fill="none" xmlns="http://www.w3.org/2000/svg">
<path d="M20.038 16.857C22.5895 14.58 23.9995 12 23.9995 12C23.9995 12 19.4995 3.75 11.9995 3.75C10.5588 3.75496 9.13453 4.05514 7.81445 4.632L8.96945 5.7885C9.94061 5.43473 10.9659 5.25252 11.9995 5.25C15.1795 5.25 17.818 7.002 19.7515 8.9355C20.682 9.87104 21.5162 10.8977 22.2415 12C22.1545 12.1305 22.0585 12.2745 21.949 12.432C21.4465 13.152 20.704 14.112 19.7515 15.0645C19.504 15.312 19.246 15.5565 18.976 15.7935L20.038 16.857Z" fill="black" fill-opacity="0.54"/>
<path d="M16.9451 13.7636C17.2798 12.8273 17.3418 11.8153 17.1238 10.8452C16.9058 9.87509 16.4169 8.98684 15.7138 8.28378C15.0108 7.58072 14.1225 7.09177 13.1524 6.8738C12.1823 6.65583 11.1703 6.71782 10.2341 7.05256L11.4686 8.28705C12.045 8.20454 12.6328 8.25742 13.1853 8.4415C13.7377 8.62558 14.2398 8.93579 14.6515 9.34757C15.0633 9.75935 15.3735 10.2614 15.5576 10.8138C15.7417 11.3663 15.7946 11.9541 15.7121 12.5306L16.9451 13.7636ZM12.5306 15.7121L13.7636 16.9451C12.8273 17.2798 11.8153 17.3418 10.8452 17.1238C9.87509 16.9058 8.98684 16.4169 8.28378 15.7138C7.58072 15.0108 7.09177 14.1225 6.8738 13.1524C6.65583 12.1823 6.71782 11.1703 7.05256 10.2341L8.28705 11.4686C8.20454 12.045 8.25742 12.6328 8.4415 13.1853C8.62558 13.7377 8.93579 14.2398 9.34757 14.6515C9.75935 15.0633 10.2614 15.3735 10.8138 15.5576C11.3663 15.7417 11.9541 15.7946 12.5306 15.7121Z" fill="black" fill-opacity="0.54"/>
<path d="M5.025 8.20555C4.755 8.44555 4.4955 8.68855 4.248 8.93605C3.31747 9.87159 2.48328 10.8982 1.758 12.0006L2.0505 12.4326C2.553 13.1526 3.2955 14.1126 4.248 15.0651C6.1815 16.9986 8.8215 18.7506 12 18.7506C13.074 18.7506 14.085 18.5511 15.03 18.2106L16.185 19.3686C14.8649 19.9454 13.4406 20.2455 12 20.2506C4.5 20.2506 0 12.0006 0 12.0006C0 12.0006 1.4085 9.41905 3.9615 7.14355L5.0235 8.20705L5.025 8.20555Z" fill="black" fill-opacity="0.54"/>
<path fill-rule="evenodd" clip-rule="evenodd" d="M20.4688 21.5317L2.46875 3.53173L3.53075 2.46973L21.5308 20.4697L20.4688 21.5317Z" fill="black" fill-opacity="0.54"/>
</svg>
